<svg width="221" height="59" viewBox="0 0 221 59" fill="none" xmlns="http://www.w3.org/2000/svg">
<path d="M62.8006 35.1809L75.9106 6.44834C76.0385 6.19242 76.4224 5.97916 76.6357 5.97916H77.0622C77.2755 5.97916 77.6593 6.19242 77.7873 6.44834L90.8119 35.1809C91.0679 35.7354 90.7266 36.2899 90.0868 36.2899H87.3958C86.884 36.2899 86.5854 36.034 86.4148 35.6501L83.7665 29.8027H69.8034C68.9504 31.7648 68.0508 33.688 67.1977 35.6501C67.0698 35.9486 66.7286 36.2899 66.2167 36.2899H63.5257C62.8859 36.2937 62.5447 35.7393 62.8006 35.1809ZM82.1418 26.1307L76.8916 14.4322H76.6783L71.4669 26.1307H82.1418Z" fill="white"/>
<path d="M107.334 5.97919C111.646 5.97919 114.763 7.42939 117.668 9.94979C118.052 10.291 118.052 10.8028 117.71 11.1441L115.83 13.0673C115.531 13.4512 115.147 13.4512 114.763 13.0673C112.755 11.3186 110.025 10.2057 107.377 10.2057C101.27 10.2057 96.6593 15.3279 96.6593 21.3071C96.6593 27.2863 101.312 32.3658 107.419 32.3658C110.537 32.3658 112.716 31.1289 114.763 29.5469C115.147 29.2483 115.531 29.2909 115.787 29.5042L117.753 31.4275C118.094 31.726 118.009 32.2805 117.71 32.5791C114.806 35.3981 111.134 36.7203 107.334 36.7203C98.7958 36.7203 91.9209 29.9307 91.9209 21.3924C91.9209 12.8541 98.7958 5.97919 107.334 5.97919Z" fill="white"/>
<path d="M136.071 5.97919C140.382 5.97919 143.5 7.42939 146.404 9.94979C146.788 10.291 146.788 10.8028 146.447 11.1441L144.566 13.0673C144.268 13.4512 143.884 13.4512 143.5 13.0673C141.491 11.3186 138.762 10.2057 136.113 10.2057C130.006 10.2057 125.396 15.3279 125.396 21.3071C125.396 27.2863 130.049 32.3658 136.156 32.3658C139.273 32.3658 141.453 31.1289 143.5 29.5469C143.884 29.2483 144.268 29.2909 144.524 29.5042L146.49 31.4275C146.831 31.726 146.745 32.2805 146.447 32.5791C143.543 35.3981 139.871 36.7203 136.071 36.7203C127.532 36.7203 120.657 29.9307 120.657 21.3924C120.657 12.8541 127.528 5.97919 136.071 5.97919Z" fill="white"/>
<path d="M151.697 7.21611C151.697 6.78958 152.038 6.4057 152.507 6.4057H169.588C170.057 6.4057 170.398 6.78958 170.398 7.21611V9.60855C170.398 10.0351 170.057 10.419 169.588 10.419H156.094V19.1279H167.494C167.921 19.1279 168.305 19.5118 168.305 19.9383V22.3307C168.305 22.7999 167.921 23.1412 167.494 23.1412H156.094V32.3193H169.588C170.057 32.3193 170.398 32.7032 170.398 33.1297V35.4795C170.398 35.906 170.057 36.2899 169.588 36.2899H152.507C152.038 36.2899 151.697 35.906 151.697 35.4795V7.21611Z" fill="white"/>
<path d="M174.113 31.982C174.497 31.4275 174.838 30.7877 175.222 30.2332C175.606 29.6787 176.203 29.5081 176.672 29.892C176.928 30.1052 180.216 32.8389 183.504 32.8389C186.451 32.8389 188.328 31.0436 188.328 28.8683C188.328 26.3052 186.106 24.6844 181.88 22.9357C177.525 21.1016 174.109 18.8371 174.109 13.8855C174.109 10.5547 176.672 5.98694 183.462 5.98694C187.731 5.98694 190.934 8.20877 191.36 8.50734C191.702 8.7206 192.043 9.31774 191.616 9.95754C191.275 10.4694 190.891 11.0665 190.55 11.5783C190.209 12.1328 189.654 12.3888 189.057 12.0049C188.759 11.8343 185.769 9.86835 183.291 9.86835C179.704 9.86835 178.468 12.1328 178.468 13.711C178.468 16.1461 180.348 17.6389 183.892 19.0891C188.844 21.0977 193.074 23.4436 193.074 28.6511C193.074 33.0909 189.104 36.7203 183.551 36.7203C178.34 36.7203 175.055 33.9866 174.369 33.3468C173.985 33.0056 173.687 32.7071 174.113 31.982Z" fill="white"/>
<path d="M196.231 31.982C196.614 31.4275 196.956 30.7877 197.34 30.2332C197.723 29.6787 198.321 29.5081 198.794 29.892C199.05 30.1052 202.338 32.8389 205.626 32.8389C208.573 32.8389 210.449 31.0436 210.449 28.8683C210.449 26.3052 208.228 24.6844 204.001 22.9357C199.647 21.1016 196.231 18.8371 196.231 13.8855C196.231 10.5547 198.794 5.98694 205.583 5.98694C209.852 5.98694 213.055 8.20877 213.482 8.50734C213.823 8.7206 214.164 9.31774 213.738 9.95754C213.396 10.4694 213.013 11.0665 212.671 11.5783C212.33 12.1328 211.776 12.3888 211.178 12.0049C210.88 11.8343 207.89 9.86835 205.413 9.86835C201.826 9.86835 200.589 12.1328 200.589 13.711C200.589 16.1461 202.47 17.6389 206.014 19.0891C210.965 21.0977 215.196 23.4436 215.196 28.6511C215.196 33.0909 211.225 36.7203 205.672 36.7203C200.465 36.7203 197.177 33.9866 196.49 33.3468C196.103 33.0056 195.804 32.7071 196.231 31.982Z" fill="white"/>
<path d="M67.5079 42.649C68.8146 42.649 69.7569 43.0872 70.6371 43.8511C70.7534 43.9558 70.7534 44.1109 70.6487 44.2117L70.0787 44.7933C69.9895 44.9097 69.8732 44.9097 69.7569 44.7933C69.1481 44.2621 68.3222 43.9286 67.5195 43.9286C65.67 43.9286 64.274 45.4797 64.274 47.2905C64.274 49.1013 65.6816 50.6407 67.5312 50.6407C68.4734 50.6407 69.1326 50.2645 69.753 49.7876C69.8693 49.6984 69.9857 49.71 70.0632 49.776L70.6565 50.3576C70.7612 50.4468 70.734 50.6174 70.6448 50.7066C69.7646 51.5596 68.6557 51.959 67.504 51.959C64.9177 51.959 62.8355 49.9039 62.8355 47.3176C62.8355 44.7313 64.9216 42.649 67.5079 42.649Z" fill="white"/>
<path d="M78.0044 43.0252C78.0044 42.8972 78.1091 42.7809 78.2487 42.7809H81.7656C83.3166 42.7809 84.5845 44.0101 84.5845 45.5456C84.5845 46.736 83.7974 47.717 82.6729 48.1707L84.445 51.4549C84.5341 51.6217 84.445 51.8311 84.2239 51.8311H83.2158C83.1111 51.8311 83.0335 51.7651 83.0103 51.7147L81.2925 48.2909H79.3421V51.5868C79.3421 51.7147 79.2258 51.8311 79.0978 51.8311H78.2564C78.1129 51.8311 78.0121 51.7147 78.0121 51.5868V43.0252H78.0044ZM81.6648 47.1741C82.5062 47.1741 83.2429 46.4645 83.2429 45.5727C83.2429 44.7313 82.5062 44.0333 81.6648 44.0333H79.3654V47.1741H81.6648Z" fill="white"/>
<path d="M92.1225 43.0252C92.1225 42.8972 92.2272 42.7809 92.3668 42.7809H97.5394C97.6829 42.7809 97.7837 42.8972 97.7837 43.0252V43.7503C97.7837 43.8782 97.679 43.9946 97.5394 43.9946H93.4525V46.6313H96.9035C97.0315 46.6313 97.1478 46.7476 97.1478 46.8756V47.6007C97.1478 47.7441 97.0315 47.8449 96.9035 47.8449H93.4525V50.6251H97.5394C97.6829 50.6251 97.7837 50.7415 97.7837 50.8694V51.579C97.7837 51.707 97.679 51.8233 97.5394 51.8233H92.3668C92.2233 51.8233 92.1225 51.707 92.1225 51.579V43.0252Z" fill="white"/>
<path d="M105.256 43.0252C105.256 42.8972 105.36 42.7809 105.488 42.7809H108.462C110.956 42.7809 112.999 44.8088 112.999 47.2943C112.999 49.8031 110.956 51.8311 108.462 51.8311H105.488C105.36 51.8311 105.256 51.7147 105.256 51.5868V43.0252ZM108.28 50.598C110.18 50.598 111.564 49.2021 111.564 47.2866C111.564 45.3866 110.18 44.0023 108.28 44.0023H106.574V50.5941H108.28V50.598Z" fill="white"/>
<path d="M120.382 43.0252C120.382 42.8972 120.498 42.7809 120.626 42.7809H121.479C121.607 42.7809 121.724 42.8972 121.724 43.0252V51.5829C121.724 51.7109 121.607 51.8272 121.479 51.8272H120.626C120.498 51.8272 120.382 51.7109 120.382 51.5829V43.0252Z" fill="white"/>
<path d="M130.995 43.9946H128.889C128.746 43.9946 128.645 43.8782 128.645 43.7503V43.0252C128.645 42.8972 128.75 42.7809 128.889 42.7809H134.45C134.593 42.7809 134.694 42.8972 134.694 43.0252V43.7503C134.694 43.8782 134.589 43.9946 134.45 43.9946H132.344V51.5829C132.344 51.7109 132.228 51.8272 132.1 51.8272H131.247C131.119 51.8272 131.003 51.7109 131.003 51.5829V43.9946H130.995Z" fill="white"/>
<path d="M149.855 43.0252C149.855 42.8972 149.971 42.7809 150.099 42.7809H150.964C151.108 42.7809 151.208 42.8972 151.208 43.0252V48.3645C151.208 49.6558 152.034 50.6639 153.353 50.6639C154.683 50.6639 155.524 49.6674 155.524 48.3878V43.0213C155.524 42.8933 155.629 42.777 155.768 42.777H156.633C156.761 42.777 156.877 42.8933 156.877 43.0213V48.4498C156.877 50.4158 155.392 51.9551 153.349 51.9551C151.321 51.9551 149.844 50.4158 149.844 48.4498V43.0252H149.855Z" fill="white"/>
<path d="M164.799 42.8817C164.799 42.7537 164.916 42.649 165.043 42.649H165.365L170.976 49.14H170.988V43.0252C170.988 42.8972 171.092 42.7809 171.232 42.7809H172.058C172.186 42.7809 172.302 42.8972 172.302 43.0252V51.7264C172.302 51.8543 172.186 51.959 172.058 51.959H171.721L166.11 45.2897H166.098V51.5868C166.098 51.7147 165.993 51.8311 165.854 51.8311H165.04C164.912 51.8311 164.795 51.7147 164.795 51.5868V42.8817H164.799Z" fill="white"/>
<path d="M180.34 43.0252C180.34 42.8972 180.457 42.7809 180.585 42.7809H181.438C181.566 42.7809 181.682 42.8972 181.682 43.0252V51.5829C181.682 51.7109 181.566 51.8272 181.438 51.8272H180.585C180.457 51.8272 180.34 51.7109 180.34 51.5829V43.0252Z" fill="white"/>
<path d="M193.695 42.649C196.281 42.649 198.348 44.7313 198.348 47.3176C198.348 49.9039 196.281 51.959 193.695 51.959C191.108 51.959 189.053 49.9039 189.053 47.3176C189.053 44.7313 191.108 42.649 193.695 42.649ZM193.695 50.6639C195.544 50.6639 197.056 49.1633 197.056 47.3176C197.056 45.4835 195.544 43.9441 193.695 43.9441C191.861 43.9441 190.344 45.4835 190.344 47.3176C190.344 49.1633 191.857 50.6639 193.695 50.6639Z" fill="white"/>
<path d="M205.715 42.8817C205.715 42.7537 205.831 42.649 205.959 42.649H206.285L211.896 49.14H211.907V43.0252C211.907 42.8972 212.012 42.7809 212.152 42.7809H212.978C213.106 42.7809 213.222 42.8972 213.222 43.0252V51.7264C213.222 51.8543 213.106 51.959 212.978 51.959H212.64L207.029 45.2897H207.018V51.5868C207.018 51.7147 206.913 51.8311 206.774 51.8311H205.959C205.831 51.8311 205.715 51.7147 205.715 51.5868V42.8817Z" fill="white"/>
<path d="M42.8235 13.9824C43.5215 13.9824 44.2272 14.1608 44.8747 14.533L46.5692 15.4403L30.0742 43.7813C29.446 44.6925 28.6201 45.1539 27.6934 45.1539C26.7666 45.1539 25.9872 44.7002 25.3126 43.7813L22.0942 38.2054L20.6169 35.495L23.777 29.8454L27.6934 36.6311L31.4003 30.2138L39.2601 16.0375C40.0201 14.7191 41.4005 13.9824 42.8235 13.9824Z" fill="#4197CB"/>
<path d="M41.8464 25.8864L36.1464 35.6811L43.3315 48.5662C45.1268 51.7962 49.2137 52.971 52.4476 51.1796L55.3673 49.5627L41.8464 25.8864Z" fill="white"/>
<path d="M9.02689 21.8228C10.0893 21.8228 11.4193 22.2687 12.4236 23.9593L27.6934 50.1637L35.4988 36.8405L38.5582 42.4707L30.0742 57.3139C29.4848 58.2329 28.6201 58.5896 27.6934 58.5896C26.7666 58.5896 26.0144 58.2716 25.3125 57.3139L5.48669 23.2187L6.80893 22.4548C7.04546 22.3191 7.2975 22.2377 7.53791 22.1252C7.85199 21.9818 8.39097 21.8228 9.02689 21.8228Z" fill="#76BC21"/>
<path d="M19.8762 34.4248L23.7848 27.5228L27.6856 20.5277L27.7438 20.6208V20.6091L31.5748 27.4801L37.1274 17.4644L32.0401 8.30569C31.2025 6.79345 29.6748 5.87448 27.9454 5.84346C27.7787 5.83958 27.6119 5.84733 27.4491 5.86284C27.4374 5.86284 27.4258 5.86284 27.418 5.86284C25.6925 5.89386 24.1609 6.81672 23.3234 8.32508L14.944 23.4203L14.2112 24.7038L19.8762 34.4248Z" fill="white"/>
<path d="M9.64344 32.6954L0 49.5782L2.91979 51.1951C6.15365 52.9866 10.2406 51.8117 12.0359 48.5817L15.3861 42.5715L9.64344 32.6954Z" fill="white"/>
</svg>
