<?xml version="1.0" encoding="UTF-8" standalone="no"?>
<svg
   xmlns:dc="http://purl.org/dc/elements/1.1/"
   xmlns:cc="http://creativecommons.org/ns#"
   xmlns:rdf="http://www.w3.org/1999/02/22-rdf-syntax-ns#"
   xmlns:svg="http://www.w3.org/2000/svg"
   xmlns="http://www.w3.org/2000/svg"
   xmlns:sodipodi="http://sodipodi.sourceforge.net/DTD/sodipodi-0.dtd"
   xmlns:inkscape="http://www.inkscape.org/namespaces/inkscape"
   width="55.367298"
   height="52.747131"
   viewBox="0 0 55.367298 52.747131"
   version="1.1"
   id="svg46"
   sodipodi:docname="logo-white-no-text.svg"
   style="fill:none"
   inkscape:version="0.92.4 (5da689c313, 2019-01-14)">
  <metadata
     id="metadata52">
    <rdf:RDF>
      <cc:Work
         rdf:about="">
        <dc:format>image/svg+xml</dc:format>
        <dc:type
           rdf:resource="http://purl.org/dc/dcmitype/StillImage" />
        <dc:title></dc:title>
      </cc:Work>
    </rdf:RDF>
  </metadata>
  <defs
     id="defs50" />
  <sodipodi:namedview
     pagecolor="#ffffff"
     bordercolor="#666666"
     borderopacity="1"
     objecttolerance="10"
     gridtolerance="10"
     guidetolerance="10"
     inkscape:pageopacity="0"
     inkscape:pageshadow="2"
     inkscape:window-width="1920"
     inkscape:window-height="1001"
     id="namedview48"
     showgrid="false"
     fit-margin-top="0"
     fit-margin-left="0"
     fit-margin-right="0"
     fit-margin-bottom="0"
     inkscape:zoom="4.9613264"
     inkscape:cx="48.841993"
     inkscape:cy="58.895752"
     inkscape:window-x="-9"
     inkscape:window-y="-9"
     inkscape:window-maximized="1"
     inkscape:current-layer="svg46" />
  <path
     d="m 42.8235,8.1399296 c 0.698,0 1.4037,0.1784 2.0512,0.5506 l 1.6945,0.9073 -16.495,28.3410004 c -0.6282,0.9112 -1.4541,1.3726 -2.3808,1.3726 -0.9268,0 -1.7062,-0.4537 -2.3808,-1.3726 l -3.2184,-5.5759 -1.4773,-2.7104 3.1601,-5.6496 3.9164,6.7857 3.7069,-6.4173 7.8598,-14.1763 c 0.76,-1.3184004 2.1404,-2.0551004 3.5634,-2.0551004 z"
     id="path36"
     inkscape:connector-curvature="0"
     style="fill:#4197cb" />
  <path
     d="m 41.8464,20.04393 -5.7,9.7947 7.1851,12.8851 c 1.7953,3.23 5.8822,4.4048 9.1161,2.6134 l 2.9197,-1.6169 z"
     id="path38"
     inkscape:connector-curvature="0"
     style="fill:#ffffff" />
  <path
     d="m 9.02689,15.98033 c 1.06241,0 2.39241,0.4459 3.39671,2.1365 l 15.2698,26.2044 7.8054,-13.3232 3.0594,5.6302 -8.484,14.8432 c -0.5894,0.919 -1.4541,1.2757 -2.3808,1.2757 -0.9268,0 -1.679,-0.318 -2.3809,-1.2757 L 5.48669,17.37623 6.80893,16.61233 c 0.23653,-0.1357 0.48857,-0.2171 0.72898,-0.3296 0.31408,-0.1434 0.85306,-0.3024 1.48898,-0.3024 z"
     id="path40"
     inkscape:connector-curvature="0"
     style="fill:#76bc21" />
  <path
     d="m 19.8762,28.58233 3.9086,-6.902 3.9008,-6.9951 0.0582,0.0931 v -0.0117 l 3.831,6.871 5.5526,-10.0157 -5.0873,-9.1587104 C 31.2025,0.95097959 29.6748,0.03200959 27.9454,9.8958919e-4 27.7787,-0.00289041 27.6119,0.00485959 27.4491,0.02036959 c -0.0117,0 -0.0233,0 -0.0311,0 -1.7255,0.03102 -3.2571,0.95388 -4.0946,2.46224001 L 14.944,17.57783 l -0.7328,1.2835 z"
     id="path42"
     inkscape:connector-curvature="0"
     style="fill:#ffffff" />
  <path
     d="M 9.64344,26.85293 0,43.73573 l 2.91979,1.6169 c 3.23386,1.7915 7.32081,0.6166 9.11611,-2.6134 l 3.3502,-6.0102 z"
     id="path44"
     inkscape:connector-curvature="0"
     style="fill:#ffffff" />
</svg>
