<svg width="129" height="123" viewBox="0 0 129 123" fill="none" xmlns="http://www.w3.org/2000/svg">
<path d="M99.5875 18.9297C101.211 18.9297 102.852 19.3445 104.358 20.2101L108.298 22.3202L69.9385 88.228C68.4777 90.347 66.557 91.4201 64.4018 91.4201C62.2467 91.4201 60.4342 90.3651 58.8652 88.228L51.3808 75.261L47.9452 68.9579L55.2943 55.8196L64.4018 71.6L73.0224 56.6763L91.3006 23.7089C93.068 20.643 96.2781 18.9297 99.5875 18.9297Z" fill="#4197CB"/>
<path d="M97.3151 46.6129L84.0596 69.3907L100.769 99.3553C104.944 106.867 114.448 109.599 121.968 105.433L128.759 101.673L97.3151 46.6129Z" fill="#003B4A"/>
<path d="M20.9924 37.1627C23.4631 37.1627 26.5561 38.1997 28.8915 42.1313L64.4018 103.07L82.5537 72.0869L89.6684 85.1801L69.9385 119.698C68.5678 121.836 66.557 122.665 64.4018 122.665C62.2467 122.665 60.4973 121.926 58.8652 119.698L12.7595 40.409L15.8344 38.6325C16.3845 38.3169 16.9706 38.1276 17.5297 37.8661C18.2601 37.5324 19.5135 37.1627 20.9924 37.1627Z" fill="#76BC21"/>
<path d="M46.2229 66.4691L55.3124 50.4183L64.3838 34.151L64.5191 34.3674V34.3403L73.4282 50.3191L86.3411 27.0273L74.5103 5.72831C72.5626 2.21155 69.0097 0.0744366 64.988 0.00229784C64.6003 -0.0067195 64.2125 0.0113162 63.8338 0.0473856C63.8067 0.0473856 63.7797 0.0473856 63.7616 0.0473856C59.7489 0.119524 56.1871 2.26565 54.2393 5.7734L34.7529 40.8779L33.0486 43.8626L46.2229 66.4691Z" fill="#003B4A"/>
<path d="M22.4261 62.4474L0 101.709L6.79006 105.469C14.3105 109.635 23.8148 106.903 27.9898 99.3914L35.7808 85.4146L22.4261 62.4474Z" fill="#003B4A"/>
</svg>
<path d="M99.5875 18.9297C101.211 18.9297 102.852 19.3445 104.358 20.2101L108.298 22.3202L69.9385 88.228C68.4777 90.347 66.557 91.4201 64.4018 91.4201C62.2467 91.4201 60.4342 90.3651 58.8652 88.228L51.3808 75.261L47.9452 68.9579L55.2943 55.8196L64.4018 71.6L73.0224 56.6763L91.3006 23.7089C93.068 20.643 96.2781 18.9297 99.5875 18.9297Z" fill="#4197CB"/>
<path d="M97.3151 46.6129L84.0596 69.3907L100.769 99.3553C104.944 106.867 114.448 109.599 121.968 105.433L128.759 101.673L97.3151 46.6129Z" fill="#003B4A"/>
<path d="M20.9924 37.1627C23.4631 37.1627 26.5561 38.1997 28.8915 42.1313L64.4018 103.07L82.5537 72.0869L89.6684 85.1801L69.9385 119.698C68.5678 121.836 66.557 122.665 64.4018 122.665C62.2467 122.665 60.4973 121.926 58.8652 119.698L12.7595 40.409L15.8344 38.6325C16.3845 38.3169 16.9706 38.1276 17.5297 37.8661C18.2601 37.5324 19.5135 37.1627 20.9924 37.1627Z" fill="#76BC21"/>
<path d="M46.2229 66.4691L55.3124 50.4183L64.3838 34.151L64.5191 34.3674V34.3403L73.4282 50.3191L86.3411 27.0273L74.5103 5.72831C72.5626 2.21155 69.0097 0.0744366 64.988 0.00229784C64.6003 -0.0067195 64.2125 0.0113162 63.8338 0.0473856C63.8067 0.0473856 63.7797 0.0473856 63.7616 0.0473856C59.7489 0.119524 56.1871 2.26565 54.2393 5.7734L34.7529 40.8779L33.0486 43.8626L46.2229 66.4691Z" fill="#003B4A"/>
<path d="M22.4261 62.4474L0 101.709L6.79006 105.469C14.3105 109.635 23.8148 106.903 27.9898 99.3914L35.7808 85.4146L22.4261 62.4474Z" fill="#003B4A"/>
</svg>
