<svg width="1063" height="1412" viewBox="0 0 1063 1412" fill="none" xmlns="http://www.w3.org/2000/svg">
<g filter="url(#filter0_d_0_1)">
<rect x="7" width="1052" height="615" rx="33" fill="#07575F"/>
<rect x="7.5" y="0.5" width="1051" height="614" rx="32.5" stroke="black"/>
</g>
<rect x="436" y="364" width="580" height="59" rx="5" fill="#F3F3F3"/>
<rect x="436" y="257" width="580" height="59" rx="5" fill="#F3F3F3"/>
<rect x="437" y="155" width="580" height="59" rx="5" fill="#F3F3F3"/>
<path d="M83.25 374.227H68.4609V386.32H85.6406V390H63.9609V355.875H85.4062V359.578H68.4609V370.547H83.25V374.227ZM99.0703 373.898L104.695 364.641H109.758L101.461 377.18L110.016 390H105L99.1406 380.508L93.2812 390H88.2422L96.7969 377.18L88.5 364.641H93.5156L99.0703 373.898ZM135.797 377.602C135.797 381.461 134.914 384.57 133.148 386.93C131.383 389.289 128.992 390.469 125.977 390.469C122.898 390.469 120.477 389.492 118.711 387.539V399.75H114.375V364.641H118.336L118.547 367.453C120.312 365.266 122.766 364.172 125.906 364.172C128.953 364.172 131.359 365.32 133.125 367.617C134.906 369.914 135.797 373.109 135.797 377.203V377.602ZM131.461 377.109C131.461 374.25 130.852 371.992 129.633 370.336C128.414 368.68 126.742 367.852 124.617 367.852C121.992 367.852 120.023 369.016 118.711 371.344V383.461C120.008 385.773 121.992 386.93 124.664 386.93C126.742 386.93 128.391 386.109 129.609 384.469C130.844 382.812 131.461 380.359 131.461 377.109ZM151.852 390.469C148.414 390.469 145.617 389.344 143.461 387.094C141.305 384.828 140.227 381.805 140.227 378.023V377.227C140.227 374.711 140.703 372.469 141.656 370.5C142.625 368.516 143.969 366.969 145.688 365.859C147.422 364.734 149.297 364.172 151.312 364.172C154.609 364.172 157.172 365.258 159 367.43C160.828 369.602 161.742 372.711 161.742 376.758V378.562H144.562C144.625 381.062 145.352 383.086 146.742 384.633C148.148 386.164 149.93 386.93 152.086 386.93C153.617 386.93 154.914 386.617 155.977 385.992C157.039 385.367 157.969 384.539 158.766 383.508L161.414 385.57C159.289 388.836 156.102 390.469 151.852 390.469ZM151.312 367.734C149.562 367.734 148.094 368.375 146.906 369.656C145.719 370.922 144.984 372.703 144.703 375H157.406V374.672C157.281 372.469 156.688 370.766 155.625 369.562C154.562 368.344 153.125 367.734 151.312 367.734ZM176.953 386.93C178.5 386.93 179.852 386.461 181.008 385.523C182.164 384.586 182.805 383.414 182.93 382.008H187.031C186.953 383.461 186.453 384.844 185.531 386.156C184.609 387.469 183.375 388.516 181.828 389.297C180.297 390.078 178.672 390.469 176.953 390.469C173.5 390.469 170.75 389.32 168.703 387.023C166.672 384.711 165.656 381.555 165.656 377.555V376.828C165.656 374.359 166.109 372.164 167.016 370.242C167.922 368.32 169.219 366.828 170.906 365.766C172.609 364.703 174.617 364.172 176.93 364.172C179.773 364.172 182.133 365.023 184.008 366.727C185.898 368.43 186.906 370.641 187.031 373.359H182.93C182.805 371.719 182.18 370.375 181.055 369.328C179.945 368.266 178.57 367.734 176.93 367.734C174.727 367.734 173.016 368.531 171.797 370.125C170.594 371.703 169.992 373.992 169.992 376.992V377.812C169.992 380.734 170.594 382.984 171.797 384.562C173 386.141 174.719 386.93 176.953 386.93ZM197.789 358.5V364.641H202.523V367.992H197.789V383.719C197.789 384.734 198 385.5 198.422 386.016C198.844 386.516 199.562 386.766 200.578 386.766C201.078 386.766 201.766 386.672 202.641 386.484V390C201.5 390.312 200.391 390.469 199.312 390.469C197.375 390.469 195.914 389.883 194.93 388.711C193.945 387.539 193.453 385.875 193.453 383.719V367.992H188.836V364.641H193.453V358.5H197.789ZM218.133 390.469C214.695 390.469 211.898 389.344 209.742 387.094C207.586 384.828 206.508 381.805 206.508 378.023V377.227C206.508 374.711 206.984 372.469 207.938 370.5C208.906 368.516 210.25 366.969 211.969 365.859C213.703 364.734 215.578 364.172 217.594 364.172C220.891 364.172 223.453 365.258 225.281 367.43C227.109 369.602 228.023 372.711 228.023 376.758V378.562H210.844C210.906 381.062 211.633 383.086 213.023 384.633C214.43 386.164 216.211 386.93 218.367 386.93C219.898 386.93 221.195 386.617 222.258 385.992C223.32 385.367 224.25 384.539 225.047 383.508L227.695 385.57C225.57 388.836 222.383 390.469 218.133 390.469ZM217.594 367.734C215.844 367.734 214.375 368.375 213.188 369.656C212 370.922 211.266 372.703 210.984 375H223.688V374.672C223.562 372.469 222.969 370.766 221.906 369.562C220.844 368.344 219.406 367.734 217.594 367.734ZM232.008 377.109C232.008 373.219 232.93 370.094 234.773 367.734C236.617 365.359 239.031 364.172 242.016 364.172C244.984 364.172 247.336 365.188 249.07 367.219V354H253.406V390H249.422L249.211 387.281C247.477 389.406 245.062 390.469 241.969 390.469C239.031 390.469 236.633 389.266 234.773 386.859C232.93 384.453 232.008 381.312 232.008 377.438V377.109ZM236.344 377.602C236.344 380.477 236.938 382.727 238.125 384.352C239.312 385.977 240.953 386.789 243.047 386.789C245.797 386.789 247.805 385.555 249.07 383.086V371.438C247.773 369.047 245.781 367.852 243.094 367.852C240.969 367.852 239.312 368.672 238.125 370.312C236.938 371.953 236.344 374.383 236.344 377.602ZM282.797 374.789C278.938 373.68 276.125 372.32 274.359 370.711C272.609 369.086 271.734 367.086 271.734 364.711C271.734 362.023 272.805 359.805 274.945 358.055C277.102 356.289 279.898 355.406 283.336 355.406C285.68 355.406 287.766 355.859 289.594 356.766C291.438 357.672 292.859 358.922 293.859 360.516C294.875 362.109 295.383 363.852 295.383 365.742H290.859C290.859 363.68 290.203 362.062 288.891 360.891C287.578 359.703 285.727 359.109 283.336 359.109C281.117 359.109 279.383 359.602 278.133 360.586C276.898 361.555 276.281 362.906 276.281 364.641C276.281 366.031 276.867 367.211 278.039 368.18C279.227 369.133 281.234 370.008 284.062 370.805C286.906 371.602 289.125 372.484 290.719 373.453C292.328 374.406 293.516 375.523 294.281 376.805C295.062 378.086 295.453 379.594 295.453 381.328C295.453 384.094 294.375 386.312 292.219 387.984C290.062 389.641 287.18 390.469 283.57 390.469C281.227 390.469 279.039 390.023 277.008 389.133C274.977 388.227 273.406 386.992 272.297 385.43C271.203 383.867 270.656 382.094 270.656 380.109H275.18C275.18 382.172 275.938 383.805 277.453 385.008C278.984 386.195 281.023 386.789 283.57 386.789C285.945 386.789 287.766 386.305 289.031 385.336C290.297 384.367 290.93 383.047 290.93 381.375C290.93 379.703 290.344 378.414 289.172 377.508C288 376.586 285.875 375.68 282.797 374.789ZM316.219 390C315.969 389.5 315.766 388.609 315.609 387.328C313.594 389.422 311.188 390.469 308.391 390.469C305.891 390.469 303.836 389.766 302.227 388.359C300.633 386.938 299.836 385.141 299.836 382.969C299.836 380.328 300.836 378.281 302.836 376.828C304.852 375.359 307.68 374.625 311.32 374.625H315.539V372.633C315.539 371.117 315.086 369.914 314.18 369.023C313.273 368.117 311.938 367.664 310.172 367.664C308.625 367.664 307.328 368.055 306.281 368.836C305.234 369.617 304.711 370.562 304.711 371.672H300.352C300.352 370.406 300.797 369.188 301.688 368.016C302.594 366.828 303.812 365.891 305.344 365.203C306.891 364.516 308.586 364.172 310.43 364.172C313.352 364.172 315.641 364.906 317.297 366.375C318.953 367.828 319.812 369.836 319.875 372.398V384.07C319.875 386.398 320.172 388.25 320.766 389.625V390H316.219ZM309.023 386.695C310.383 386.695 311.672 386.344 312.891 385.641C314.109 384.938 314.992 384.023 315.539 382.898V377.695H312.141C306.828 377.695 304.172 379.25 304.172 382.359C304.172 383.719 304.625 384.781 305.531 385.547C306.438 386.312 307.602 386.695 309.023 386.695ZM331.383 390H327.047V354H331.383V390ZM348.867 390.469C345.43 390.469 342.633 389.344 340.477 387.094C338.32 384.828 337.242 381.805 337.242 378.023V377.227C337.242 374.711 337.719 372.469 338.672 370.5C339.641 368.516 340.984 366.969 342.703 365.859C344.438 364.734 346.312 364.172 348.328 364.172C351.625 364.172 354.188 365.258 356.016 367.43C357.844 369.602 358.758 372.711 358.758 376.758V378.562H341.578C341.641 381.062 342.367 383.086 343.758 384.633C345.164 386.164 346.945 386.93 349.102 386.93C350.633 386.93 351.93 386.617 352.992 385.992C354.055 385.367 354.984 384.539 355.781 383.508L358.43 385.57C356.305 388.836 353.117 390.469 348.867 390.469ZM348.328 367.734C346.578 367.734 345.109 368.375 343.922 369.656C342.734 370.922 342 372.703 341.719 375H354.422V374.672C354.297 372.469 353.703 370.766 352.641 369.562C351.578 368.344 350.141 367.734 348.328 367.734ZM82.8047 437.094H68.5078L65.2969 446H60.6562L73.6875 411.875H77.625L90.6797 446H86.0625L82.8047 437.094ZM69.8672 433.391H81.4688L75.6562 417.43L69.8672 433.391ZM98.6719 420.641L98.7891 423.453C100.648 421.266 103.156 420.172 106.312 420.172C109.859 420.172 112.273 421.531 113.555 424.25C114.398 423.031 115.492 422.047 116.836 421.297C118.195 420.547 119.797 420.172 121.641 420.172C127.203 420.172 130.031 423.117 130.125 429.008V446H125.789V429.266C125.789 427.453 125.375 426.102 124.547 425.211C123.719 424.305 122.328 423.852 120.375 423.852C118.766 423.852 117.43 424.336 116.367 425.305C115.305 426.258 114.688 427.547 114.516 429.172V446H110.156V429.383C110.156 425.695 108.352 423.852 104.742 423.852C101.898 423.852 99.9531 425.062 98.9062 427.484V446H94.5703V420.641H98.6719ZM135.539 433.086C135.539 430.602 136.023 428.367 136.992 426.383C137.977 424.398 139.336 422.867 141.07 421.789C142.82 420.711 144.812 420.172 147.047 420.172C150.5 420.172 153.289 421.367 155.414 423.758C157.555 426.148 158.625 429.328 158.625 433.297V433.602C158.625 436.07 158.148 438.289 157.195 440.258C156.258 442.211 154.906 443.734 153.141 444.828C151.391 445.922 149.375 446.469 147.094 446.469C143.656 446.469 140.867 445.273 138.727 442.883C136.602 440.492 135.539 437.328 135.539 433.391V433.086ZM139.898 433.602C139.898 436.414 140.547 438.672 141.844 440.375C143.156 442.078 144.906 442.93 147.094 442.93C149.297 442.93 151.047 442.07 152.344 440.352C153.641 438.617 154.289 436.195 154.289 433.086C154.289 430.305 153.625 428.055 152.297 426.336C150.984 424.602 149.234 423.734 147.047 423.734C144.906 423.734 143.18 424.586 141.867 426.289C140.555 427.992 139.898 430.43 139.898 433.602ZM179.719 443.492C178.031 445.477 175.555 446.469 172.289 446.469C169.586 446.469 167.523 445.688 166.102 444.125C164.695 442.547 163.984 440.219 163.969 437.141V420.641H168.305V437.023C168.305 440.867 169.867 442.789 172.992 442.789C176.305 442.789 178.508 441.555 179.602 439.086V420.641H183.938V446H179.812L179.719 443.492ZM194.648 420.641L194.789 423.828C196.727 421.391 199.258 420.172 202.383 420.172C207.742 420.172 210.445 423.195 210.492 429.242V446H206.156V429.219C206.141 427.391 205.719 426.039 204.891 425.164C204.078 424.289 202.805 423.852 201.07 423.852C199.664 423.852 198.43 424.227 197.367 424.977C196.305 425.727 195.477 426.711 194.883 427.93V446H190.547V420.641H194.648ZM222.914 414.5V420.641H227.648V423.992H222.914V439.719C222.914 440.734 223.125 441.5 223.547 442.016C223.969 442.516 224.688 442.766 225.703 442.766C226.203 442.766 226.891 442.672 227.766 442.484V446C226.625 446.312 225.516 446.469 224.438 446.469C222.5 446.469 221.039 445.883 220.055 444.711C219.07 443.539 218.578 441.875 218.578 439.719V423.992H213.961V420.641H218.578V414.5H222.914ZM232.594 443.727C232.594 442.977 232.812 442.352 233.25 441.852C233.703 441.352 234.375 441.102 235.266 441.102C236.156 441.102 236.828 441.352 237.281 441.852C237.75 442.352 237.984 442.977 237.984 443.727C237.984 444.445 237.75 445.047 237.281 445.531C236.828 446.016 236.156 446.258 235.266 446.258C234.375 446.258 233.703 446.016 233.25 445.531C232.812 445.047 232.594 444.445 232.594 443.727ZM232.617 423.031C232.617 422.281 232.836 421.656 233.273 421.156C233.727 420.656 234.398 420.406 235.289 420.406C236.18 420.406 236.852 420.656 237.305 421.156C237.773 421.656 238.008 422.281 238.008 423.031C238.008 423.75 237.773 424.352 237.305 424.836C236.852 425.32 236.18 425.562 235.289 425.562C234.398 425.562 233.727 425.32 233.273 424.836C232.836 424.352 232.617 423.75 232.617 423.031Z" fill="white"/>
<path d="M69.7734 261.875L80.9297 289.719L92.0859 261.875H97.9219V296H93.4219V282.711L93.8438 268.367L82.6406 296H79.1953L68.0156 268.438L68.4609 282.711V296H63.9609V261.875H69.7734ZM113.484 289.648L119.391 270.641H124.031L113.836 299.914C112.258 304.133 109.75 306.242 106.312 306.242L105.492 306.172L103.875 305.867V302.352L105.047 302.445C106.516 302.445 107.656 302.148 108.469 301.555C109.297 300.961 109.977 299.875 110.508 298.297L111.469 295.719L102.422 270.641H107.156L113.484 289.648ZM159.328 280.93H145.008V296H140.508V261.875H161.648V265.578H145.008V277.25H159.328V280.93ZM181.5 293.492C179.812 295.477 177.336 296.469 174.07 296.469C171.367 296.469 169.305 295.688 167.883 294.125C166.477 292.547 165.766 290.219 165.75 287.141V270.641H170.086V287.023C170.086 290.867 171.648 292.789 174.773 292.789C178.086 292.789 180.289 291.555 181.383 289.086V270.641H185.719V296H181.594L181.5 293.492ZM196.43 270.641L196.57 273.828C198.508 271.391 201.039 270.172 204.164 270.172C209.523 270.172 212.227 273.195 212.273 279.242V296H207.938V279.219C207.922 277.391 207.5 276.039 206.672 275.164C205.859 274.289 204.586 273.852 202.852 273.852C201.445 273.852 200.211 274.227 199.148 274.977C198.086 275.727 197.258 276.711 196.664 277.93V296H192.328V270.641H196.43ZM217.758 283.109C217.758 279.219 218.68 276.094 220.523 273.734C222.367 271.359 224.781 270.172 227.766 270.172C230.734 270.172 233.086 271.188 234.82 273.219V260H239.156V296H235.172L234.961 293.281C233.227 295.406 230.812 296.469 227.719 296.469C224.781 296.469 222.383 295.266 220.523 292.859C218.68 290.453 217.758 287.312 217.758 283.438V283.109ZM222.094 283.602C222.094 286.477 222.688 288.727 223.875 290.352C225.062 291.977 226.703 292.789 228.797 292.789C231.547 292.789 233.555 291.555 234.82 289.086V277.438C233.523 275.047 231.531 273.852 228.844 273.852C226.719 273.852 225.062 274.672 223.875 276.312C222.688 277.953 222.094 280.383 222.094 283.602ZM262.523 296H258.188V270.641H262.523V296ZM257.836 263.914C257.836 263.211 258.047 262.617 258.469 262.133C258.906 261.648 259.547 261.406 260.391 261.406C261.234 261.406 261.875 261.648 262.312 262.133C262.75 262.617 262.969 263.211 262.969 263.914C262.969 264.617 262.75 265.203 262.312 265.672C261.875 266.141 261.234 266.375 260.391 266.375C259.547 266.375 258.906 266.141 258.469 265.672C258.047 265.203 257.836 264.617 257.836 263.914ZM284.25 289.273C284.25 288.102 283.805 287.195 282.914 286.555C282.039 285.898 280.5 285.336 278.297 284.867C276.109 284.398 274.367 283.836 273.07 283.18C271.789 282.523 270.836 281.742 270.211 280.836C269.602 279.93 269.297 278.852 269.297 277.602C269.297 275.523 270.172 273.766 271.922 272.328C273.688 270.891 275.938 270.172 278.672 270.172C281.547 270.172 283.875 270.914 285.656 272.398C287.453 273.883 288.352 275.781 288.352 278.094H283.992C283.992 276.906 283.484 275.883 282.469 275.023C281.469 274.164 280.203 273.734 278.672 273.734C277.094 273.734 275.859 274.078 274.969 274.766C274.078 275.453 273.633 276.352 273.633 277.461C273.633 278.508 274.047 279.297 274.875 279.828C275.703 280.359 277.195 280.867 279.352 281.352C281.523 281.836 283.281 282.414 284.625 283.086C285.969 283.758 286.961 284.57 287.602 285.523C288.258 286.461 288.586 287.609 288.586 288.969C288.586 291.234 287.68 293.055 285.867 294.43C284.055 295.789 281.703 296.469 278.812 296.469C276.781 296.469 274.984 296.109 273.422 295.391C271.859 294.672 270.633 293.672 269.742 292.391C268.867 291.094 268.43 289.695 268.43 288.195H272.766C272.844 289.648 273.422 290.805 274.5 291.664C275.594 292.508 277.031 292.93 278.812 292.93C280.453 292.93 281.766 292.602 282.75 291.945C283.75 291.273 284.25 290.383 284.25 289.273ZM294.094 293.727C294.094 292.977 294.312 292.352 294.75 291.852C295.203 291.352 295.875 291.102 296.766 291.102C297.656 291.102 298.328 291.352 298.781 291.852C299.25 292.352 299.484 292.977 299.484 293.727C299.484 294.445 299.25 295.047 298.781 295.531C298.328 296.016 297.656 296.258 296.766 296.258C295.875 296.258 295.203 296.016 294.75 295.531C294.312 295.047 294.094 294.445 294.094 293.727ZM294.117 273.031C294.117 272.281 294.336 271.656 294.773 271.156C295.227 270.656 295.898 270.406 296.789 270.406C297.68 270.406 298.352 270.656 298.805 271.156C299.273 271.656 299.508 272.281 299.508 273.031C299.508 273.75 299.273 274.352 298.805 274.836C298.352 275.32 297.68 275.562 296.789 275.562C295.898 275.562 295.227 275.32 294.773 274.836C294.336 274.352 294.117 273.75 294.117 273.031Z" fill="white"/>
<path d="M144.844 106.094H166.406V111H138.812V65.5H144.844V106.094ZM186.375 111.625C181.792 111.625 178.062 110.125 175.188 107.125C172.312 104.104 170.875 100.073 170.875 95.0312V93.9688C170.875 90.6146 171.51 87.625 172.781 85C174.073 82.3542 175.865 80.2917 178.156 78.8125C180.469 77.3125 182.969 76.5625 185.656 76.5625C190.052 76.5625 193.469 78.0104 195.906 80.9062C198.344 83.8021 199.562 87.9479 199.562 93.3438V95.75H176.656C176.74 99.0833 177.708 101.781 179.562 103.844C181.438 105.885 183.812 106.906 186.688 106.906C188.729 106.906 190.458 106.49 191.875 105.656C193.292 104.823 194.531 103.719 195.594 102.344L199.125 105.094C196.292 109.448 192.042 111.625 186.375 111.625ZM185.656 81.3125C183.323 81.3125 181.365 82.1667 179.781 83.875C178.198 85.5625 177.219 87.9375 176.844 91H193.781V90.5625C193.615 87.625 192.823 85.3542 191.406 83.75C189.99 82.125 188.073 81.3125 185.656 81.3125ZM214.125 69V77.1875H220.438V81.6562H214.125V102.625C214.125 103.979 214.406 105 214.969 105.688C215.531 106.354 216.49 106.688 217.844 106.688C218.51 106.688 219.427 106.562 220.594 106.312V111C219.073 111.417 217.594 111.625 216.156 111.625C213.573 111.625 211.625 110.844 210.312 109.281C209 107.719 208.344 105.5 208.344 102.625V81.6562H202.188V77.1875H208.344V69H214.125ZM263.969 107.656C261.719 110.302 258.417 111.625 254.062 111.625C250.458 111.625 247.708 110.583 245.812 108.5C243.938 106.396 242.99 103.292 242.969 99.1875V77.1875H248.75V99.0312C248.75 104.156 250.833 106.719 255 106.719C259.417 106.719 262.354 105.073 263.812 101.781V77.1875H269.594V111H264.094L263.969 107.656ZM298.094 102.031C298.094 100.469 297.5 99.2604 296.312 98.4062C295.146 97.5312 293.094 96.7812 290.156 96.1562C287.24 95.5312 284.917 94.7812 283.188 93.9062C281.479 93.0312 280.208 91.9896 279.375 90.7812C278.562 89.5729 278.156 88.1354 278.156 86.4688C278.156 83.6979 279.323 81.3542 281.656 79.4375C284.01 77.5208 287.01 76.5625 290.656 76.5625C294.49 76.5625 297.594 77.5521 299.969 79.5312C302.365 81.5104 303.562 84.0417 303.562 87.125H297.75C297.75 85.5417 297.073 84.1771 295.719 83.0312C294.385 81.8854 292.698 81.3125 290.656 81.3125C288.552 81.3125 286.906 81.7708 285.719 82.6875C284.531 83.6042 283.938 84.8021 283.938 86.2812C283.938 87.6771 284.49 88.7292 285.594 89.4375C286.698 90.1458 288.688 90.8229 291.562 91.4688C294.458 92.1146 296.802 92.8854 298.594 93.7812C300.385 94.6771 301.708 95.7604 302.562 97.0312C303.438 98.2812 303.875 99.8125 303.875 101.625C303.875 104.646 302.667 107.073 300.25 108.906C297.833 110.719 294.698 111.625 290.844 111.625C288.135 111.625 285.74 111.146 283.656 110.188C281.573 109.229 279.938 107.896 278.75 106.188C277.583 104.458 277 102.594 277 100.594H282.781C282.885 102.531 283.656 104.073 285.094 105.219C286.552 106.344 288.469 106.906 290.844 106.906C293.031 106.906 294.781 106.469 296.094 105.594C297.427 104.698 298.094 103.51 298.094 102.031ZM333.062 81.2812C335.625 78.1354 338.958 76.5625 343.062 76.5625C350.208 76.5625 353.812 80.5938 353.875 88.6562V111H348.094V88.625C348.073 86.1875 347.51 84.3854 346.406 83.2188C345.323 82.0521 343.625 81.4688 341.312 81.4688C339.438 81.4688 337.792 81.9688 336.375 82.9688C334.958 83.9688 333.854 85.2812 333.062 86.9062V111H327.281V63H333.062V81.2812ZM376.562 111.625C371.979 111.625 368.25 110.125 365.375 107.125C362.5 104.104 361.062 100.073 361.062 95.0312V93.9688C361.062 90.6146 361.698 87.625 362.969 85C364.26 82.3542 366.052 80.2917 368.344 78.8125C370.656 77.3125 373.156 76.5625 375.844 76.5625C380.24 76.5625 383.656 78.0104 386.094 80.9062C388.531 83.8021 389.75 87.9479 389.75 93.3438V95.75H366.844C366.927 99.0833 367.896 101.781 369.75 103.844C371.625 105.885 374 106.906 376.875 106.906C378.917 106.906 380.646 106.49 382.062 105.656C383.479 104.823 384.719 103.719 385.781 102.344L389.312 105.094C386.479 109.448 382.229 111.625 376.562 111.625ZM375.844 81.3125C373.51 81.3125 371.552 82.1667 369.969 83.875C368.385 85.5625 367.406 87.9375 367.031 91H383.969V90.5625C383.802 87.625 383.01 85.3542 381.594 83.75C380.177 82.125 378.26 81.3125 375.844 81.3125ZM417.344 111C417.01 110.333 416.74 109.146 416.531 107.438C413.844 110.229 410.635 111.625 406.906 111.625C403.573 111.625 400.833 110.688 398.688 108.812C396.562 106.917 395.5 104.521 395.5 101.625C395.5 98.1042 396.833 95.375 399.5 93.4375C402.188 91.4792 405.958 90.5 410.812 90.5H416.438V87.8438C416.438 85.8229 415.833 84.2188 414.625 83.0312C413.417 81.8229 411.635 81.2188 409.281 81.2188C407.219 81.2188 405.49 81.7396 404.094 82.7812C402.698 83.8229 402 85.0833 402 86.5625H396.188C396.188 84.875 396.781 83.25 397.969 81.6875C399.177 80.1042 400.802 78.8542 402.844 77.9375C404.906 77.0208 407.167 76.5625 409.625 76.5625C413.521 76.5625 416.573 77.5417 418.781 79.5C420.99 81.4375 422.135 84.1146 422.219 87.5312V103.094C422.219 106.198 422.615 108.667 423.406 110.5V111H417.344ZM407.75 106.594C409.562 106.594 411.281 106.125 412.906 105.188C414.531 104.25 415.708 103.031 416.438 101.531V94.5938H411.906C404.823 94.5938 401.281 96.6667 401.281 100.812C401.281 102.625 401.885 104.042 403.094 105.062C404.302 106.083 405.854 106.594 407.75 106.594ZM447.625 82.375C446.75 82.2292 445.802 82.1562 444.781 82.1562C440.99 82.1562 438.417 83.7708 437.062 87V111H431.281V77.1875H436.906L437 81.0938C438.896 78.0729 441.583 76.5625 445.062 76.5625C446.188 76.5625 447.042 76.7083 447.625 77V82.375ZM489.719 111C489.385 110.333 489.115 109.146 488.906 107.438C486.219 110.229 483.01 111.625 479.281 111.625C475.948 111.625 473.208 110.688 471.062 108.812C468.938 106.917 467.875 104.521 467.875 101.625C467.875 98.1042 469.208 95.375 471.875 93.4375C474.562 91.4792 478.333 90.5 483.188 90.5H488.812V87.8438C488.812 85.8229 488.208 84.2188 487 83.0312C485.792 81.8229 484.01 81.2188 481.656 81.2188C479.594 81.2188 477.865 81.7396 476.469 82.7812C475.073 83.8229 474.375 85.0833 474.375 86.5625H468.562C468.562 84.875 469.156 83.25 470.344 81.6875C471.552 80.1042 473.177 78.8542 475.219 77.9375C477.281 77.0208 479.542 76.5625 482 76.5625C485.896 76.5625 488.948 77.5417 491.156 79.5C493.365 81.4375 494.51 84.1146 494.594 87.5312V103.094C494.594 106.198 494.99 108.667 495.781 110.5V111H489.719ZM480.125 106.594C481.938 106.594 483.656 106.125 485.281 105.188C486.906 104.25 488.083 103.031 488.812 101.531V94.5938H484.281C477.198 94.5938 473.656 96.6667 473.656 100.812C473.656 102.625 474.26 104.042 475.469 105.062C476.677 106.083 478.229 106.594 480.125 106.594ZM532.281 94.4688C532.281 99.6354 531.094 103.792 528.719 106.938C526.344 110.062 523.156 111.625 519.156 111.625C514.885 111.625 511.583 110.115 509.25 107.094L508.969 111H503.656V63H509.438V80.9062C511.771 78.0104 514.99 76.5625 519.094 76.5625C523.198 76.5625 526.417 78.1146 528.75 81.2188C531.104 84.3229 532.281 88.5729 532.281 93.9688V94.4688ZM526.5 93.8125C526.5 89.875 525.74 86.8333 524.219 84.6875C522.698 82.5417 520.51 81.4688 517.656 81.4688C513.844 81.4688 511.104 83.2396 509.438 86.7812V101.406C511.208 104.948 513.969 106.719 517.719 106.719C520.49 106.719 522.646 105.646 524.188 103.5C525.729 101.354 526.5 98.125 526.5 93.8125ZM538.062 93.7812C538.062 90.4688 538.708 87.4896 540 84.8438C541.312 82.1979 543.125 80.1562 545.438 78.7188C547.771 77.2812 550.427 76.5625 553.406 76.5625C558.01 76.5625 561.729 78.1562 564.562 81.3438C567.417 84.5312 568.844 88.7708 568.844 94.0625V94.4688C568.844 97.7604 568.208 100.719 566.938 103.344C565.688 105.948 563.885 107.979 561.531 109.438C559.198 110.896 556.51 111.625 553.469 111.625C548.885 111.625 545.167 110.031 542.312 106.844C539.479 103.656 538.062 99.4375 538.062 94.1875V93.7812ZM543.875 94.4688C543.875 98.2188 544.74 101.229 546.469 103.5C548.219 105.771 550.552 106.906 553.469 106.906C556.406 106.906 558.74 105.76 560.469 103.469C562.198 101.156 563.062 97.9271 563.062 93.7812C563.062 90.0729 562.177 87.0729 560.406 84.7812C558.656 82.4688 556.323 81.3125 553.406 81.3125C550.552 81.3125 548.25 82.4479 546.5 84.7188C544.75 86.9896 543.875 90.2396 543.875 94.4688ZM596.969 107.656C594.719 110.302 591.417 111.625 587.062 111.625C583.458 111.625 580.708 110.583 578.812 108.5C576.938 106.396 575.99 103.292 575.969 99.1875V77.1875H581.75V99.0312C581.75 104.156 583.833 106.719 588 106.719C592.417 106.719 595.354 105.073 596.812 101.781V77.1875H602.594V111H597.094L596.969 107.656ZM619.25 69V77.1875H625.562V81.6562H619.25V102.625C619.25 103.979 619.531 105 620.094 105.688C620.656 106.354 621.615 106.688 622.969 106.688C623.635 106.688 624.552 106.562 625.719 106.312V111C624.198 111.417 622.719 111.625 621.281 111.625C618.698 111.625 616.75 110.844 615.438 109.281C614.125 107.719 613.469 105.5 613.469 102.625V81.6562H607.312V77.1875H613.469V69H619.25ZM659.281 102.531L667.156 77.1875H673.344L659.75 116.219C657.646 121.844 654.302 124.656 649.719 124.656L648.625 124.562L646.469 124.156V119.469L648.031 119.594C649.99 119.594 651.51 119.198 652.594 118.406C653.698 117.615 654.604 116.167 655.312 114.062L656.594 110.625L644.531 77.1875H650.844L659.281 102.531ZM676.5 93.7812C676.5 90.4688 677.146 87.4896 678.438 84.8438C679.75 82.1979 681.562 80.1562 683.875 78.7188C686.208 77.2812 688.865 76.5625 691.844 76.5625C696.448 76.5625 700.167 78.1562 703 81.3438C705.854 84.5312 707.281 88.7708 707.281 94.0625V94.4688C707.281 97.7604 706.646 100.719 705.375 103.344C704.125 105.948 702.323 107.979 699.969 109.438C697.635 110.896 694.948 111.625 691.906 111.625C687.323 111.625 683.604 110.031 680.75 106.844C677.917 103.656 676.5 99.4375 676.5 94.1875V93.7812ZM682.312 94.4688C682.312 98.2188 683.177 101.229 684.906 103.5C686.656 105.771 688.99 106.906 691.906 106.906C694.844 106.906 697.177 105.76 698.906 103.469C700.635 101.156 701.5 97.9271 701.5 93.7812C701.5 90.0729 700.615 87.0729 698.844 84.7812C697.094 82.4688 694.76 81.3125 691.844 81.3125C688.99 81.3125 686.688 82.4479 684.938 84.7188C683.188 86.9896 682.312 90.2396 682.312 94.4688ZM735.406 107.656C733.156 110.302 729.854 111.625 725.5 111.625C721.896 111.625 719.146 110.583 717.25 108.5C715.375 106.396 714.427 103.292 714.406 99.1875V77.1875H720.188V99.0312C720.188 104.156 722.271 106.719 726.438 106.719C730.854 106.719 733.792 105.073 735.25 101.781V77.1875H741.031V111H735.531L735.406 107.656ZM766.188 82.375C765.312 82.2292 764.365 82.1562 763.344 82.1562C759.552 82.1562 756.979 83.7708 755.625 87V111H749.844V77.1875H755.469L755.562 81.0938C757.458 78.0729 760.146 76.5625 763.625 76.5625C764.75 76.5625 765.604 76.7083 766.188 77V82.375ZM793.688 111H787.906V77.1875H793.688V111ZM787.438 68.2188C787.438 67.2812 787.719 66.4896 788.281 65.8438C788.865 65.1979 789.719 64.875 790.844 64.875C791.969 64.875 792.823 65.1979 793.406 65.8438C793.99 66.4896 794.281 67.2812 794.281 68.2188C794.281 69.1562 793.99 69.9375 793.406 70.5625C792.823 71.1875 791.969 71.5 790.844 71.5C789.719 71.5 788.865 71.1875 788.281 70.5625C787.719 69.9375 787.438 69.1562 787.438 68.2188ZM801.562 93.8125C801.562 88.625 802.792 84.4583 805.25 81.3125C807.708 78.1458 810.927 76.5625 814.906 76.5625C818.865 76.5625 822 77.9167 824.312 80.625V63H830.094V111H824.781L824.5 107.375C822.188 110.208 818.969 111.625 814.844 111.625C810.927 111.625 807.729 110.021 805.25 106.812C802.792 103.604 801.562 99.4167 801.562 94.25V93.8125ZM807.344 94.4688C807.344 98.3021 808.135 101.302 809.719 103.469C811.302 105.635 813.49 106.719 816.281 106.719C819.948 106.719 822.625 105.073 824.312 101.781V86.25C822.583 83.0625 819.927 81.4688 816.344 81.4688C813.51 81.4688 811.302 82.5625 809.719 84.75C808.135 86.9375 807.344 90.1771 807.344 94.4688ZM853.125 111.625C848.542 111.625 844.812 110.125 841.938 107.125C839.062 104.104 837.625 100.073 837.625 95.0312V93.9688C837.625 90.6146 838.26 87.625 839.531 85C840.823 82.3542 842.615 80.2917 844.906 78.8125C847.219 77.3125 849.719 76.5625 852.406 76.5625C856.802 76.5625 860.219 78.0104 862.656 80.9062C865.094 83.8021 866.312 87.9479 866.312 93.3438V95.75H843.406C843.49 99.0833 844.458 101.781 846.312 103.844C848.188 105.885 850.562 106.906 853.438 106.906C855.479 106.906 857.208 106.49 858.625 105.656C860.042 104.823 861.281 103.719 862.344 102.344L865.875 105.094C863.042 109.448 858.792 111.625 853.125 111.625ZM852.406 81.3125C850.073 81.3125 848.115 82.1667 846.531 83.875C844.948 85.5625 843.969 87.9375 843.594 91H860.531V90.5625C860.365 87.625 859.573 85.3542 858.156 83.75C856.74 82.125 854.823 81.3125 852.406 81.3125ZM893.906 111C893.573 110.333 893.302 109.146 893.094 107.438C890.406 110.229 887.198 111.625 883.469 111.625C880.135 111.625 877.396 110.688 875.25 108.812C873.125 106.917 872.062 104.521 872.062 101.625C872.062 98.1042 873.396 95.375 876.062 93.4375C878.75 91.4792 882.521 90.5 887.375 90.5H893V87.8438C893 85.8229 892.396 84.2188 891.188 83.0312C889.979 81.8229 888.198 81.2188 885.844 81.2188C883.781 81.2188 882.052 81.7396 880.656 82.7812C879.26 83.8229 878.562 85.0833 878.562 86.5625H872.75C872.75 84.875 873.344 83.25 874.531 81.6875C875.74 80.1042 877.365 78.8542 879.406 77.9375C881.469 77.0208 883.729 76.5625 886.188 76.5625C890.083 76.5625 893.135 77.5417 895.344 79.5C897.552 81.4375 898.698 84.1146 898.781 87.5312V103.094C898.781 106.198 899.177 108.667 899.969 110.5V111H893.906ZM884.312 106.594C886.125 106.594 887.844 106.125 889.469 105.188C891.094 104.25 892.271 103.031 893 101.531V94.5938H888.469C881.385 94.5938 877.844 96.6667 877.844 100.812C877.844 102.625 878.448 104.042 879.656 105.062C880.865 106.083 882.417 106.594 884.312 106.594Z" fill="white"/>
<path d="M69.7734 164.875L80.9297 192.719L92.0859 164.875H97.9219V199H93.4219V185.711L93.8438 171.367L82.6406 199H79.1953L68.0156 171.438L68.4609 185.711V199H63.9609V164.875H69.7734ZM113.484 192.648L119.391 173.641H124.031L113.836 202.914C112.258 207.133 109.75 209.242 106.312 209.242L105.492 209.172L103.875 208.867V205.352L105.047 205.445C106.516 205.445 107.656 205.148 108.469 204.555C109.297 203.961 109.977 202.875 110.508 201.297L111.469 198.719L102.422 173.641H107.156L113.484 192.648ZM145.336 199H140.836V164.875H145.336V199ZM151.852 186.109C151.852 182.219 152.773 179.094 154.617 176.734C156.461 174.359 158.875 173.172 161.859 173.172C164.828 173.172 167.18 174.188 168.914 176.219V163H173.25V199H169.266L169.055 196.281C167.32 198.406 164.906 199.469 161.812 199.469C158.875 199.469 156.477 198.266 154.617 195.859C152.773 193.453 151.852 190.312 151.852 186.438V186.109ZM156.188 186.602C156.188 189.477 156.781 191.727 157.969 193.352C159.156 194.977 160.797 195.789 162.891 195.789C165.641 195.789 167.648 194.555 168.914 192.086V180.438C167.617 178.047 165.625 176.852 162.938 176.852C160.812 176.852 159.156 177.672 157.969 179.312C156.781 180.953 156.188 183.383 156.188 186.602ZM190.523 199.469C187.086 199.469 184.289 198.344 182.133 196.094C179.977 193.828 178.898 190.805 178.898 187.023V186.227C178.898 183.711 179.375 181.469 180.328 179.5C181.297 177.516 182.641 175.969 184.359 174.859C186.094 173.734 187.969 173.172 189.984 173.172C193.281 173.172 195.844 174.258 197.672 176.43C199.5 178.602 200.414 181.711 200.414 185.758V187.562H183.234C183.297 190.062 184.023 192.086 185.414 193.633C186.82 195.164 188.602 195.93 190.758 195.93C192.289 195.93 193.586 195.617 194.648 194.992C195.711 194.367 196.641 193.539 197.438 192.508L200.086 194.57C197.961 197.836 194.773 199.469 190.523 199.469ZM189.984 176.734C188.234 176.734 186.766 177.375 185.578 178.656C184.391 179.922 183.656 181.703 183.375 184H196.078V183.672C195.953 181.469 195.359 179.766 194.297 178.562C193.234 177.344 191.797 176.734 189.984 176.734ZM221.109 199C220.859 198.5 220.656 197.609 220.5 196.328C218.484 198.422 216.078 199.469 213.281 199.469C210.781 199.469 208.727 198.766 207.117 197.359C205.523 195.938 204.727 194.141 204.727 191.969C204.727 189.328 205.727 187.281 207.727 185.828C209.742 184.359 212.57 183.625 216.211 183.625H220.43V181.633C220.43 180.117 219.977 178.914 219.07 178.023C218.164 177.117 216.828 176.664 215.062 176.664C213.516 176.664 212.219 177.055 211.172 177.836C210.125 178.617 209.602 179.562 209.602 180.672H205.242C205.242 179.406 205.688 178.188 206.578 177.016C207.484 175.828 208.703 174.891 210.234 174.203C211.781 173.516 213.477 173.172 215.32 173.172C218.242 173.172 220.531 173.906 222.188 175.375C223.844 176.828 224.703 178.836 224.766 181.398V193.07C224.766 195.398 225.062 197.25 225.656 198.625V199H221.109ZM213.914 195.695C215.273 195.695 216.562 195.344 217.781 194.641C219 193.938 219.883 193.023 220.43 191.898V186.695H217.031C211.719 186.695 209.062 188.25 209.062 191.359C209.062 192.719 209.516 193.781 210.422 194.547C211.328 195.312 212.492 195.695 213.914 195.695ZM248.18 199H243.844V173.641H248.18V199ZM243.492 166.914C243.492 166.211 243.703 165.617 244.125 165.133C244.562 164.648 245.203 164.406 246.047 164.406C246.891 164.406 247.531 164.648 247.969 165.133C248.406 165.617 248.625 166.211 248.625 166.914C248.625 167.617 248.406 168.203 247.969 168.672C247.531 169.141 246.891 169.375 246.047 169.375C245.203 169.375 244.562 169.141 244.125 168.672C243.703 168.203 243.492 167.617 243.492 166.914ZM269.906 192.273C269.906 191.102 269.461 190.195 268.57 189.555C267.695 188.898 266.156 188.336 263.953 187.867C261.766 187.398 260.023 186.836 258.727 186.18C257.445 185.523 256.492 184.742 255.867 183.836C255.258 182.93 254.953 181.852 254.953 180.602C254.953 178.523 255.828 176.766 257.578 175.328C259.344 173.891 261.594 173.172 264.328 173.172C267.203 173.172 269.531 173.914 271.312 175.398C273.109 176.883 274.008 178.781 274.008 181.094H269.648C269.648 179.906 269.141 178.883 268.125 178.023C267.125 177.164 265.859 176.734 264.328 176.734C262.75 176.734 261.516 177.078 260.625 177.766C259.734 178.453 259.289 179.352 259.289 180.461C259.289 181.508 259.703 182.297 260.531 182.828C261.359 183.359 262.852 183.867 265.008 184.352C267.18 184.836 268.938 185.414 270.281 186.086C271.625 186.758 272.617 187.57 273.258 188.523C273.914 189.461 274.242 190.609 274.242 191.969C274.242 194.234 273.336 196.055 271.523 197.43C269.711 198.789 267.359 199.469 264.469 199.469C262.438 199.469 260.641 199.109 259.078 198.391C257.516 197.672 256.289 196.672 255.398 195.391C254.523 194.094 254.086 192.695 254.086 191.195H258.422C258.5 192.648 259.078 193.805 260.156 194.664C261.25 195.508 262.688 195.93 264.469 195.93C266.109 195.93 267.422 195.602 268.406 194.945C269.406 194.273 269.906 193.383 269.906 192.273ZM279.75 196.727C279.75 195.977 279.969 195.352 280.406 194.852C280.859 194.352 281.531 194.102 282.422 194.102C283.312 194.102 283.984 194.352 284.438 194.852C284.906 195.352 285.141 195.977 285.141 196.727C285.141 197.445 284.906 198.047 284.438 198.531C283.984 199.016 283.312 199.258 282.422 199.258C281.531 199.258 280.859 199.016 280.406 198.531C279.969 198.047 279.75 197.445 279.75 196.727ZM279.773 176.031C279.773 175.281 279.992 174.656 280.43 174.156C280.883 173.656 281.555 173.406 282.445 173.406C283.336 173.406 284.008 173.656 284.461 174.156C284.93 174.656 285.164 175.281 285.164 176.031C285.164 176.75 284.93 177.352 284.461 177.836C284.008 178.32 283.336 178.562 282.445 178.562C281.555 178.562 280.883 178.32 280.43 177.836C279.992 177.352 279.773 176.75 279.773 176.031Z" fill="white"/>
<line x1="20.0025" y1="129.5" x2="1017" y2="134.5" stroke="black"/>
<rect x="635" y="507" width="356" height="81" rx="33" fill="#76BC21"/>
<path d="M743.016 564H738.516V529.875H743.016V564ZM754.688 538.641L754.828 541.828C756.766 539.391 759.297 538.172 762.422 538.172C767.781 538.172 770.484 541.195 770.531 547.242V564H766.195V547.219C766.18 545.391 765.758 544.039 764.93 543.164C764.117 542.289 762.844 541.852 761.109 541.852C759.703 541.852 758.469 542.227 757.406 542.977C756.344 543.727 755.516 544.711 754.922 545.93V564H750.586V538.641H754.688ZM791.836 557.273C791.836 556.102 791.391 555.195 790.5 554.555C789.625 553.898 788.086 553.336 785.883 552.867C783.695 552.398 781.953 551.836 780.656 551.18C779.375 550.523 778.422 549.742 777.797 548.836C777.188 547.93 776.883 546.852 776.883 545.602C776.883 543.523 777.758 541.766 779.508 540.328C781.273 538.891 783.523 538.172 786.258 538.172C789.133 538.172 791.461 538.914 793.242 540.398C795.039 541.883 795.938 543.781 795.938 546.094H791.578C791.578 544.906 791.07 543.883 790.055 543.023C789.055 542.164 787.789 541.734 786.258 541.734C784.68 541.734 783.445 542.078 782.555 542.766C781.664 543.453 781.219 544.352 781.219 545.461C781.219 546.508 781.633 547.297 782.461 547.828C783.289 548.359 784.781 548.867 786.938 549.352C789.109 549.836 790.867 550.414 792.211 551.086C793.555 551.758 794.547 552.57 795.188 553.523C795.844 554.461 796.172 555.609 796.172 556.969C796.172 559.234 795.266 561.055 793.453 562.43C791.641 563.789 789.289 564.469 786.398 564.469C784.367 564.469 782.57 564.109 781.008 563.391C779.445 562.672 778.219 561.672 777.328 560.391C776.453 559.094 776.016 557.695 776.016 556.195H780.352C780.43 557.648 781.008 558.805 782.086 559.664C783.18 560.508 784.617 560.93 786.398 560.93C788.039 560.93 789.352 560.602 790.336 559.945C791.336 559.273 791.836 558.383 791.836 557.273ZM823.242 551.602C823.242 555.461 822.359 558.57 820.594 560.93C818.828 563.289 816.438 564.469 813.422 564.469C810.344 564.469 807.922 563.492 806.156 561.539V573.75H801.82V538.641H805.781L805.992 541.453C807.758 539.266 810.211 538.172 813.352 538.172C816.398 538.172 818.805 539.32 820.57 541.617C822.352 543.914 823.242 547.109 823.242 551.203V551.602ZM818.906 551.109C818.906 548.25 818.297 545.992 817.078 544.336C815.859 542.68 814.188 541.852 812.062 541.852C809.438 541.852 807.469 543.016 806.156 545.344V557.461C807.453 559.773 809.438 560.93 812.109 560.93C814.188 560.93 815.836 560.109 817.055 558.469C818.289 556.812 818.906 554.359 818.906 551.109ZM839.297 564.469C835.859 564.469 833.062 563.344 830.906 561.094C828.75 558.828 827.672 555.805 827.672 552.023V551.227C827.672 548.711 828.148 546.469 829.102 544.5C830.07 542.516 831.414 540.969 833.133 539.859C834.867 538.734 836.742 538.172 838.758 538.172C842.055 538.172 844.617 539.258 846.445 541.43C848.273 543.602 849.188 546.711 849.188 550.758V552.562H832.008C832.07 555.062 832.797 557.086 834.188 558.633C835.594 560.164 837.375 560.93 839.531 560.93C841.062 560.93 842.359 560.617 843.422 559.992C844.484 559.367 845.414 558.539 846.211 557.508L848.859 559.57C846.734 562.836 843.547 564.469 839.297 564.469ZM838.758 541.734C837.008 541.734 835.539 542.375 834.352 543.656C833.164 544.922 832.43 546.703 832.148 549H844.852V548.672C844.727 546.469 844.133 544.766 843.07 543.562C842.008 542.344 840.57 541.734 838.758 541.734ZM864.398 560.93C865.945 560.93 867.297 560.461 868.453 559.523C869.609 558.586 870.25 557.414 870.375 556.008H874.477C874.398 557.461 873.898 558.844 872.977 560.156C872.055 561.469 870.82 562.516 869.273 563.297C867.742 564.078 866.117 564.469 864.398 564.469C860.945 564.469 858.195 563.32 856.148 561.023C854.117 558.711 853.102 555.555 853.102 551.555V550.828C853.102 548.359 853.555 546.164 854.461 544.242C855.367 542.32 856.664 540.828 858.352 539.766C860.055 538.703 862.062 538.172 864.375 538.172C867.219 538.172 869.578 539.023 871.453 540.727C873.344 542.43 874.352 544.641 874.477 547.359H870.375C870.25 545.719 869.625 544.375 868.5 543.328C867.391 542.266 866.016 541.734 864.375 541.734C862.172 541.734 860.461 542.531 859.242 544.125C858.039 545.703 857.438 547.992 857.438 550.992V551.812C857.438 554.734 858.039 556.984 859.242 558.562C860.445 560.141 862.164 560.93 864.398 560.93ZM885.234 532.5V538.641H889.969V541.992H885.234V557.719C885.234 558.734 885.445 559.5 885.867 560.016C886.289 560.516 887.008 560.766 888.023 560.766C888.523 560.766 889.211 560.672 890.086 560.484V564C888.945 564.312 887.836 564.469 886.758 564.469C884.82 564.469 883.359 563.883 882.375 562.711C881.391 561.539 880.898 559.875 880.898 557.719V541.992H876.281V538.641H880.898V532.5H885.234Z" fill="white"/>
<rect y="665" width="1059" height="483" rx="33" fill="#07575F"/>
<rect x="369.05" y="728.05" width="601.9" height="29.9" rx="2.95" fill="white" stroke="black" stroke-width="0.1"/>
<rect x="369" y="728" width="548" height="30" rx="2" fill="#F09643"/>
<rect x="369.05" y="822.05" width="601.9" height="29.9" rx="2.95" fill="white" stroke="black" stroke-width="0.1"/>
<rect x="369" y="822" width="411" height="30" rx="2" fill="#4CE5FE"/>
<rect x="369.05" y="925.05" width="601.9" height="29.9" rx="2.95" fill="white" stroke="black" stroke-width="0.1"/>
<rect x="369" y="925" width="288" height="30" rx="2" fill="#F596F1"/>
<path d="M47.1875 768V733.875H56.8203C59.7891 733.875 62.4141 734.531 64.6953 735.844C66.9766 737.156 68.7344 739.023 69.9688 741.445C71.2188 743.867 71.8516 746.648 71.8672 749.789V751.969C71.8672 755.188 71.2422 758.008 69.9922 760.43C68.7578 762.852 66.9844 764.711 64.6719 766.008C62.375 767.305 59.6953 767.969 56.6328 768H47.1875ZM51.6875 737.578V764.32H56.4219C59.8906 764.32 62.5859 763.242 64.5078 761.086C66.4453 758.93 67.4141 755.859 67.4141 751.875V749.883C67.4141 746.008 66.5 743 64.6719 740.859C62.8594 738.703 60.2812 737.609 56.9375 737.578H51.6875ZM88.5312 768.469C85.0938 768.469 82.2969 767.344 80.1406 765.094C77.9844 762.828 76.9062 759.805 76.9062 756.023V755.227C76.9062 752.711 77.3828 750.469 78.3359 748.5C79.3047 746.516 80.6484 744.969 82.3672 743.859C84.1016 742.734 85.9766 742.172 87.9922 742.172C91.2891 742.172 93.8516 743.258 95.6797 745.43C97.5078 747.602 98.4219 750.711 98.4219 754.758V756.562H81.2422C81.3047 759.062 82.0312 761.086 83.4219 762.633C84.8281 764.164 86.6094 764.93 88.7656 764.93C90.2969 764.93 91.5938 764.617 92.6562 763.992C93.7188 763.367 94.6484 762.539 95.4453 761.508L98.0938 763.57C95.9688 766.836 92.7812 768.469 88.5312 768.469ZM87.9922 745.734C86.2422 745.734 84.7734 746.375 83.5859 747.656C82.3984 748.922 81.6641 750.703 81.3828 753H94.0859V752.672C93.9609 750.469 93.3672 748.766 92.3047 747.562C91.2422 746.344 89.8047 745.734 87.9922 745.734ZM118.227 761.273C118.227 760.102 117.781 759.195 116.891 758.555C116.016 757.898 114.477 757.336 112.273 756.867C110.086 756.398 108.344 755.836 107.047 755.18C105.766 754.523 104.812 753.742 104.188 752.836C103.578 751.93 103.273 750.852 103.273 749.602C103.273 747.523 104.148 745.766 105.898 744.328C107.664 742.891 109.914 742.172 112.648 742.172C115.523 742.172 117.852 742.914 119.633 744.398C121.43 745.883 122.328 747.781 122.328 750.094H117.969C117.969 748.906 117.461 747.883 116.445 747.023C115.445 746.164 114.18 745.734 112.648 745.734C111.07 745.734 109.836 746.078 108.945 746.766C108.055 747.453 107.609 748.352 107.609 749.461C107.609 750.508 108.023 751.297 108.852 751.828C109.68 752.359 111.172 752.867 113.328 753.352C115.5 753.836 117.258 754.414 118.602 755.086C119.945 755.758 120.938 756.57 121.578 757.523C122.234 758.461 122.562 759.609 122.562 760.969C122.562 763.234 121.656 765.055 119.844 766.43C118.031 767.789 115.68 768.469 112.789 768.469C110.758 768.469 108.961 768.109 107.398 767.391C105.836 766.672 104.609 765.672 103.719 764.391C102.844 763.094 102.406 761.695 102.406 760.195H106.742C106.82 761.648 107.398 762.805 108.477 763.664C109.57 764.508 111.008 764.93 112.789 764.93C114.43 764.93 115.742 764.602 116.727 763.945C117.727 763.273 118.227 762.383 118.227 761.273ZM132.922 768H128.586V742.641H132.922V768ZM128.234 735.914C128.234 735.211 128.445 734.617 128.867 734.133C129.305 733.648 129.945 733.406 130.789 733.406C131.633 733.406 132.273 733.648 132.711 734.133C133.148 734.617 133.367 735.211 133.367 735.914C133.367 736.617 133.148 737.203 132.711 737.672C132.273 738.141 131.633 738.375 130.789 738.375C129.945 738.375 129.305 738.141 128.867 737.672C128.445 737.203 128.234 736.617 128.234 735.914ZM152.141 746.531C151.484 746.422 150.773 746.367 150.008 746.367C147.164 746.367 145.234 747.578 144.219 750V768H139.883V742.641H144.102L144.172 745.57C145.594 743.305 147.609 742.172 150.219 742.172C151.062 742.172 151.703 742.281 152.141 742.5V746.531ZM170.867 768C170.617 767.5 170.414 766.609 170.258 765.328C168.242 767.422 165.836 768.469 163.039 768.469C160.539 768.469 158.484 767.766 156.875 766.359C155.281 764.938 154.484 763.141 154.484 760.969C154.484 758.328 155.484 756.281 157.484 754.828C159.5 753.359 162.328 752.625 165.969 752.625H170.188V750.633C170.188 749.117 169.734 747.914 168.828 747.023C167.922 746.117 166.586 745.664 164.82 745.664C163.273 745.664 161.977 746.055 160.93 746.836C159.883 747.617 159.359 748.562 159.359 749.672H155C155 748.406 155.445 747.188 156.336 746.016C157.242 744.828 158.461 743.891 159.992 743.203C161.539 742.516 163.234 742.172 165.078 742.172C168 742.172 170.289 742.906 171.945 744.375C173.602 745.828 174.461 747.836 174.523 750.398V762.07C174.523 764.398 174.82 766.25 175.414 767.625V768H170.867ZM163.672 764.695C165.031 764.695 166.32 764.344 167.539 763.641C168.758 762.938 169.641 762.023 170.188 760.898V755.695H166.789C161.477 755.695 158.82 757.25 158.82 760.359C158.82 761.719 159.273 762.781 160.18 763.547C161.086 764.312 162.25 764.695 163.672 764.695ZM202.789 755.602C202.789 759.477 201.898 762.594 200.117 764.953C198.336 767.297 195.945 768.469 192.945 768.469C189.742 768.469 187.266 767.336 185.516 765.07L185.305 768H181.32V732H185.656V745.43C187.406 743.258 189.82 742.172 192.898 742.172C195.977 742.172 198.391 743.336 200.141 745.664C201.906 747.992 202.789 751.18 202.789 755.227V755.602ZM198.453 755.109C198.453 752.156 197.883 749.875 196.742 748.266C195.602 746.656 193.961 745.852 191.82 745.852C188.961 745.852 186.906 747.18 185.656 749.836V760.805C186.984 763.461 189.055 764.789 191.867 764.789C193.945 764.789 195.562 763.984 196.719 762.375C197.875 760.766 198.453 758.344 198.453 755.109ZM212.984 768H208.648V732H212.984V768ZM224.656 768H220.32V742.641H224.656V768ZM219.969 735.914C219.969 735.211 220.18 734.617 220.602 734.133C221.039 733.648 221.68 733.406 222.523 733.406C223.367 733.406 224.008 733.648 224.445 734.133C224.883 734.617 225.102 735.211 225.102 735.914C225.102 736.617 224.883 737.203 224.445 737.672C224.008 738.141 223.367 738.375 222.523 738.375C221.68 738.375 221.039 738.141 220.602 737.672C220.18 737.203 219.969 736.617 219.969 735.914ZM237.5 736.5V742.641H242.234V745.992H237.5V761.719C237.5 762.734 237.711 763.5 238.133 764.016C238.555 764.516 239.273 764.766 240.289 764.766C240.789 764.766 241.477 764.672 242.352 764.484V768C241.211 768.312 240.102 768.469 239.023 768.469C237.086 768.469 235.625 767.883 234.641 766.711C233.656 765.539 233.164 763.875 233.164 761.719V745.992H228.547V742.641H233.164V736.5H237.5ZM255.617 761.648L261.523 742.641H266.164L255.969 771.914C254.391 776.133 251.883 778.242 248.445 778.242L247.625 778.172L246.008 777.867V774.352L247.18 774.445C248.648 774.445 249.789 774.148 250.602 773.555C251.43 772.961 252.109 771.875 252.641 770.297L253.602 767.719L244.555 742.641H249.289L255.617 761.648Z" fill="white"/>
<path d="M65.2578 846.023L75.0078 817.875H79.9297L67.2734 852H63.2891L50.6562 817.875H55.5547L65.2578 846.023ZM88.5547 852H84.2188V826.641H88.5547V852ZM83.8672 819.914C83.8672 819.211 84.0781 818.617 84.5 818.133C84.9375 817.648 85.5781 817.406 86.4219 817.406C87.2656 817.406 87.9062 817.648 88.3438 818.133C88.7812 818.617 89 819.211 89 819.914C89 820.617 88.7812 821.203 88.3438 821.672C87.9062 822.141 87.2656 822.375 86.4219 822.375C85.5781 822.375 84.9375 822.141 84.5 821.672C84.0781 821.203 83.8672 820.617 83.8672 819.914ZM111.172 852C110.922 851.5 110.719 850.609 110.562 849.328C108.547 851.422 106.141 852.469 103.344 852.469C100.844 852.469 98.7891 851.766 97.1797 850.359C95.5859 848.938 94.7891 847.141 94.7891 844.969C94.7891 842.328 95.7891 840.281 97.7891 838.828C99.8047 837.359 102.633 836.625 106.273 836.625H110.492V834.633C110.492 833.117 110.039 831.914 109.133 831.023C108.227 830.117 106.891 829.664 105.125 829.664C103.578 829.664 102.281 830.055 101.234 830.836C100.188 831.617 99.6641 832.562 99.6641 833.672H95.3047C95.3047 832.406 95.75 831.188 96.6406 830.016C97.5469 828.828 98.7656 827.891 100.297 827.203C101.844 826.516 103.539 826.172 105.383 826.172C108.305 826.172 110.594 826.906 112.25 828.375C113.906 829.828 114.766 831.836 114.828 834.398V846.07C114.828 848.398 115.125 850.25 115.719 851.625V852H111.172ZM103.977 848.695C105.336 848.695 106.625 848.344 107.844 847.641C109.062 846.938 109.945 846.023 110.492 844.898V839.695H107.094C101.781 839.695 99.125 841.25 99.125 844.359C99.125 845.719 99.5781 846.781 100.484 847.547C101.391 848.312 102.555 848.695 103.977 848.695ZM143.094 839.602C143.094 843.477 142.203 846.594 140.422 848.953C138.641 851.297 136.25 852.469 133.25 852.469C130.047 852.469 127.57 851.336 125.82 849.07L125.609 852H121.625V816H125.961V829.43C127.711 827.258 130.125 826.172 133.203 826.172C136.281 826.172 138.695 827.336 140.445 829.664C142.211 831.992 143.094 835.18 143.094 839.227V839.602ZM138.758 839.109C138.758 836.156 138.188 833.875 137.047 832.266C135.906 830.656 134.266 829.852 132.125 829.852C129.266 829.852 127.211 831.18 125.961 833.836V844.805C127.289 847.461 129.359 848.789 132.172 848.789C134.25 848.789 135.867 847.984 137.023 846.375C138.18 844.766 138.758 842.344 138.758 839.109ZM153.289 852H148.953V826.641H153.289V852ZM148.602 819.914C148.602 819.211 148.812 818.617 149.234 818.133C149.672 817.648 150.312 817.406 151.156 817.406C152 817.406 152.641 817.648 153.078 818.133C153.516 818.617 153.734 819.211 153.734 819.914C153.734 820.617 153.516 821.203 153.078 821.672C152.641 822.141 152 822.375 151.156 822.375C150.312 822.375 149.672 822.141 149.234 821.672C148.812 821.203 148.602 820.617 148.602 819.914ZM164.961 852H160.625V816H164.961V852ZM176.633 852H172.297V826.641H176.633V852ZM171.945 819.914C171.945 819.211 172.156 818.617 172.578 818.133C173.016 817.648 173.656 817.406 174.5 817.406C175.344 817.406 175.984 817.648 176.422 818.133C176.859 818.617 177.078 819.211 177.078 819.914C177.078 820.617 176.859 821.203 176.422 821.672C175.984 822.141 175.344 822.375 174.5 822.375C173.656 822.375 173.016 822.141 172.578 821.672C172.156 821.203 171.945 820.617 171.945 819.914ZM189.477 820.5V826.641H194.211V829.992H189.477V845.719C189.477 846.734 189.688 847.5 190.109 848.016C190.531 848.516 191.25 848.766 192.266 848.766C192.766 848.766 193.453 848.672 194.328 848.484V852C193.188 852.312 192.078 852.469 191 852.469C189.062 852.469 187.602 851.883 186.617 850.711C185.633 849.539 185.141 847.875 185.141 845.719V829.992H180.523V826.641H185.141V820.5H189.477ZM207.594 845.648L213.5 826.641H218.141L207.945 855.914C206.367 860.133 203.859 862.242 200.422 862.242L199.602 862.172L197.984 861.867V858.352L199.156 858.445C200.625 858.445 201.766 858.148 202.578 857.555C203.406 856.961 204.086 855.875 204.617 854.297L205.578 851.719L196.531 826.641H201.266L207.594 845.648Z" fill="white"/>
<path d="M79.5781 932.93H65.2578V948H60.7578V913.875H81.8984V917.578H65.2578V929.25H79.5781V932.93ZM96.6172 948.469C93.1797 948.469 90.3828 947.344 88.2266 945.094C86.0703 942.828 84.9922 939.805 84.9922 936.023V935.227C84.9922 932.711 85.4688 930.469 86.4219 928.5C87.3906 926.516 88.7344 924.969 90.4531 923.859C92.1875 922.734 94.0625 922.172 96.0781 922.172C99.375 922.172 101.938 923.258 103.766 925.43C105.594 927.602 106.508 930.711 106.508 934.758V936.562H89.3281C89.3906 939.062 90.1172 941.086 91.5078 942.633C92.9141 944.164 94.6953 944.93 96.8516 944.93C98.3828 944.93 99.6797 944.617 100.742 943.992C101.805 943.367 102.734 942.539 103.531 941.508L106.18 943.57C104.055 946.836 100.867 948.469 96.6172 948.469ZM96.0781 925.734C94.3281 925.734 92.8594 926.375 91.6719 927.656C90.4844 928.922 89.75 930.703 89.4688 933H102.172V932.672C102.047 930.469 101.453 928.766 100.391 927.562C99.3281 926.344 97.8906 925.734 96.0781 925.734ZM127.203 948C126.953 947.5 126.75 946.609 126.594 945.328C124.578 947.422 122.172 948.469 119.375 948.469C116.875 948.469 114.82 947.766 113.211 946.359C111.617 944.938 110.82 943.141 110.82 940.969C110.82 938.328 111.82 936.281 113.82 934.828C115.836 933.359 118.664 932.625 122.305 932.625H126.523V930.633C126.523 929.117 126.07 927.914 125.164 927.023C124.258 926.117 122.922 925.664 121.156 925.664C119.609 925.664 118.312 926.055 117.266 926.836C116.219 927.617 115.695 928.562 115.695 929.672H111.336C111.336 928.406 111.781 927.188 112.672 926.016C113.578 924.828 114.797 923.891 116.328 923.203C117.875 922.516 119.57 922.172 121.414 922.172C124.336 922.172 126.625 922.906 128.281 924.375C129.938 925.828 130.797 927.836 130.859 930.398V942.07C130.859 944.398 131.156 946.25 131.75 947.625V948H127.203ZM120.008 944.695C121.367 944.695 122.656 944.344 123.875 943.641C125.094 942.938 125.977 942.023 126.523 940.898V935.695H123.125C117.812 935.695 115.156 937.25 115.156 940.359C115.156 941.719 115.609 942.781 116.516 943.547C117.422 944.312 118.586 944.695 120.008 944.695ZM152.422 941.273C152.422 940.102 151.977 939.195 151.086 938.555C150.211 937.898 148.672 937.336 146.469 936.867C144.281 936.398 142.539 935.836 141.242 935.18C139.961 934.523 139.008 933.742 138.383 932.836C137.773 931.93 137.469 930.852 137.469 929.602C137.469 927.523 138.344 925.766 140.094 924.328C141.859 922.891 144.109 922.172 146.844 922.172C149.719 922.172 152.047 922.914 153.828 924.398C155.625 925.883 156.523 927.781 156.523 930.094H152.164C152.164 928.906 151.656 927.883 150.641 927.023C149.641 926.164 148.375 925.734 146.844 925.734C145.266 925.734 144.031 926.078 143.141 926.766C142.25 927.453 141.805 928.352 141.805 929.461C141.805 930.508 142.219 931.297 143.047 931.828C143.875 932.359 145.367 932.867 147.523 933.352C149.695 933.836 151.453 934.414 152.797 935.086C154.141 935.758 155.133 936.57 155.773 937.523C156.43 938.461 156.758 939.609 156.758 940.969C156.758 943.234 155.852 945.055 154.039 946.43C152.227 947.789 149.875 948.469 146.984 948.469C144.953 948.469 143.156 948.109 141.594 947.391C140.031 946.672 138.805 945.672 137.914 944.391C137.039 943.094 136.602 941.695 136.602 940.195H140.938C141.016 941.648 141.594 942.805 142.672 943.664C143.766 944.508 145.203 944.93 146.984 944.93C148.625 944.93 149.938 944.602 150.922 943.945C151.922 943.273 152.422 942.383 152.422 941.273ZM167.117 948H162.781V922.641H167.117V948ZM162.43 915.914C162.43 915.211 162.641 914.617 163.062 914.133C163.5 913.648 164.141 913.406 164.984 913.406C165.828 913.406 166.469 913.648 166.906 914.133C167.344 914.617 167.562 915.211 167.562 915.914C167.562 916.617 167.344 917.203 166.906 917.672C166.469 918.141 165.828 918.375 164.984 918.375C164.141 918.375 163.5 918.141 163.062 917.672C162.641 917.203 162.43 916.617 162.43 915.914ZM195.547 935.602C195.547 939.477 194.656 942.594 192.875 944.953C191.094 947.297 188.703 948.469 185.703 948.469C182.5 948.469 180.023 947.336 178.273 945.07L178.062 948H174.078V912H178.414V925.43C180.164 923.258 182.578 922.172 185.656 922.172C188.734 922.172 191.148 923.336 192.898 925.664C194.664 927.992 195.547 931.18 195.547 935.227V935.602ZM191.211 935.109C191.211 932.156 190.641 929.875 189.5 928.266C188.359 926.656 186.719 925.852 184.578 925.852C181.719 925.852 179.664 927.18 178.414 929.836V940.805C179.742 943.461 181.812 944.789 184.625 944.789C186.703 944.789 188.32 943.984 189.477 942.375C190.633 940.766 191.211 938.344 191.211 935.109ZM205.742 948H201.406V922.641H205.742V948ZM201.055 915.914C201.055 915.211 201.266 914.617 201.688 914.133C202.125 913.648 202.766 913.406 203.609 913.406C204.453 913.406 205.094 913.648 205.531 914.133C205.969 914.617 206.188 915.211 206.188 915.914C206.188 916.617 205.969 917.203 205.531 917.672C205.094 918.141 204.453 918.375 203.609 918.375C202.766 918.375 202.125 918.141 201.688 917.672C201.266 917.203 201.055 916.617 201.055 915.914ZM217.414 948H213.078V912H217.414V948ZM229.086 948H224.75V922.641H229.086V948ZM224.398 915.914C224.398 915.211 224.609 914.617 225.031 914.133C225.469 913.648 226.109 913.406 226.953 913.406C227.797 913.406 228.438 913.648 228.875 914.133C229.312 914.617 229.531 915.211 229.531 915.914C229.531 916.617 229.312 917.203 228.875 917.672C228.438 918.141 227.797 918.375 226.953 918.375C226.109 918.375 225.469 918.141 225.031 917.672C224.609 917.203 224.398 916.617 224.398 915.914ZM241.93 916.5V922.641H246.664V925.992H241.93V941.719C241.93 942.734 242.141 943.5 242.562 944.016C242.984 944.516 243.703 944.766 244.719 944.766C245.219 944.766 245.906 944.672 246.781 944.484V948C245.641 948.312 244.531 948.469 243.453 948.469C241.516 948.469 240.055 947.883 239.07 946.711C238.086 945.539 237.594 943.875 237.594 941.719V925.992H232.977V922.641H237.594V916.5H241.93ZM260.047 941.648L265.953 922.641H270.594L260.398 951.914C258.82 956.133 256.312 958.242 252.875 958.242L252.055 958.172L250.438 957.867V954.352L251.609 954.445C253.078 954.445 254.219 954.148 255.031 953.555C255.859 952.961 256.539 951.875 257.07 950.297L258.031 947.719L248.984 922.641H253.719L260.047 941.648Z" fill="white"/>
<rect y="1198" width="1059" height="214" rx="33" fill="#07575F"/>
<path d="M118.281 1281.09H103.984L100.773 1290H96.1328L109.164 1255.88H113.102L126.156 1290H121.539L118.281 1281.09ZM105.344 1277.39H116.945L111.133 1261.43L105.344 1277.39ZM134.172 1264.64L134.312 1267.83C136.25 1265.39 138.781 1264.17 141.906 1264.17C147.266 1264.17 149.969 1267.2 150.016 1273.24V1290H145.68V1273.22C145.664 1271.39 145.242 1270.04 144.414 1269.16C143.602 1268.29 142.328 1267.85 140.594 1267.85C139.188 1267.85 137.953 1268.23 136.891 1268.98C135.828 1269.73 135 1270.71 134.406 1271.93V1290H130.07V1264.64H134.172ZM187.984 1281.09H173.688L170.477 1290H165.836L178.867 1255.88H182.805L195.859 1290H191.242L187.984 1281.09ZM175.047 1277.39H186.648L180.836 1261.43L175.047 1277.39ZM198.719 1277.11C198.719 1273.22 199.641 1270.09 201.484 1267.73C203.328 1265.36 205.742 1264.17 208.727 1264.17C211.695 1264.17 214.047 1265.19 215.781 1267.22V1254H220.117V1290H216.133L215.922 1287.28C214.188 1289.41 211.773 1290.47 208.68 1290.47C205.742 1290.47 203.344 1289.27 201.484 1286.86C199.641 1284.45 198.719 1281.31 198.719 1277.44V1277.11ZM203.055 1277.6C203.055 1280.48 203.648 1282.73 204.836 1284.35C206.023 1285.98 207.664 1286.79 209.758 1286.79C212.508 1286.79 214.516 1285.55 215.781 1283.09V1271.44C214.484 1269.05 212.492 1267.85 209.805 1267.85C207.68 1267.85 206.023 1268.67 204.836 1270.31C203.648 1271.95 203.055 1274.38 203.055 1277.6ZM235.234 1284.12L241.516 1264.64H245.945L236.852 1290H233.547L224.359 1264.64H228.789L235.234 1284.12ZM254.828 1290H250.492V1264.64H254.828V1290ZM250.141 1257.91C250.141 1257.21 250.352 1256.62 250.773 1256.13C251.211 1255.65 251.852 1255.41 252.695 1255.41C253.539 1255.41 254.18 1255.65 254.617 1256.13C255.055 1256.62 255.273 1257.21 255.273 1257.91C255.273 1258.62 255.055 1259.2 254.617 1259.67C254.18 1260.14 253.539 1260.38 252.695 1260.38C251.852 1260.38 251.211 1260.14 250.773 1259.67C250.352 1259.2 250.141 1258.62 250.141 1257.91ZM276.555 1283.27C276.555 1282.1 276.109 1281.2 275.219 1280.55C274.344 1279.9 272.805 1279.34 270.602 1278.87C268.414 1278.4 266.672 1277.84 265.375 1277.18C264.094 1276.52 263.141 1275.74 262.516 1274.84C261.906 1273.93 261.602 1272.85 261.602 1271.6C261.602 1269.52 262.477 1267.77 264.227 1266.33C265.992 1264.89 268.242 1264.17 270.977 1264.17C273.852 1264.17 276.18 1264.91 277.961 1266.4C279.758 1267.88 280.656 1269.78 280.656 1272.09H276.297C276.297 1270.91 275.789 1269.88 274.773 1269.02C273.773 1268.16 272.508 1267.73 270.977 1267.73C269.398 1267.73 268.164 1268.08 267.273 1268.77C266.383 1269.45 265.938 1270.35 265.938 1271.46C265.938 1272.51 266.352 1273.3 267.18 1273.83C268.008 1274.36 269.5 1274.87 271.656 1275.35C273.828 1275.84 275.586 1276.41 276.93 1277.09C278.273 1277.76 279.266 1278.57 279.906 1279.52C280.562 1280.46 280.891 1281.61 280.891 1282.97C280.891 1285.23 279.984 1287.05 278.172 1288.43C276.359 1289.79 274.008 1290.47 271.117 1290.47C269.086 1290.47 267.289 1290.11 265.727 1289.39C264.164 1288.67 262.938 1287.67 262.047 1286.39C261.172 1285.09 260.734 1283.7 260.734 1282.2H265.07C265.148 1283.65 265.727 1284.8 266.805 1285.66C267.898 1286.51 269.336 1286.93 271.117 1286.93C272.758 1286.93 274.07 1286.6 275.055 1285.95C276.055 1285.27 276.555 1284.38 276.555 1283.27ZM285.391 1277.09C285.391 1274.6 285.875 1272.37 286.844 1270.38C287.828 1268.4 289.188 1266.87 290.922 1265.79C292.672 1264.71 294.664 1264.17 296.898 1264.17C300.352 1264.17 303.141 1265.37 305.266 1267.76C307.406 1270.15 308.477 1273.33 308.477 1277.3V1277.6C308.477 1280.07 308 1282.29 307.047 1284.26C306.109 1286.21 304.758 1287.73 302.992 1288.83C301.242 1289.92 299.227 1290.47 296.945 1290.47C293.508 1290.47 290.719 1289.27 288.578 1286.88C286.453 1284.49 285.391 1281.33 285.391 1277.39V1277.09ZM289.75 1277.6C289.75 1280.41 290.398 1282.67 291.695 1284.38C293.008 1286.08 294.758 1286.93 296.945 1286.93C299.148 1286.93 300.898 1286.07 302.195 1284.35C303.492 1282.62 304.141 1280.2 304.141 1277.09C304.141 1274.3 303.477 1272.05 302.148 1270.34C300.836 1268.6 299.086 1267.73 296.898 1267.73C294.758 1267.73 293.031 1268.59 291.719 1270.29C290.406 1271.99 289.75 1274.43 289.75 1277.6ZM326.172 1268.53C325.516 1268.42 324.805 1268.37 324.039 1268.37C321.195 1268.37 319.266 1269.58 318.25 1272V1290H313.914V1264.64H318.133L318.203 1267.57C319.625 1265.3 321.641 1264.17 324.25 1264.17C325.094 1264.17 325.734 1264.28 326.172 1264.5V1268.53ZM364.539 1284.02L369.414 1264.64H373.75L366.367 1290H362.852L356.688 1270.78L350.688 1290H347.172L339.812 1264.64H344.125L349.117 1283.62L355.023 1264.64H358.516L364.539 1284.02ZM382.891 1290H378.555V1264.64H382.891V1290ZM378.203 1257.91C378.203 1257.21 378.414 1256.62 378.836 1256.13C379.273 1255.65 379.914 1255.41 380.758 1255.41C381.602 1255.41 382.242 1255.65 382.68 1256.13C383.117 1256.62 383.336 1257.21 383.336 1257.91C383.336 1258.62 383.117 1259.2 382.68 1259.67C382.242 1260.14 381.602 1260.38 380.758 1260.38C379.914 1260.38 379.273 1260.14 378.836 1259.67C378.414 1259.2 378.203 1258.62 378.203 1257.91ZM394.562 1290H390.227V1254H394.562V1290ZM406.234 1290H401.898V1254H406.234V1290ZM435.273 1286.93C436.82 1286.93 438.172 1286.46 439.328 1285.52C440.484 1284.59 441.125 1283.41 441.25 1282.01H445.352C445.273 1283.46 444.773 1284.84 443.852 1286.16C442.93 1287.47 441.695 1288.52 440.148 1289.3C438.617 1290.08 436.992 1290.47 435.273 1290.47C431.82 1290.47 429.07 1289.32 427.023 1287.02C424.992 1284.71 423.977 1281.55 423.977 1277.55V1276.83C423.977 1274.36 424.43 1272.16 425.336 1270.24C426.242 1268.32 427.539 1266.83 429.227 1265.77C430.93 1264.7 432.938 1264.17 435.25 1264.17C438.094 1264.17 440.453 1265.02 442.328 1266.73C444.219 1268.43 445.227 1270.64 445.352 1273.36H441.25C441.125 1271.72 440.5 1270.38 439.375 1269.33C438.266 1268.27 436.891 1267.73 435.25 1267.73C433.047 1267.73 431.336 1268.53 430.117 1270.12C428.914 1271.7 428.312 1273.99 428.312 1276.99V1277.81C428.312 1280.73 428.914 1282.98 430.117 1284.56C431.32 1286.14 433.039 1286.93 435.273 1286.93ZM449.078 1277.09C449.078 1274.6 449.562 1272.37 450.531 1270.38C451.516 1268.4 452.875 1266.87 454.609 1265.79C456.359 1264.71 458.352 1264.17 460.586 1264.17C464.039 1264.17 466.828 1265.37 468.953 1267.76C471.094 1270.15 472.164 1273.33 472.164 1277.3V1277.6C472.164 1280.07 471.688 1282.29 470.734 1284.26C469.797 1286.21 468.445 1287.73 466.68 1288.83C464.93 1289.92 462.914 1290.47 460.633 1290.47C457.195 1290.47 454.406 1289.27 452.266 1286.88C450.141 1284.49 449.078 1281.33 449.078 1277.39V1277.09ZM453.438 1277.6C453.438 1280.41 454.086 1282.67 455.383 1284.38C456.695 1286.08 458.445 1286.93 460.633 1286.93C462.836 1286.93 464.586 1286.07 465.883 1284.35C467.18 1282.62 467.828 1280.2 467.828 1277.09C467.828 1274.3 467.164 1272.05 465.836 1270.34C464.523 1268.6 462.773 1267.73 460.586 1267.73C458.445 1267.73 456.719 1268.59 455.406 1270.29C454.094 1271.99 453.438 1274.43 453.438 1277.6ZM481.703 1264.64L481.844 1267.83C483.781 1265.39 486.312 1264.17 489.438 1264.17C494.797 1264.17 497.5 1267.2 497.547 1273.24V1290H493.211V1273.22C493.195 1271.39 492.773 1270.04 491.945 1269.16C491.133 1268.29 489.859 1267.85 488.125 1267.85C486.719 1267.85 485.484 1268.23 484.422 1268.98C483.359 1269.73 482.531 1270.71 481.938 1271.93V1290H477.602V1264.64H481.703ZM509.969 1258.5V1264.64H514.703V1267.99H509.969V1283.72C509.969 1284.73 510.18 1285.5 510.602 1286.02C511.023 1286.52 511.742 1286.77 512.758 1286.77C513.258 1286.77 513.945 1286.67 514.82 1286.48V1290C513.68 1290.31 512.57 1290.47 511.492 1290.47C509.555 1290.47 508.094 1289.88 507.109 1288.71C506.125 1287.54 505.633 1285.88 505.633 1283.72V1267.99H501.016V1264.64H505.633V1258.5H509.969ZM535.445 1290C535.195 1289.5 534.992 1288.61 534.836 1287.33C532.82 1289.42 530.414 1290.47 527.617 1290.47C525.117 1290.47 523.062 1289.77 521.453 1288.36C519.859 1286.94 519.062 1285.14 519.062 1282.97C519.062 1280.33 520.062 1278.28 522.062 1276.83C524.078 1275.36 526.906 1274.62 530.547 1274.62H534.766V1272.63C534.766 1271.12 534.312 1269.91 533.406 1269.02C532.5 1268.12 531.164 1267.66 529.398 1267.66C527.852 1267.66 526.555 1268.05 525.508 1268.84C524.461 1269.62 523.938 1270.56 523.938 1271.67H519.578C519.578 1270.41 520.023 1269.19 520.914 1268.02C521.82 1266.83 523.039 1265.89 524.57 1265.2C526.117 1264.52 527.812 1264.17 529.656 1264.17C532.578 1264.17 534.867 1264.91 536.523 1266.38C538.18 1267.83 539.039 1269.84 539.102 1272.4V1284.07C539.102 1286.4 539.398 1288.25 539.992 1289.62V1290H535.445ZM528.25 1286.7C529.609 1286.7 530.898 1286.34 532.117 1285.64C533.336 1284.94 534.219 1284.02 534.766 1282.9V1277.7H531.367C526.055 1277.7 523.398 1279.25 523.398 1282.36C523.398 1283.72 523.852 1284.78 524.758 1285.55C525.664 1286.31 526.828 1286.7 528.25 1286.7ZM556.07 1286.93C557.617 1286.93 558.969 1286.46 560.125 1285.52C561.281 1284.59 561.922 1283.41 562.047 1282.01H566.148C566.07 1283.46 565.57 1284.84 564.648 1286.16C563.727 1287.47 562.492 1288.52 560.945 1289.3C559.414 1290.08 557.789 1290.47 556.07 1290.47C552.617 1290.47 549.867 1289.32 547.82 1287.02C545.789 1284.71 544.773 1281.55 544.773 1277.55V1276.83C544.773 1274.36 545.227 1272.16 546.133 1270.24C547.039 1268.32 548.336 1266.83 550.023 1265.77C551.727 1264.7 553.734 1264.17 556.047 1264.17C558.891 1264.17 561.25 1265.02 563.125 1266.73C565.016 1268.43 566.023 1270.64 566.148 1273.36H562.047C561.922 1271.72 561.297 1270.38 560.172 1269.33C559.062 1268.27 557.688 1267.73 556.047 1267.73C553.844 1267.73 552.133 1268.53 550.914 1270.12C549.711 1271.7 549.109 1273.99 549.109 1276.99V1277.81C549.109 1280.73 549.711 1282.98 550.914 1284.56C552.117 1286.14 553.836 1286.93 556.07 1286.93ZM576.906 1258.5V1264.64H581.641V1267.99H576.906V1283.72C576.906 1284.73 577.117 1285.5 577.539 1286.02C577.961 1286.52 578.68 1286.77 579.695 1286.77C580.195 1286.77 580.883 1286.67 581.758 1286.48V1290C580.617 1290.31 579.508 1290.47 578.43 1290.47C576.492 1290.47 575.031 1289.88 574.047 1288.71C573.062 1287.54 572.57 1285.88 572.57 1283.72V1267.99H567.953V1264.64H572.57V1258.5H576.906ZM621.086 1284.02L625.961 1264.64H630.297L622.914 1290H619.398L613.234 1270.78L607.234 1290H603.719L596.359 1264.64H600.672L605.664 1283.62L611.57 1264.64H615.062L621.086 1284.02ZM639.438 1290H635.102V1264.64H639.438V1290ZM634.75 1257.91C634.75 1257.21 634.961 1256.62 635.383 1256.13C635.82 1255.65 636.461 1255.41 637.305 1255.41C638.148 1255.41 638.789 1255.65 639.227 1256.13C639.664 1256.62 639.883 1257.21 639.883 1257.91C639.883 1258.62 639.664 1259.2 639.227 1259.67C638.789 1260.14 638.148 1260.38 637.305 1260.38C636.461 1260.38 635.82 1260.14 635.383 1259.67C634.961 1259.2 634.75 1258.62 634.75 1257.91ZM652.281 1258.5V1264.64H657.016V1267.99H652.281V1283.72C652.281 1284.73 652.492 1285.5 652.914 1286.02C653.336 1286.52 654.055 1286.77 655.07 1286.77C655.57 1286.77 656.258 1286.67 657.133 1286.48V1290C655.992 1290.31 654.883 1290.47 653.805 1290.47C651.867 1290.47 650.406 1289.88 649.422 1288.71C648.438 1287.54 647.945 1285.88 647.945 1283.72V1267.99H643.328V1264.64H647.945V1258.5H652.281ZM666.438 1267.71C668.359 1265.35 670.859 1264.17 673.938 1264.17C679.297 1264.17 682 1267.2 682.047 1273.24V1290H677.711V1273.22C677.695 1271.39 677.273 1270.04 676.445 1269.16C675.633 1268.29 674.359 1267.85 672.625 1267.85C671.219 1267.85 669.984 1268.23 668.922 1268.98C667.859 1269.73 667.031 1270.71 666.438 1271.93V1290H662.102V1254H666.438V1267.71ZM708.742 1283.65L714.648 1264.64H719.289L709.094 1293.91C707.516 1298.13 705.008 1300.24 701.57 1300.24L700.75 1300.17L699.133 1299.87V1296.35L700.305 1296.45C701.773 1296.45 702.914 1296.15 703.727 1295.55C704.555 1294.96 705.234 1293.88 705.766 1292.3L706.727 1289.72L697.68 1264.64H702.414L708.742 1283.65ZM721.656 1277.09C721.656 1274.6 722.141 1272.37 723.109 1270.38C724.094 1268.4 725.453 1266.87 727.188 1265.79C728.938 1264.71 730.93 1264.17 733.164 1264.17C736.617 1264.17 739.406 1265.37 741.531 1267.76C743.672 1270.15 744.742 1273.33 744.742 1277.3V1277.6C744.742 1280.07 744.266 1282.29 743.312 1284.26C742.375 1286.21 741.023 1287.73 739.258 1288.83C737.508 1289.92 735.492 1290.47 733.211 1290.47C729.773 1290.47 726.984 1289.27 724.844 1286.88C722.719 1284.49 721.656 1281.33 721.656 1277.39V1277.09ZM726.016 1277.6C726.016 1280.41 726.664 1282.67 727.961 1284.38C729.273 1286.08 731.023 1286.93 733.211 1286.93C735.414 1286.93 737.164 1286.07 738.461 1284.35C739.758 1282.62 740.406 1280.2 740.406 1277.09C740.406 1274.3 739.742 1272.05 738.414 1270.34C737.102 1268.6 735.352 1267.73 733.164 1267.73C731.023 1267.73 729.297 1268.59 727.984 1270.29C726.672 1271.99 726.016 1274.43 726.016 1277.6ZM765.836 1287.49C764.148 1289.48 761.672 1290.47 758.406 1290.47C755.703 1290.47 753.641 1289.69 752.219 1288.12C750.812 1286.55 750.102 1284.22 750.086 1281.14V1264.64H754.422V1281.02C754.422 1284.87 755.984 1286.79 759.109 1286.79C762.422 1286.79 764.625 1285.55 765.719 1283.09V1264.64H770.055V1290H765.93L765.836 1287.49ZM803.336 1283.27C803.336 1282.1 802.891 1281.2 802 1280.55C801.125 1279.9 799.586 1279.34 797.383 1278.87C795.195 1278.4 793.453 1277.84 792.156 1277.18C790.875 1276.52 789.922 1275.74 789.297 1274.84C788.688 1273.93 788.383 1272.85 788.383 1271.6C788.383 1269.52 789.258 1267.77 791.008 1266.33C792.773 1264.89 795.023 1264.17 797.758 1264.17C800.633 1264.17 802.961 1264.91 804.742 1266.4C806.539 1267.88 807.438 1269.78 807.438 1272.09H803.078C803.078 1270.91 802.57 1269.88 801.555 1269.02C800.555 1268.16 799.289 1267.73 797.758 1267.73C796.18 1267.73 794.945 1268.08 794.055 1268.77C793.164 1269.45 792.719 1270.35 792.719 1271.46C792.719 1272.51 793.133 1273.3 793.961 1273.83C794.789 1274.36 796.281 1274.87 798.438 1275.35C800.609 1275.84 802.367 1276.41 803.711 1277.09C805.055 1277.76 806.047 1278.57 806.688 1279.52C807.344 1280.46 807.672 1281.61 807.672 1282.97C807.672 1285.23 806.766 1287.05 804.953 1288.43C803.141 1289.79 800.789 1290.47 797.898 1290.47C795.867 1290.47 794.07 1290.11 792.508 1289.39C790.945 1288.67 789.719 1287.67 788.828 1286.39C787.953 1285.09 787.516 1283.7 787.516 1282.2H791.852C791.93 1283.65 792.508 1284.8 793.586 1285.66C794.68 1286.51 796.117 1286.93 797.898 1286.93C799.539 1286.93 800.852 1286.6 801.836 1285.95C802.836 1285.27 803.336 1284.38 803.336 1283.27ZM817.656 1267.71C819.578 1265.35 822.078 1264.17 825.156 1264.17C830.516 1264.17 833.219 1267.2 833.266 1273.24V1290H828.93V1273.22C828.914 1271.39 828.492 1270.04 827.664 1269.16C826.852 1268.29 825.578 1267.85 823.844 1267.85C822.438 1267.85 821.203 1268.23 820.141 1268.98C819.078 1269.73 818.25 1270.71 817.656 1271.93V1290H813.32V1254H817.656V1267.71ZM838.609 1277.09C838.609 1274.6 839.094 1272.37 840.062 1270.38C841.047 1268.4 842.406 1266.87 844.141 1265.79C845.891 1264.71 847.883 1264.17 850.117 1264.17C853.57 1264.17 856.359 1265.37 858.484 1267.76C860.625 1270.15 861.695 1273.33 861.695 1277.3V1277.6C861.695 1280.07 861.219 1282.29 860.266 1284.26C859.328 1286.21 857.977 1287.73 856.211 1288.83C854.461 1289.92 852.445 1290.47 850.164 1290.47C846.727 1290.47 843.938 1289.27 841.797 1286.88C839.672 1284.49 838.609 1281.33 838.609 1277.39V1277.09ZM842.969 1277.6C842.969 1280.41 843.617 1282.67 844.914 1284.38C846.227 1286.08 847.977 1286.93 850.164 1286.93C852.367 1286.93 854.117 1286.07 855.414 1284.35C856.711 1282.62 857.359 1280.2 857.359 1277.09C857.359 1274.3 856.695 1272.05 855.367 1270.34C854.055 1268.6 852.305 1267.73 850.117 1267.73C847.977 1267.73 846.25 1268.59 844.938 1270.29C843.625 1271.99 842.969 1274.43 842.969 1277.6ZM879.391 1268.53C878.734 1268.42 878.023 1268.37 877.258 1268.37C874.414 1268.37 872.484 1269.58 871.469 1272V1290H867.133V1264.64H871.352L871.422 1267.57C872.844 1265.3 874.859 1264.17 877.469 1264.17C878.312 1264.17 878.953 1264.28 879.391 1264.5V1268.53ZM890.453 1258.5V1264.64H895.188V1267.99H890.453V1283.72C890.453 1284.73 890.664 1285.5 891.086 1286.02C891.508 1286.52 892.227 1286.77 893.242 1286.77C893.742 1286.77 894.43 1286.67 895.305 1286.48V1290C894.164 1290.31 893.055 1290.47 891.977 1290.47C890.039 1290.47 888.578 1289.88 887.594 1288.71C886.609 1287.54 886.117 1285.88 886.117 1283.72V1267.99H881.5V1264.64H886.117V1258.5H890.453ZM904.984 1290H900.648V1254H904.984V1290ZM920.242 1283.65L926.148 1264.64H930.789L920.594 1293.91C919.016 1298.13 916.508 1300.24 913.07 1300.24L912.25 1300.17L910.633 1299.87V1296.35L911.805 1296.45C913.273 1296.45 914.414 1296.15 915.227 1295.55C916.055 1294.96 916.734 1293.88 917.266 1292.3L918.227 1289.72L909.18 1264.64H913.914L920.242 1283.65ZM932.242 1287.73C932.242 1286.98 932.461 1286.35 932.898 1285.85C933.352 1285.35 934.023 1285.1 934.914 1285.1C935.805 1285.1 936.477 1285.35 936.93 1285.85C937.398 1286.35 937.633 1286.98 937.633 1287.73C937.633 1288.45 937.398 1289.05 936.93 1289.53C936.477 1290.02 935.805 1290.26 934.914 1290.26C934.023 1290.26 933.352 1290.02 932.898 1289.53C932.461 1289.05 932.242 1288.45 932.242 1287.73ZM244.562 1342.32H260.734V1346H240.039V1311.88H244.562V1342.32ZM275.711 1346.47C272.273 1346.47 269.477 1345.34 267.32 1343.09C265.164 1340.83 264.086 1337.8 264.086 1334.02V1333.23C264.086 1330.71 264.562 1328.47 265.516 1326.5C266.484 1324.52 267.828 1322.97 269.547 1321.86C271.281 1320.73 273.156 1320.17 275.172 1320.17C278.469 1320.17 281.031 1321.26 282.859 1323.43C284.688 1325.6 285.602 1328.71 285.602 1332.76V1334.56H268.422C268.484 1337.06 269.211 1339.09 270.602 1340.63C272.008 1342.16 273.789 1342.93 275.945 1342.93C277.477 1342.93 278.773 1342.62 279.836 1341.99C280.898 1341.37 281.828 1340.54 282.625 1339.51L285.273 1341.57C283.148 1344.84 279.961 1346.47 275.711 1346.47ZM275.172 1323.73C273.422 1323.73 271.953 1324.38 270.766 1325.66C269.578 1326.92 268.844 1328.7 268.562 1331H281.266V1330.67C281.141 1328.47 280.547 1326.77 279.484 1325.56C278.422 1324.34 276.984 1323.73 275.172 1323.73ZM296.523 1314.5V1320.64H301.258V1323.99H296.523V1339.72C296.523 1340.73 296.734 1341.5 297.156 1342.02C297.578 1342.52 298.297 1342.77 299.312 1342.77C299.812 1342.77 300.5 1342.67 301.375 1342.48V1346C300.234 1346.31 299.125 1346.47 298.047 1346.47C296.109 1346.47 294.648 1345.88 293.664 1344.71C292.68 1343.54 292.188 1341.88 292.188 1339.72V1323.99H287.57V1320.64H292.188V1314.5H296.523ZM333.906 1343.49C332.219 1345.48 329.742 1346.47 326.477 1346.47C323.773 1346.47 321.711 1345.69 320.289 1344.12C318.883 1342.55 318.172 1340.22 318.156 1337.14V1320.64H322.492V1337.02C322.492 1340.87 324.055 1342.79 327.18 1342.79C330.492 1342.79 332.695 1341.55 333.789 1339.09V1320.64H338.125V1346H334L333.906 1343.49ZM359.5 1339.27C359.5 1338.1 359.055 1337.2 358.164 1336.55C357.289 1335.9 355.75 1335.34 353.547 1334.87C351.359 1334.4 349.617 1333.84 348.32 1333.18C347.039 1332.52 346.086 1331.74 345.461 1330.84C344.852 1329.93 344.547 1328.85 344.547 1327.6C344.547 1325.52 345.422 1323.77 347.172 1322.33C348.938 1320.89 351.188 1320.17 353.922 1320.17C356.797 1320.17 359.125 1320.91 360.906 1322.4C362.703 1323.88 363.602 1325.78 363.602 1328.09H359.242C359.242 1326.91 358.734 1325.88 357.719 1325.02C356.719 1324.16 355.453 1323.73 353.922 1323.73C352.344 1323.73 351.109 1324.08 350.219 1324.77C349.328 1325.45 348.883 1326.35 348.883 1327.46C348.883 1328.51 349.297 1329.3 350.125 1329.83C350.953 1330.36 352.445 1330.87 354.602 1331.35C356.773 1331.84 358.531 1332.41 359.875 1333.09C361.219 1333.76 362.211 1334.57 362.852 1335.52C363.508 1336.46 363.836 1337.61 363.836 1338.97C363.836 1341.23 362.93 1343.05 361.117 1344.43C359.305 1345.79 356.953 1346.47 354.062 1346.47C352.031 1346.47 350.234 1346.11 348.672 1345.39C347.109 1344.67 345.883 1343.67 344.992 1342.39C344.117 1341.09 343.68 1339.7 343.68 1338.2H348.016C348.094 1339.65 348.672 1340.8 349.75 1341.66C350.844 1342.51 352.281 1342.93 354.062 1342.93C355.703 1342.93 357.016 1342.6 358 1341.95C359 1341.27 359.5 1340.38 359.5 1339.27ZM385.727 1323.71C387.648 1321.35 390.148 1320.17 393.227 1320.17C398.586 1320.17 401.289 1323.2 401.336 1329.24V1346H397V1329.22C396.984 1327.39 396.562 1326.04 395.734 1325.16C394.922 1324.29 393.648 1323.85 391.914 1323.85C390.508 1323.85 389.273 1324.23 388.211 1324.98C387.148 1325.73 386.32 1326.71 385.727 1327.93V1346H381.391V1310H385.727V1323.71ZM418.352 1346.47C414.914 1346.47 412.117 1345.34 409.961 1343.09C407.805 1340.83 406.727 1337.8 406.727 1334.02V1333.23C406.727 1330.71 407.203 1328.47 408.156 1326.5C409.125 1324.52 410.469 1322.97 412.188 1321.86C413.922 1320.73 415.797 1320.17 417.812 1320.17C421.109 1320.17 423.672 1321.26 425.5 1323.43C427.328 1325.6 428.242 1328.71 428.242 1332.76V1334.56H411.062C411.125 1337.06 411.852 1339.09 413.242 1340.63C414.648 1342.16 416.43 1342.93 418.586 1342.93C420.117 1342.93 421.414 1342.62 422.477 1341.99C423.539 1341.37 424.469 1340.54 425.266 1339.51L427.914 1341.57C425.789 1344.84 422.602 1346.47 418.352 1346.47ZM417.812 1323.73C416.062 1323.73 414.594 1324.38 413.406 1325.66C412.219 1326.92 411.484 1328.7 411.203 1331H423.906V1330.67C423.781 1328.47 423.188 1326.77 422.125 1325.56C421.062 1324.34 419.625 1323.73 417.812 1323.73ZM437.992 1346H433.656V1310H437.992V1346ZM466.375 1333.6C466.375 1337.46 465.492 1340.57 463.727 1342.93C461.961 1345.29 459.57 1346.47 456.555 1346.47C453.477 1346.47 451.055 1345.49 449.289 1343.54V1355.75H444.953V1320.64H448.914L449.125 1323.45C450.891 1321.27 453.344 1320.17 456.484 1320.17C459.531 1320.17 461.938 1321.32 463.703 1323.62C465.484 1325.91 466.375 1329.11 466.375 1333.2V1333.6ZM462.039 1333.11C462.039 1330.25 461.43 1327.99 460.211 1326.34C458.992 1324.68 457.32 1323.85 455.195 1323.85C452.57 1323.85 450.602 1325.02 449.289 1327.34V1339.46C450.586 1341.77 452.57 1342.93 455.242 1342.93C457.32 1342.93 458.969 1342.11 460.188 1340.47C461.422 1338.81 462.039 1336.36 462.039 1333.11ZM492.109 1339.65L498.016 1320.64H502.656L492.461 1349.91C490.883 1354.13 488.375 1356.24 484.938 1356.24L484.117 1356.17L482.5 1355.87V1352.35L483.672 1352.45C485.141 1352.45 486.281 1352.15 487.094 1351.55C487.922 1350.96 488.602 1349.88 489.133 1348.3L490.094 1345.72L481.047 1320.64H485.781L492.109 1339.65ZM505.023 1333.09C505.023 1330.6 505.508 1328.37 506.477 1326.38C507.461 1324.4 508.82 1322.87 510.555 1321.79C512.305 1320.71 514.297 1320.17 516.531 1320.17C519.984 1320.17 522.773 1321.37 524.898 1323.76C527.039 1326.15 528.109 1329.33 528.109 1333.3V1333.6C528.109 1336.07 527.633 1338.29 526.68 1340.26C525.742 1342.21 524.391 1343.73 522.625 1344.83C520.875 1345.92 518.859 1346.47 516.578 1346.47C513.141 1346.47 510.352 1345.27 508.211 1342.88C506.086 1340.49 505.023 1337.33 505.023 1333.39V1333.09ZM509.383 1333.6C509.383 1336.41 510.031 1338.67 511.328 1340.38C512.641 1342.08 514.391 1342.93 516.578 1342.93C518.781 1342.93 520.531 1342.07 521.828 1340.35C523.125 1338.62 523.773 1336.2 523.773 1333.09C523.773 1330.3 523.109 1328.05 521.781 1326.34C520.469 1324.6 518.719 1323.73 516.531 1323.73C514.391 1323.73 512.664 1324.59 511.352 1326.29C510.039 1327.99 509.383 1330.43 509.383 1333.6ZM549.203 1343.49C547.516 1345.48 545.039 1346.47 541.773 1346.47C539.07 1346.47 537.008 1345.69 535.586 1344.12C534.18 1342.55 533.469 1340.22 533.453 1337.14V1320.64H537.789V1337.02C537.789 1340.87 539.352 1342.79 542.477 1342.79C545.789 1342.79 547.992 1341.55 549.086 1339.09V1320.64H553.422V1346H549.297L549.203 1343.49ZM570.906 1333.11C570.906 1329.16 571.82 1326.02 573.648 1323.69C575.477 1321.34 577.898 1320.17 580.914 1320.17C584.008 1320.17 586.422 1321.27 588.156 1323.45L588.367 1320.64H592.328V1345.39C592.328 1348.67 591.352 1351.26 589.398 1353.15C587.461 1355.04 584.852 1355.98 581.57 1355.98C579.742 1355.98 577.953 1355.59 576.203 1354.81C574.453 1354.03 573.117 1352.96 572.195 1351.6L574.445 1349C576.305 1351.3 578.578 1352.45 581.266 1352.45C583.375 1352.45 585.016 1351.85 586.188 1350.66C587.375 1349.48 587.969 1347.8 587.969 1345.65V1343.47C586.234 1345.47 583.867 1346.47 580.867 1346.47C577.898 1346.47 575.492 1345.27 573.648 1342.88C571.82 1340.49 570.906 1337.23 570.906 1333.11ZM575.266 1333.6C575.266 1336.46 575.852 1338.71 577.023 1340.35C578.195 1341.98 579.836 1342.79 581.945 1342.79C584.68 1342.79 586.688 1341.55 587.969 1339.06V1327.48C586.641 1325.06 584.648 1323.85 581.992 1323.85C579.883 1323.85 578.234 1324.67 577.047 1326.31C575.859 1327.95 575.266 1330.38 575.266 1333.6ZM609.414 1346.47C605.977 1346.47 603.18 1345.34 601.023 1343.09C598.867 1340.83 597.789 1337.8 597.789 1334.02V1333.23C597.789 1330.71 598.266 1328.47 599.219 1326.5C600.188 1324.52 601.531 1322.97 603.25 1321.86C604.984 1320.73 606.859 1320.17 608.875 1320.17C612.172 1320.17 614.734 1321.26 616.562 1323.43C618.391 1325.6 619.305 1328.71 619.305 1332.76V1334.56H602.125C602.188 1337.06 602.914 1339.09 604.305 1340.63C605.711 1342.16 607.492 1342.93 609.648 1342.93C611.18 1342.93 612.477 1342.62 613.539 1341.99C614.602 1341.37 615.531 1340.54 616.328 1339.51L618.977 1341.57C616.852 1344.84 613.664 1346.47 609.414 1346.47ZM608.875 1323.73C607.125 1323.73 605.656 1324.38 604.469 1325.66C603.281 1326.92 602.547 1328.7 602.266 1331H614.969V1330.67C614.844 1328.47 614.25 1326.77 613.188 1325.56C612.125 1324.34 610.688 1323.73 608.875 1323.73ZM630.227 1314.5V1320.64H634.961V1323.99H630.227V1339.72C630.227 1340.73 630.438 1341.5 630.859 1342.02C631.281 1342.52 632 1342.77 633.016 1342.77C633.516 1342.77 634.203 1342.67 635.078 1342.48V1346C633.938 1346.31 632.828 1346.47 631.75 1346.47C629.812 1346.47 628.352 1345.88 627.367 1344.71C626.383 1343.54 625.891 1341.88 625.891 1339.72V1323.99H621.273V1320.64H625.891V1314.5H630.227ZM666.719 1339.27C666.719 1338.1 666.273 1337.2 665.383 1336.55C664.508 1335.9 662.969 1335.34 660.766 1334.87C658.578 1334.4 656.836 1333.84 655.539 1333.18C654.258 1332.52 653.305 1331.74 652.68 1330.84C652.07 1329.93 651.766 1328.85 651.766 1327.6C651.766 1325.52 652.641 1323.77 654.391 1322.33C656.156 1320.89 658.406 1320.17 661.141 1320.17C664.016 1320.17 666.344 1320.91 668.125 1322.4C669.922 1323.88 670.82 1325.78 670.82 1328.09H666.461C666.461 1326.91 665.953 1325.88 664.938 1325.02C663.938 1324.16 662.672 1323.73 661.141 1323.73C659.562 1323.73 658.328 1324.08 657.438 1324.77C656.547 1325.45 656.102 1326.35 656.102 1327.46C656.102 1328.51 656.516 1329.3 657.344 1329.83C658.172 1330.36 659.664 1330.87 661.82 1331.35C663.992 1331.84 665.75 1332.41 667.094 1333.09C668.438 1333.76 669.43 1334.57 670.07 1335.52C670.727 1336.46 671.055 1337.61 671.055 1338.97C671.055 1341.23 670.148 1343.05 668.336 1344.43C666.523 1345.79 664.172 1346.47 661.281 1346.47C659.25 1346.47 657.453 1346.11 655.891 1345.39C654.328 1344.67 653.102 1343.67 652.211 1342.39C651.336 1341.09 650.898 1339.7 650.898 1338.2H655.234C655.312 1339.65 655.891 1340.8 656.969 1341.66C658.062 1342.51 659.5 1342.93 661.281 1342.93C662.922 1342.93 664.234 1342.6 665.219 1341.95C666.219 1341.27 666.719 1340.38 666.719 1339.27ZM682.586 1314.5V1320.64H687.32V1323.99H682.586V1339.72C682.586 1340.73 682.797 1341.5 683.219 1342.02C683.641 1342.52 684.359 1342.77 685.375 1342.77C685.875 1342.77 686.562 1342.67 687.438 1342.48V1346C686.297 1346.31 685.188 1346.47 684.109 1346.47C682.172 1346.47 680.711 1345.88 679.727 1344.71C678.742 1343.54 678.25 1341.88 678.25 1339.72V1323.99H673.633V1320.64H678.25V1314.5H682.586ZM708.062 1346C707.812 1345.5 707.609 1344.61 707.453 1343.33C705.438 1345.42 703.031 1346.47 700.234 1346.47C697.734 1346.47 695.68 1345.77 694.07 1344.36C692.477 1342.94 691.68 1341.14 691.68 1338.97C691.68 1336.33 692.68 1334.28 694.68 1332.83C696.695 1331.36 699.523 1330.62 703.164 1330.62H707.383V1328.63C707.383 1327.12 706.93 1325.91 706.023 1325.02C705.117 1324.12 703.781 1323.66 702.016 1323.66C700.469 1323.66 699.172 1324.05 698.125 1324.84C697.078 1325.62 696.555 1326.56 696.555 1327.67H692.195C692.195 1326.41 692.641 1325.19 693.531 1324.02C694.438 1322.83 695.656 1321.89 697.188 1321.2C698.734 1320.52 700.43 1320.17 702.273 1320.17C705.195 1320.17 707.484 1320.91 709.141 1322.38C710.797 1323.83 711.656 1325.84 711.719 1328.4V1340.07C711.719 1342.4 712.016 1344.25 712.609 1345.62V1346H708.062ZM700.867 1342.7C702.227 1342.7 703.516 1342.34 704.734 1341.64C705.953 1340.94 706.836 1340.02 707.383 1338.9V1333.7H703.984C698.672 1333.7 696.016 1335.25 696.016 1338.36C696.016 1339.72 696.469 1340.78 697.375 1341.55C698.281 1342.31 699.445 1342.7 700.867 1342.7ZM730.773 1324.53C730.117 1324.42 729.406 1324.37 728.641 1324.37C725.797 1324.37 723.867 1325.58 722.852 1328V1346H718.516V1320.64H722.734L722.805 1323.57C724.227 1321.3 726.242 1320.17 728.852 1320.17C729.695 1320.17 730.336 1320.28 730.773 1320.5V1324.53ZM741.836 1314.5V1320.64H746.57V1323.99H741.836V1339.72C741.836 1340.73 742.047 1341.5 742.469 1342.02C742.891 1342.52 743.609 1342.77 744.625 1342.77C745.125 1342.77 745.812 1342.67 746.688 1342.48V1346C745.547 1346.31 744.438 1346.47 743.359 1346.47C741.422 1346.47 739.961 1345.88 738.977 1344.71C737.992 1343.54 737.5 1341.88 737.5 1339.72V1323.99H732.883V1320.64H737.5V1314.5H741.836ZM762.18 1346.47C758.742 1346.47 755.945 1345.34 753.789 1343.09C751.633 1340.83 750.555 1337.8 750.555 1334.02V1333.23C750.555 1330.71 751.031 1328.47 751.984 1326.5C752.953 1324.52 754.297 1322.97 756.016 1321.86C757.75 1320.73 759.625 1320.17 761.641 1320.17C764.938 1320.17 767.5 1321.26 769.328 1323.43C771.156 1325.6 772.07 1328.71 772.07 1332.76V1334.56H754.891C754.953 1337.06 755.68 1339.09 757.07 1340.63C758.477 1342.16 760.258 1342.93 762.414 1342.93C763.945 1342.93 765.242 1342.62 766.305 1341.99C767.367 1341.37 768.297 1340.54 769.094 1339.51L771.742 1341.57C769.617 1344.84 766.43 1346.47 762.18 1346.47ZM761.641 1323.73C759.891 1323.73 758.422 1324.38 757.234 1325.66C756.047 1326.92 755.312 1328.7 755.031 1331H767.734V1330.67C767.609 1328.47 767.016 1326.77 765.953 1325.56C764.891 1324.34 763.453 1323.73 761.641 1323.73ZM776.055 1333.11C776.055 1329.22 776.977 1326.09 778.82 1323.73C780.664 1321.36 783.078 1320.17 786.062 1320.17C789.031 1320.17 791.383 1321.19 793.117 1323.22V1310H797.453V1346H793.469L793.258 1343.28C791.523 1345.41 789.109 1346.47 786.016 1346.47C783.078 1346.47 780.68 1345.27 778.82 1342.86C776.977 1340.45 776.055 1337.31 776.055 1333.44V1333.11ZM780.391 1333.6C780.391 1336.48 780.984 1338.73 782.172 1340.35C783.359 1341.98 785 1342.79 787.094 1342.79C789.844 1342.79 791.852 1341.55 793.117 1339.09V1327.44C791.82 1325.05 789.828 1323.85 787.141 1323.85C785.016 1323.85 783.359 1324.67 782.172 1326.31C780.984 1327.95 780.391 1330.38 780.391 1333.6Z" fill="white"/>
<rect x="635" y="1018" width="356" height="81" rx="33" fill="#76BC21"/>
<path d="M757.508 1037.88L768.664 1065.72L779.82 1037.88H785.656V1072H781.156V1058.71L781.578 1044.37L770.375 1072H766.93L755.75 1044.44L756.195 1058.71V1072H751.695V1037.88H757.508ZM791.773 1059.09C791.773 1056.6 792.258 1054.37 793.227 1052.38C794.211 1050.4 795.57 1048.87 797.305 1047.79C799.055 1046.71 801.047 1046.17 803.281 1046.17C806.734 1046.17 809.523 1047.37 811.648 1049.76C813.789 1052.15 814.859 1055.33 814.859 1059.3V1059.6C814.859 1062.07 814.383 1064.29 813.43 1066.26C812.492 1068.21 811.141 1069.73 809.375 1070.83C807.625 1071.92 805.609 1072.47 803.328 1072.47C799.891 1072.47 797.102 1071.27 794.961 1068.88C792.836 1066.49 791.773 1063.33 791.773 1059.39V1059.09ZM796.133 1059.6C796.133 1062.41 796.781 1064.67 798.078 1066.38C799.391 1068.08 801.141 1068.93 803.328 1068.93C805.531 1068.93 807.281 1068.07 808.578 1066.35C809.875 1064.62 810.523 1062.2 810.523 1059.09C810.523 1056.3 809.859 1054.05 808.531 1052.34C807.219 1050.6 805.469 1049.73 803.281 1049.73C801.141 1049.73 799.414 1050.59 798.102 1052.29C796.789 1053.99 796.133 1056.43 796.133 1059.6ZM832.555 1050.53C831.898 1050.42 831.188 1050.37 830.422 1050.37C827.578 1050.37 825.648 1051.58 824.633 1054V1072H820.297V1046.64H824.516L824.586 1049.57C826.008 1047.3 828.023 1046.17 830.633 1046.17C831.477 1046.17 832.117 1046.28 832.555 1046.5V1050.53ZM846.617 1072.47C843.18 1072.47 840.383 1071.34 838.227 1069.09C836.07 1066.83 834.992 1063.8 834.992 1060.02V1059.23C834.992 1056.71 835.469 1054.47 836.422 1052.5C837.391 1050.52 838.734 1048.97 840.453 1047.86C842.188 1046.73 844.062 1046.17 846.078 1046.17C849.375 1046.17 851.938 1047.26 853.766 1049.43C855.594 1051.6 856.508 1054.71 856.508 1058.76V1060.56H839.328C839.391 1063.06 840.117 1065.09 841.508 1066.63C842.914 1068.16 844.695 1068.93 846.852 1068.93C848.383 1068.93 849.68 1068.62 850.742 1067.99C851.805 1067.37 852.734 1066.54 853.531 1065.51L856.18 1067.57C854.055 1070.84 850.867 1072.47 846.617 1072.47ZM846.078 1049.73C844.328 1049.73 842.859 1050.38 841.672 1051.66C840.484 1052.92 839.75 1054.7 839.469 1057H852.172V1056.67C852.047 1054.47 851.453 1052.77 850.391 1051.56C849.328 1050.34 847.891 1049.73 846.078 1049.73Z" fill="white"/>
<defs>
<filter id="filter0_d_0_1" x="3" y="0" width="1060" height="623" filterUnits="userSpaceOnUse" color-interpolation-filters="sRGB">
<feFlood flood-opacity="0" result="BackgroundImageFix"/>
<feColorMatrix in="SourceAlpha" type="matrix" values="0 0 0 0 0 0 0 0 0 0 0 0 0 0 0 0 0 0 127 0" result="hardAlpha"/>
<feOffset dy="4"/>
<feGaussianBlur stdDeviation="2"/>
<feComposite in2="hardAlpha" operator="out"/>
<feColorMatrix type="matrix" values="0 0 0 0 0 0 0 0 0 0 0 0 0 0 0 0 0 0 0.25 0"/>
<feBlend mode="normal" in2="BackgroundImageFix" result="effect1_dropShadow_0_1"/>
<feBlend mode="normal" in="SourceGraphic" in2="effect1_dropShadow_0_1" result="shape"/>
</filter>
</defs>
</svg>
