<svg width="997" height="1336" viewBox="0 0 997 1336" fill="none" xmlns="http://www.w3.org/2000/svg">
<g filter="url(#filter0_d_0_1)">
<rect x="4.25537" y="0.0952148" width="987.94" height="104.415" rx="26" fill="#07575F"/>
</g>
<path d="M55.5943 56.8491C50.4485 55.37 46.6985 53.5575 44.3443 51.4116C42.011 49.245 40.8443 46.5783 40.8443 43.4116C40.8443 39.8283 42.2714 36.87 45.1255 34.5366C48.0005 32.1825 51.7297 31.0054 56.313 31.0054C59.438 31.0054 62.2193 31.6095 64.6568 32.8179C67.1151 34.0262 69.011 35.6929 70.3443 37.8179C71.6985 39.9429 72.3755 42.2658 72.3755 44.7866H66.3443C66.3443 42.0366 65.4693 39.8804 63.7193 38.3179C61.9693 36.7345 59.5005 35.9429 56.313 35.9429C53.3547 35.9429 51.0422 36.5991 49.3755 37.9116C47.7297 39.2033 46.9068 41.0054 46.9068 43.3179C46.9068 45.172 47.688 46.745 49.2505 48.0366C50.8339 49.3075 53.511 50.4741 57.2818 51.5366C61.0735 52.5991 64.0318 53.7762 66.1568 55.0679C68.3026 56.3387 69.886 57.8283 70.9068 59.5366C71.9485 61.245 72.4693 63.2554 72.4693 65.5679C72.4693 69.2554 71.0318 72.2137 68.1568 74.4429C65.2818 76.6512 61.438 77.7554 56.6255 77.7554C53.5005 77.7554 50.5839 77.1616 47.8755 75.9741C45.1672 74.7658 43.0735 73.12 41.5943 71.0366C40.136 68.9533 39.4068 66.5887 39.4068 63.9429H45.438C45.438 66.6929 46.4485 68.87 48.4693 70.4741C50.511 72.0575 53.2297 72.8491 56.6255 72.8491C59.7922 72.8491 62.2193 72.2033 63.9068 70.9116C65.5943 69.62 66.438 67.8595 66.438 65.6304C66.438 63.4012 65.6568 61.6825 64.0943 60.4741C62.5318 59.245 59.6985 58.0366 55.5943 56.8491ZM107.844 60.5991C107.844 65.745 106.667 69.8908 104.313 73.0366C101.959 76.1825 98.7714 77.7554 94.7505 77.7554C90.6464 77.7554 87.4172 76.4533 85.063 73.8491V90.1304H79.2818V43.3179H84.563L84.8443 47.0679C87.1985 44.1512 90.4693 42.6929 94.6568 42.6929C98.7193 42.6929 101.928 44.2241 104.282 47.2866C106.657 50.3491 107.844 54.6095 107.844 60.0679V60.5991ZM102.063 59.9429C102.063 56.1304 101.251 53.12 99.6255 50.9116C98.0005 48.7033 95.7714 47.5991 92.938 47.5991C89.438 47.5991 86.813 49.1512 85.063 52.2554V68.4116C86.7922 71.495 89.438 73.0366 93.0005 73.0366C95.7714 73.0366 97.9693 71.9429 99.5943 69.7554C101.24 67.547 102.063 64.2762 102.063 59.9429ZM129.251 77.7554C124.667 77.7554 120.938 76.2554 118.063 73.2554C115.188 70.2345 113.751 66.2033 113.751 61.1616V60.0991C113.751 56.745 114.386 53.7554 115.657 51.1304C116.948 48.4845 118.74 46.422 121.032 44.9429C123.344 43.4429 125.844 42.6929 128.532 42.6929C132.928 42.6929 136.344 44.1408 138.782 47.0366C141.219 49.9325 142.438 54.0783 142.438 59.4741V61.8804H119.532C119.615 65.2137 120.584 67.9116 122.438 69.9741C124.313 72.0158 126.688 73.0366 129.563 73.0366C131.605 73.0366 133.334 72.62 134.751 71.7866C136.167 70.9533 137.407 69.8491 138.469 68.4741L142.001 71.2241C139.167 75.5783 134.917 77.7554 129.251 77.7554ZM128.532 47.4429C126.198 47.4429 124.24 48.297 122.657 50.0054C121.073 51.6929 120.094 54.0679 119.719 57.1304H136.657V56.6929C136.49 53.7554 135.698 51.4845 134.282 49.8804C132.865 48.2554 130.948 47.4429 128.532 47.4429ZM154.626 43.3179L154.813 47.5679C157.396 44.3179 160.771 42.6929 164.938 42.6929C172.084 42.6929 175.688 46.7241 175.751 54.7866V77.1304H169.969V54.7554C169.948 52.3179 169.386 50.5158 168.282 49.3491C167.198 48.1825 165.501 47.5991 163.188 47.5991C161.313 47.5991 159.667 48.0991 158.251 49.0991C156.834 50.0991 155.73 51.4116 154.938 53.0366V77.1304H149.157V43.3179H154.626ZM183.063 59.9429C183.063 54.7554 184.292 50.5887 186.751 47.4429C189.209 44.2762 192.428 42.6929 196.407 42.6929C200.365 42.6929 203.501 44.047 205.813 46.7554V29.1304H211.594V77.1304H206.282L206.001 73.5054C203.688 76.3387 200.469 77.7554 196.344 77.7554C192.428 77.7554 189.23 76.1512 186.751 72.9429C184.292 69.7345 183.063 65.547 183.063 60.3804V59.9429ZM188.844 60.5991C188.844 64.4325 189.636 67.4325 191.219 69.5991C192.803 71.7658 194.99 72.8491 197.782 72.8491C201.448 72.8491 204.126 71.2033 205.813 67.9116V52.3804C204.084 49.1929 201.428 47.5991 197.844 47.5991C195.011 47.5991 192.803 48.6929 191.219 50.8804C189.636 53.0679 188.844 56.3075 188.844 60.5991ZM226.876 77.1304H221.094V43.3179H226.876V77.1304ZM220.626 34.3491C220.626 33.4116 220.907 32.62 221.469 31.9741C222.053 31.3283 222.907 31.0054 224.032 31.0054C225.157 31.0054 226.011 31.3283 226.594 31.9741C227.178 32.62 227.469 33.4116 227.469 34.3491C227.469 35.2866 227.178 36.0679 226.594 36.6929C226.011 37.3179 225.157 37.6304 224.032 37.6304C222.907 37.6304 222.053 37.3179 221.469 36.6929C220.907 36.0679 220.626 35.2866 220.626 34.3491ZM241.626 43.3179L241.813 47.5679C244.396 44.3179 247.771 42.6929 251.938 42.6929C259.084 42.6929 262.688 46.7241 262.751 54.7866V77.1304H256.969V54.7554C256.948 52.3179 256.386 50.5158 255.282 49.3491C254.198 48.1825 252.501 47.5991 250.188 47.5991C248.313 47.5991 246.667 48.0991 245.251 49.0991C243.834 50.0991 242.73 51.4116 241.938 53.0366V77.1304H236.157V43.3179H241.626ZM270.094 59.9429C270.094 54.672 271.313 50.4845 273.751 47.3804C276.188 44.2554 279.417 42.6929 283.438 42.6929C287.563 42.6929 290.782 44.1512 293.094 47.0679L293.376 43.3179H298.657V76.3179C298.657 80.6929 297.355 84.1408 294.751 86.6616C292.167 89.1825 288.688 90.4429 284.313 90.4429C281.876 90.4429 279.49 89.922 277.157 88.8804C274.823 87.8387 273.042 86.4116 271.813 84.5991L274.813 81.1304C277.292 84.1929 280.323 85.7241 283.907 85.7241C286.719 85.7241 288.907 84.9325 290.469 83.3491C292.053 81.7658 292.844 79.5366 292.844 76.6616V73.7554C290.532 76.422 287.376 77.7554 283.376 77.7554C279.417 77.7554 276.209 76.1616 273.751 72.9741C271.313 69.7866 270.094 65.4429 270.094 59.9429ZM275.907 60.5991C275.907 64.4116 276.688 67.4116 278.251 69.5991C279.813 71.7658 282.001 72.8491 284.813 72.8491C288.459 72.8491 291.136 71.1929 292.844 67.8804V52.4429C291.073 49.2137 288.417 47.5991 284.876 47.5991C282.063 47.5991 279.865 48.6929 278.282 50.8804C276.698 53.0679 275.907 56.3075 275.907 60.5991ZM327.094 68.1616C327.094 66.5991 326.501 65.3908 325.313 64.5366C324.146 63.6616 322.094 62.9116 319.157 62.2866C316.24 61.6616 313.917 60.9116 312.188 60.0366C310.48 59.1616 309.209 58.12 308.376 56.9116C307.563 55.7033 307.157 54.2658 307.157 52.5991C307.157 49.8283 308.323 47.4845 310.657 45.5679C313.011 43.6512 316.011 42.6929 319.657 42.6929C323.49 42.6929 326.594 43.6825 328.969 45.6616C331.365 47.6408 332.563 50.172 332.563 53.2554H326.751C326.751 51.672 326.073 50.3075 324.719 49.1616C323.386 48.0158 321.698 47.4429 319.657 47.4429C317.553 47.4429 315.907 47.9012 314.719 48.8179C313.532 49.7345 312.938 50.9325 312.938 52.4116C312.938 53.8075 313.49 54.8595 314.594 55.5679C315.698 56.2762 317.688 56.9533 320.563 57.5991C323.459 58.245 325.803 59.0158 327.594 59.9116C329.386 60.8075 330.709 61.8908 331.563 63.1616C332.438 64.4116 332.876 65.9429 332.876 67.7554C332.876 70.7762 331.667 73.2033 329.251 75.0366C326.834 76.8491 323.698 77.7554 319.844 77.7554C317.136 77.7554 314.74 77.2762 312.657 76.3179C310.573 75.3595 308.938 74.0262 307.751 72.3179C306.584 70.5887 306.001 68.7241 306.001 66.7241H311.782C311.886 68.6616 312.657 70.2033 314.094 71.3491C315.553 72.4741 317.469 73.0366 319.844 73.0366C322.032 73.0366 323.782 72.5991 325.094 71.7241C326.428 70.8283 327.094 69.6408 327.094 68.1616Z" fill="white"/>
<rect x="7.98694" y="822.123" width="987.94" height="513.53" rx="44" fill="#C4C4C4" fill-opacity="0.2"/>
<rect x="38.7726" y="864.837" width="88.6254" height="90.1762" rx="15" fill="#F09643"/>
<rect x="38.7726" y="1039.49" width="88.6254" height="90.1762" rx="15" fill="#39B3CB"/>
<rect x="38.7726" y="1208.46" width="88.6254" height="90.1762" rx="15" fill="#4CE5FE"/>
<rect x="493.094" y="864.837" width="88.6254" height="90.1762" rx="15" fill="#FDCC03"/>
<rect x="493.094" y="1040.44" width="88.6254" height="90.1762" rx="15" fill="#945EF8"/>
<rect x="499.625" y="1208.46" width="88.6254" height="90.1762" rx="15" fill="#F596F1"/>
<path d="M173.664 904.091V869.966H184.821C188.524 869.966 191.305 870.732 193.164 872.263C195.039 873.794 195.977 876.06 195.977 879.06C195.977 880.654 195.524 882.068 194.617 883.302C193.711 884.521 192.477 885.466 190.914 886.138C192.758 886.654 194.211 887.638 195.274 889.091C196.352 890.529 196.891 892.248 196.891 894.248C196.891 897.31 195.899 899.716 193.914 901.466C191.93 903.216 189.125 904.091 185.5 904.091H173.664ZM178.164 888.13V900.412H185.594C187.688 900.412 189.336 899.873 190.539 898.794C191.758 897.701 192.367 896.201 192.367 894.294C192.367 890.185 190.133 888.13 185.664 888.13H178.164ZM178.164 884.521H184.961C186.93 884.521 188.5 884.029 189.672 883.044C190.86 882.06 191.453 880.724 191.453 879.037C191.453 877.162 190.906 875.802 189.813 874.958C188.719 874.099 187.055 873.669 184.821 873.669H178.164V884.521ZM207.602 904.091H203.266V878.732H207.602V904.091ZM202.914 872.005C202.914 871.302 203.125 870.708 203.547 870.224C203.985 869.74 204.625 869.498 205.469 869.498C206.313 869.498 206.953 869.74 207.391 870.224C207.828 870.708 208.047 871.302 208.047 872.005C208.047 872.708 207.828 873.294 207.391 873.763C206.953 874.232 206.313 874.466 205.469 874.466C204.625 874.466 203.985 874.232 203.547 873.763C203.125 873.294 202.914 872.708 202.914 872.005ZM219.274 904.091H214.938V868.091H219.274V904.091ZM230.946 904.091H226.61V868.091H230.946V904.091ZM252.672 897.365C252.672 896.193 252.227 895.287 251.336 894.646C250.461 893.99 248.922 893.427 246.719 892.958C244.531 892.49 242.789 891.927 241.492 891.271C240.211 890.615 239.258 889.833 238.633 888.927C238.024 888.021 237.719 886.943 237.719 885.693C237.719 883.615 238.594 881.857 240.344 880.419C242.11 878.982 244.36 878.263 247.094 878.263C249.969 878.263 252.297 879.005 254.078 880.49C255.875 881.974 256.774 883.873 256.774 886.185H252.414C252.414 884.998 251.906 883.974 250.891 883.115C249.891 882.255 248.625 881.826 247.094 881.826C245.516 881.826 244.281 882.169 243.391 882.857C242.5 883.544 242.055 884.443 242.055 885.552C242.055 886.599 242.469 887.388 243.297 887.919C244.125 888.451 245.617 888.958 247.774 889.443C249.946 889.927 251.703 890.505 253.047 891.177C254.391 891.849 255.383 892.662 256.024 893.615C256.68 894.552 257.008 895.701 257.008 897.06C257.008 899.326 256.102 901.146 254.289 902.521C252.477 903.88 250.125 904.56 247.235 904.56C245.203 904.56 243.406 904.201 241.844 903.482C240.281 902.763 239.055 901.763 238.164 900.482C237.289 899.185 236.852 897.787 236.852 896.287H241.188C241.266 897.74 241.844 898.896 242.922 899.755C244.016 900.599 245.453 901.021 247.235 901.021C248.875 901.021 250.188 900.693 251.172 900.037C252.172 899.365 252.672 898.474 252.672 897.365ZM290.219 904.091C289.969 903.591 289.766 902.701 289.61 901.419C287.594 903.513 285.188 904.56 282.391 904.56C279.891 904.56 277.836 903.857 276.227 902.451C274.633 901.029 273.836 899.232 273.836 897.06C273.836 894.419 274.836 892.373 276.836 890.919C278.852 889.451 281.68 888.716 285.321 888.716H289.539V886.724C289.539 885.208 289.086 884.005 288.18 883.115C287.274 882.208 285.938 881.755 284.172 881.755C282.625 881.755 281.328 882.146 280.281 882.927C279.235 883.708 278.711 884.654 278.711 885.763H274.352C274.352 884.498 274.797 883.279 275.688 882.107C276.594 880.919 277.813 879.982 279.344 879.294C280.891 878.607 282.586 878.263 284.43 878.263C287.352 878.263 289.641 878.998 291.297 880.466C292.953 881.919 293.813 883.927 293.875 886.49V898.162C293.875 900.49 294.172 902.341 294.766 903.716V904.091H290.219ZM283.024 900.787C284.383 900.787 285.672 900.435 286.891 899.732C288.11 899.029 288.992 898.115 289.539 896.99V891.787H286.141C280.828 891.787 278.172 893.341 278.172 896.451C278.172 897.81 278.625 898.873 279.531 899.638C280.438 900.404 281.602 900.787 283.024 900.787ZM304.774 878.732L304.914 881.919C306.852 879.482 309.383 878.263 312.508 878.263C317.867 878.263 320.571 881.287 320.617 887.333V904.091H316.281V887.31C316.266 885.482 315.844 884.13 315.016 883.255C314.203 882.38 312.93 881.943 311.196 881.943C309.789 881.943 308.555 882.318 307.492 883.068C306.43 883.818 305.602 884.802 305.008 886.021V904.091H300.672V878.732H304.774ZM326.102 891.201C326.102 887.31 327.024 884.185 328.867 881.826C330.711 879.451 333.125 878.263 336.11 878.263C339.078 878.263 341.43 879.279 343.164 881.31V868.091H347.5V904.091H343.516L343.305 901.373C341.571 903.498 339.156 904.56 336.063 904.56C333.125 904.56 330.727 903.357 328.867 900.951C327.024 898.544 326.102 895.404 326.102 891.529V891.201ZM330.438 891.693C330.438 894.568 331.031 896.818 332.219 898.443C333.406 900.068 335.047 900.88 337.141 900.88C339.891 900.88 341.899 899.646 343.164 897.177V885.529C341.867 883.138 339.875 881.943 337.188 881.943C335.063 881.943 333.406 882.763 332.219 884.404C331.031 886.044 330.438 888.474 330.438 891.693ZM183.906 944.88C180.047 943.771 177.235 942.412 175.469 940.802C173.719 939.177 172.844 937.177 172.844 934.802C172.844 932.115 173.914 929.896 176.055 928.146C178.211 926.38 181.008 925.498 184.446 925.498C186.789 925.498 188.875 925.951 190.703 926.857C192.547 927.763 193.969 929.013 194.969 930.607C195.985 932.201 196.492 933.943 196.492 935.833H191.969C191.969 933.771 191.313 932.154 190 930.982C188.688 929.794 186.836 929.201 184.446 929.201C182.227 929.201 180.492 929.693 179.242 930.677C178.008 931.646 177.391 932.998 177.391 934.732C177.391 936.123 177.977 937.302 179.149 938.271C180.336 939.224 182.344 940.099 185.172 940.896C188.016 941.693 190.235 942.576 191.828 943.544C193.438 944.498 194.625 945.615 195.391 946.896C196.172 948.177 196.563 949.685 196.563 951.419C196.563 954.185 195.485 956.404 193.328 958.076C191.172 959.732 188.289 960.56 184.68 960.56C182.336 960.56 180.149 960.115 178.117 959.224C176.086 958.318 174.516 957.083 173.406 955.521C172.313 953.958 171.766 952.185 171.766 950.201H176.289C176.289 952.263 177.047 953.896 178.563 955.099C180.094 956.287 182.133 956.88 184.68 956.88C187.055 956.88 188.875 956.396 190.141 955.427C191.406 954.458 192.039 953.138 192.039 951.466C192.039 949.794 191.453 948.505 190.281 947.599C189.11 946.677 186.985 945.771 183.906 944.88ZM212.196 960.56C208.758 960.56 205.961 959.435 203.805 957.185C201.649 954.919 200.571 951.896 200.571 948.115V947.318C200.571 944.802 201.047 942.56 202 940.591C202.969 938.607 204.313 937.06 206.031 935.951C207.766 934.826 209.641 934.263 211.656 934.263C214.953 934.263 217.516 935.349 219.344 937.521C221.172 939.693 222.086 942.802 222.086 946.849V948.654H204.906C204.969 951.154 205.696 953.177 207.086 954.724C208.492 956.255 210.274 957.021 212.43 957.021C213.961 957.021 215.258 956.708 216.321 956.083C217.383 955.458 218.313 954.63 219.11 953.599L221.758 955.662C219.633 958.927 216.446 960.56 212.196 960.56ZM211.656 937.826C209.906 937.826 208.438 938.466 207.25 939.748C206.063 941.013 205.328 942.794 205.047 945.091H217.75V944.763C217.625 942.56 217.031 940.857 215.969 939.654C214.906 938.435 213.469 937.826 211.656 937.826ZM239.383 938.623C238.727 938.513 238.016 938.458 237.25 938.458C234.406 938.458 232.477 939.669 231.461 942.091V960.091H227.125V934.732H231.344L231.414 937.662C232.836 935.396 234.852 934.263 237.461 934.263C238.305 934.263 238.946 934.373 239.383 934.591V938.623ZM252.18 954.208L258.461 934.732H262.891L253.797 960.091H250.492L241.305 934.732H245.735L252.18 954.208ZM271.774 960.091H267.438V934.732H271.774V960.091ZM267.086 928.005C267.086 927.302 267.297 926.708 267.719 926.224C268.156 925.74 268.797 925.498 269.641 925.498C270.485 925.498 271.125 925.74 271.563 926.224C272 926.708 272.219 927.302 272.219 928.005C272.219 928.708 272 929.294 271.563 929.763C271.125 930.232 270.485 930.466 269.641 930.466C268.797 930.466 268.156 930.232 267.719 929.763C267.297 929.294 267.086 928.708 267.086 928.005ZM288.906 957.021C290.453 957.021 291.805 956.552 292.961 955.615C294.117 954.677 294.758 953.505 294.883 952.099H298.985C298.906 953.552 298.406 954.935 297.485 956.248C296.563 957.56 295.328 958.607 293.781 959.388C292.25 960.169 290.625 960.56 288.906 960.56C285.453 960.56 282.703 959.412 280.656 957.115C278.625 954.802 277.61 951.646 277.61 947.646V946.919C277.61 944.451 278.063 942.255 278.969 940.333C279.875 938.412 281.172 936.919 282.86 935.857C284.563 934.794 286.571 934.263 288.883 934.263C291.727 934.263 294.086 935.115 295.961 936.818C297.852 938.521 298.86 940.732 298.985 943.451H294.883C294.758 941.81 294.133 940.466 293.008 939.419C291.899 938.357 290.524 937.826 288.883 937.826C286.68 937.826 284.969 938.623 283.75 940.216C282.547 941.794 281.946 944.083 281.946 947.083V947.904C281.946 950.826 282.547 953.076 283.75 954.654C284.953 956.232 286.672 957.021 288.906 957.021ZM314.383 960.56C310.946 960.56 308.149 959.435 305.992 957.185C303.836 954.919 302.758 951.896 302.758 948.115V947.318C302.758 944.802 303.235 942.56 304.188 940.591C305.156 938.607 306.5 937.06 308.219 935.951C309.953 934.826 311.828 934.263 313.844 934.263C317.141 934.263 319.703 935.349 321.531 937.521C323.36 939.693 324.274 942.802 324.274 946.849V948.654H307.094C307.156 951.154 307.883 953.177 309.274 954.724C310.68 956.255 312.461 957.021 314.617 957.021C316.149 957.021 317.446 956.708 318.508 956.083C319.571 955.458 320.5 954.63 321.297 953.599L323.946 955.662C321.821 958.927 318.633 960.56 314.383 960.56ZM313.844 937.826C312.094 937.826 310.625 938.466 309.438 939.748C308.25 941.013 307.516 942.794 307.235 945.091H319.938V944.763C319.813 942.56 319.219 940.857 318.156 939.654C317.094 938.435 315.656 937.826 313.844 937.826ZM344.078 953.365C344.078 952.193 343.633 951.287 342.742 950.646C341.867 949.99 340.328 949.427 338.125 948.958C335.938 948.49 334.196 947.927 332.899 947.271C331.617 946.615 330.664 945.833 330.039 944.927C329.43 944.021 329.125 942.943 329.125 941.693C329.125 939.615 330 937.857 331.75 936.419C333.516 934.982 335.766 934.263 338.5 934.263C341.375 934.263 343.703 935.005 345.485 936.49C347.281 937.974 348.18 939.873 348.18 942.185H343.821C343.821 940.998 343.313 939.974 342.297 939.115C341.297 938.255 340.031 937.826 338.5 937.826C336.922 937.826 335.688 938.169 334.797 938.857C333.906 939.544 333.461 940.443 333.461 941.552C333.461 942.599 333.875 943.388 334.703 943.919C335.531 944.451 337.024 944.958 339.18 945.443C341.352 945.927 343.11 946.505 344.453 947.177C345.797 947.849 346.789 948.662 347.43 949.615C348.086 950.552 348.414 951.701 348.414 953.06C348.414 955.326 347.508 957.146 345.696 958.521C343.883 959.88 341.531 960.56 338.641 960.56C336.61 960.56 334.813 960.201 333.25 959.482C331.688 958.763 330.461 957.763 329.571 956.482C328.696 955.185 328.258 953.787 328.258 952.287H332.594C332.672 953.74 333.25 954.896 334.328 955.755C335.422 956.599 336.86 957.021 338.641 957.021C340.281 957.021 341.594 956.693 342.578 956.037C343.578 955.365 344.078 954.474 344.078 953.365Z" fill="black"/>
<path d="M633.14 910.712C629.281 909.603 626.469 908.244 624.703 906.634C622.953 905.009 622.078 903.009 622.078 900.634C622.078 897.947 623.148 895.728 625.289 893.978C627.445 892.212 630.242 891.33 633.68 891.33C636.023 891.33 638.109 891.783 639.937 892.689C641.781 893.595 643.203 894.845 644.203 896.439C645.219 898.033 645.726 899.775 645.726 901.666H641.203C641.203 899.603 640.547 897.986 639.234 896.814C637.922 895.626 636.07 895.033 633.68 895.033C631.461 895.033 629.726 895.525 628.476 896.509C627.242 897.478 626.625 898.83 626.625 900.564C626.625 901.955 627.211 903.134 628.383 904.103C629.57 905.056 631.578 905.931 634.406 906.728C637.25 907.525 639.469 908.408 641.062 909.376C642.672 910.33 643.859 911.447 644.625 912.728C645.406 914.009 645.797 915.517 645.797 917.251C645.797 920.017 644.719 922.236 642.562 923.908C640.406 925.564 637.523 926.392 633.914 926.392C631.57 926.392 629.383 925.947 627.351 925.056C625.32 924.15 623.75 922.916 622.64 921.353C621.547 919.791 621 918.017 621 916.033H625.523C625.523 918.095 626.281 919.728 627.797 920.931C629.328 922.119 631.367 922.712 633.914 922.712C636.289 922.712 638.109 922.228 639.375 921.259C640.64 920.291 641.273 918.97 641.273 917.298C641.273 915.626 640.687 914.337 639.515 913.431C638.344 912.509 636.219 911.603 633.14 910.712ZM655.242 903.634C657.164 901.275 659.664 900.095 662.742 900.095C668.101 900.095 670.805 903.119 670.851 909.166V925.923H666.515V909.142C666.5 907.314 666.078 905.962 665.25 905.087C664.437 904.212 663.164 903.775 661.43 903.775C660.023 903.775 658.789 904.15 657.726 904.9C656.664 905.65 655.836 906.634 655.242 907.853V925.923H650.906V889.923H655.242V903.634ZM676.195 913.009C676.195 910.525 676.68 908.291 677.648 906.306C678.633 904.322 679.992 902.791 681.726 901.712C683.476 900.634 685.469 900.095 687.703 900.095C691.156 900.095 693.945 901.291 696.07 903.681C698.211 906.072 699.281 909.251 699.281 913.22V913.525C699.281 915.994 698.805 918.212 697.851 920.181C696.914 922.134 695.562 923.658 693.797 924.751C692.047 925.845 690.031 926.392 687.75 926.392C684.312 926.392 681.523 925.197 679.383 922.806C677.258 920.416 676.195 917.251 676.195 913.314V913.009ZM680.555 913.525C680.555 916.337 681.203 918.595 682.5 920.298C683.812 922.001 685.562 922.853 687.75 922.853C689.953 922.853 691.703 921.994 693 920.275C694.297 918.541 694.945 916.119 694.945 913.009C694.945 910.228 694.281 907.978 692.953 906.259C691.64 904.525 689.89 903.658 687.703 903.658C685.562 903.658 683.836 904.509 682.523 906.212C681.211 907.916 680.555 910.353 680.555 913.525ZM726.14 913.525C726.14 917.384 725.258 920.494 723.492 922.853C721.726 925.212 719.336 926.392 716.32 926.392C713.242 926.392 710.82 925.416 709.055 923.462V935.673H704.719V900.564H708.68L708.89 903.376C710.656 901.189 713.109 900.095 716.25 900.095C719.297 900.095 721.703 901.244 723.469 903.541C725.25 905.837 726.14 909.033 726.14 913.126V913.525ZM721.805 913.033C721.805 910.173 721.195 907.916 719.976 906.259C718.758 904.603 717.086 903.775 714.961 903.775C712.336 903.775 710.367 904.939 709.055 907.267V919.384C710.351 921.697 712.336 922.853 715.008 922.853C717.086 922.853 718.734 922.033 719.953 920.392C721.187 918.736 721.805 916.283 721.805 913.033ZM753.094 913.525C753.094 917.384 752.211 920.494 750.445 922.853C748.68 925.212 746.289 926.392 743.273 926.392C740.195 926.392 737.773 925.416 736.008 923.462V935.673H731.672V900.564H735.633L735.844 903.376C737.609 901.189 740.062 900.095 743.203 900.095C746.25 900.095 748.656 901.244 750.422 903.541C752.203 905.837 753.094 909.033 753.094 913.126V913.525ZM748.758 913.033C748.758 910.173 748.148 907.916 746.93 906.259C745.711 904.603 744.039 903.775 741.914 903.775C739.289 903.775 737.32 904.939 736.008 907.267V919.384C737.305 921.697 739.289 922.853 741.961 922.853C744.039 922.853 745.687 922.033 746.906 920.392C748.14 918.736 748.758 916.283 748.758 913.033ZM763.336 925.923H759V900.564H763.336V925.923ZM758.648 893.837C758.648 893.134 758.859 892.541 759.281 892.056C759.719 891.572 760.359 891.33 761.203 891.33C762.047 891.33 762.687 891.572 763.125 892.056C763.562 892.541 763.781 893.134 763.781 893.837C763.781 894.541 763.562 895.126 763.125 895.595C762.687 896.064 762.047 896.298 761.203 896.298C760.359 896.298 759.719 896.064 759.281 895.595C758.859 895.126 758.648 894.541 758.648 893.837ZM774.398 900.564L774.539 903.751C776.476 901.314 779.008 900.095 782.133 900.095C787.492 900.095 790.195 903.119 790.242 909.166V925.923H785.906V909.142C785.89 907.314 785.469 905.962 784.64 905.087C783.828 904.212 782.555 903.775 780.82 903.775C779.414 903.775 778.18 904.15 777.117 904.9C776.055 905.65 775.226 906.634 774.633 907.853V925.923H770.297V900.564H774.398ZM795.75 913.033C795.75 909.08 796.664 905.939 798.492 903.611C800.32 901.267 802.742 900.095 805.758 900.095C808.851 900.095 811.265 901.189 813 903.376L813.211 900.564H817.172V925.314C817.172 928.595 816.195 931.181 814.242 933.072C812.305 934.962 809.695 935.908 806.414 935.908C804.586 935.908 802.797 935.517 801.047 934.736C799.297 933.955 797.961 932.884 797.039 931.525L799.289 928.923C801.148 931.22 803.422 932.369 806.109 932.369C808.219 932.369 809.859 931.775 811.031 930.587C812.219 929.4 812.812 927.728 812.812 925.572V923.392C811.078 925.392 808.711 926.392 805.711 926.392C802.742 926.392 800.336 925.197 798.492 922.806C796.664 920.416 795.75 917.158 795.75 913.033ZM800.109 913.525C800.109 916.384 800.695 918.634 801.867 920.275C803.039 921.9 804.68 922.712 806.789 922.712C809.523 922.712 811.531 921.47 812.812 918.986V907.408C811.484 904.986 809.492 903.775 806.836 903.775C804.726 903.775 803.078 904.595 801.89 906.236C800.703 907.876 800.109 910.306 800.109 913.525Z" fill="black"/>
<path d="M621.82 1084.37V1097.73H617.32V1063.61H629.906C633.64 1063.61 636.562 1064.56 638.672 1066.47C640.797 1068.37 641.859 1070.9 641.859 1074.04C641.859 1077.35 640.82 1079.9 638.742 1081.7C636.68 1083.48 633.719 1084.37 629.859 1084.37H621.82ZM621.82 1080.69H629.906C632.312 1080.69 634.156 1080.13 635.437 1079.01C636.719 1077.87 637.359 1076.23 637.359 1074.08C637.359 1072.05 636.719 1070.43 635.437 1069.21C634.156 1067.99 632.398 1067.36 630.164 1067.31H621.82V1080.69ZM651.258 1075.44C653.18 1073.08 655.68 1071.9 658.758 1071.9C664.117 1071.9 666.82 1074.93 666.867 1080.98V1097.73H662.531V1080.95C662.515 1079.12 662.094 1077.77 661.265 1076.9C660.453 1076.02 659.18 1075.58 657.445 1075.58C656.039 1075.58 654.805 1075.96 653.742 1076.71C652.68 1077.46 651.851 1078.44 651.258 1079.66V1097.73H646.922V1061.73H651.258V1075.44ZM672.211 1084.82C672.211 1082.33 672.695 1080.1 673.664 1078.12C674.648 1076.13 676.008 1074.6 677.742 1073.52C679.492 1072.44 681.484 1071.9 683.719 1071.9C687.172 1071.9 689.961 1073.1 692.086 1075.49C694.226 1077.88 695.297 1081.06 695.297 1085.03V1085.33C695.297 1087.8 694.82 1090.02 693.867 1091.99C692.93 1093.94 691.578 1095.47 689.812 1096.56C688.062 1097.65 686.047 1098.2 683.765 1098.2C680.328 1098.2 677.539 1097.01 675.398 1094.62C673.273 1092.23 672.211 1089.06 672.211 1085.12V1084.82ZM676.57 1085.33C676.57 1088.15 677.219 1090.4 678.515 1092.11C679.828 1093.81 681.578 1094.66 683.765 1094.66C685.969 1094.66 687.719 1093.8 689.015 1092.08C690.312 1090.35 690.961 1087.93 690.961 1084.82C690.961 1082.04 690.297 1079.79 688.969 1078.07C687.656 1076.33 685.906 1075.47 683.719 1075.47C681.578 1075.47 679.851 1076.32 678.539 1078.02C677.226 1079.73 676.57 1082.16 676.57 1085.33ZM704.836 1072.37L704.976 1075.56C706.914 1073.12 709.445 1071.9 712.57 1071.9C717.93 1071.9 720.633 1074.93 720.68 1080.98V1097.73H716.344V1080.95C716.328 1079.12 715.906 1077.77 715.078 1076.9C714.265 1076.02 712.992 1075.58 711.258 1075.58C709.851 1075.58 708.617 1075.96 707.555 1076.71C706.492 1077.46 705.664 1078.44 705.07 1079.66V1097.73H700.734V1072.37H704.836ZM737.742 1098.2C734.305 1098.2 731.508 1097.08 729.351 1094.83C727.195 1092.56 726.117 1089.54 726.117 1085.76V1084.96C726.117 1082.44 726.594 1080.2 727.547 1078.23C728.515 1076.25 729.859 1074.7 731.578 1073.59C733.312 1072.47 735.187 1071.9 737.203 1071.9C740.5 1071.9 743.062 1072.99 744.89 1075.16C746.719 1077.33 747.633 1080.44 747.633 1084.49V1086.3H730.453C730.515 1088.8 731.242 1090.82 732.633 1092.37C734.039 1093.9 735.82 1094.66 737.976 1094.66C739.508 1094.66 740.805 1094.35 741.867 1093.73C742.93 1093.1 743.859 1092.27 744.656 1091.24L747.305 1093.3C745.18 1096.57 741.992 1098.2 737.742 1098.2ZM737.203 1075.47C735.453 1075.47 733.984 1076.11 732.797 1077.39C731.609 1078.65 730.875 1080.44 730.594 1082.73H743.297V1082.4C743.172 1080.2 742.578 1078.5 741.515 1077.3C740.453 1076.08 739.015 1075.47 737.203 1075.47ZM765.258 1097.73V1063.61H776.414C780.117 1063.61 782.898 1064.37 784.758 1065.9C786.633 1067.44 787.57 1069.7 787.57 1072.7C787.57 1074.3 787.117 1075.71 786.211 1076.94C785.305 1078.16 784.07 1079.11 782.508 1079.78C784.351 1080.3 785.805 1081.28 786.867 1082.73C787.945 1084.17 788.484 1085.89 788.484 1087.89C788.484 1090.95 787.492 1093.36 785.508 1095.11C783.523 1096.86 780.719 1097.73 777.094 1097.73H765.258ZM769.758 1081.77V1094.05H777.187C779.281 1094.05 780.93 1093.51 782.133 1092.44C783.351 1091.34 783.961 1089.84 783.961 1087.94C783.961 1083.83 781.726 1081.77 777.258 1081.77H769.758ZM769.758 1078.16H776.555C778.523 1078.16 780.094 1077.67 781.265 1076.69C782.453 1075.7 783.047 1074.37 783.047 1072.68C783.047 1070.8 782.5 1069.44 781.406 1068.6C780.312 1067.74 778.648 1067.31 776.414 1067.31H769.758V1078.16ZM799.195 1097.73H794.859V1072.37H799.195V1097.73ZM794.508 1065.65C794.508 1064.94 794.719 1064.35 795.14 1063.87C795.578 1063.38 796.219 1063.14 797.062 1063.14C797.906 1063.14 798.547 1063.38 798.984 1063.87C799.422 1064.35 799.64 1064.94 799.64 1065.65C799.64 1066.35 799.422 1066.94 798.984 1067.4C798.547 1067.87 797.906 1068.11 797.062 1068.11C796.219 1068.11 795.578 1067.87 795.14 1067.4C794.719 1066.94 794.508 1066.35 794.508 1065.65ZM810.867 1097.73H806.531V1061.73H810.867V1097.73ZM822.539 1097.73H818.203V1061.73H822.539V1097.73Z" fill="black"/>
<path d="M646.64 1255.57C645.484 1257.23 643.867 1258.47 641.789 1259.3C639.726 1260.11 637.32 1260.52 634.57 1260.52C631.789 1260.52 629.32 1259.87 627.164 1258.57C625.008 1257.26 623.336 1255.4 622.148 1252.99C620.976 1250.59 620.375 1247.8 620.344 1244.63V1241.65C620.344 1236.51 621.539 1232.53 623.93 1229.7C626.336 1226.87 629.711 1225.46 634.055 1225.46C637.617 1225.46 640.484 1226.37 642.656 1228.2C644.828 1230.01 646.156 1232.59 646.64 1235.93H642.14C641.297 1231.42 638.609 1229.16 634.078 1229.16C631.062 1229.16 628.773 1230.22 627.211 1232.35C625.664 1234.46 624.883 1237.52 624.867 1241.53V1244.32C624.867 1248.15 625.742 1251.2 627.492 1253.46C629.242 1255.71 631.609 1256.84 634.594 1256.84C636.281 1256.84 637.758 1256.65 639.023 1256.28C640.289 1255.9 641.336 1255.27 642.164 1254.38V1246.71H634.265V1243.06H646.64V1255.57ZM665.742 1238.58C665.086 1238.47 664.375 1238.42 663.609 1238.42C660.765 1238.42 658.836 1239.63 657.82 1242.05V1260.05H653.484V1234.69H657.703L657.773 1237.62C659.195 1235.35 661.211 1234.22 663.82 1234.22C664.664 1234.22 665.305 1234.33 665.742 1234.55V1238.58ZM668.133 1247.14C668.133 1244.65 668.617 1242.42 669.586 1240.43C670.57 1238.45 671.93 1236.92 673.664 1235.84C675.414 1234.76 677.406 1234.22 679.64 1234.22C683.094 1234.22 685.883 1235.42 688.008 1237.81C690.148 1240.2 691.219 1243.38 691.219 1247.35V1247.65C691.219 1250.12 690.742 1252.34 689.789 1254.31C688.851 1256.26 687.5 1257.78 685.734 1258.88C683.984 1259.97 681.969 1260.52 679.687 1260.52C676.25 1260.52 673.461 1259.32 671.32 1256.93C669.195 1254.54 668.133 1251.38 668.133 1247.44V1247.14ZM672.492 1247.65C672.492 1250.46 673.14 1252.72 674.437 1254.42C675.75 1256.13 677.5 1256.98 679.687 1256.98C681.89 1256.98 683.64 1256.12 684.937 1254.4C686.234 1252.67 686.883 1250.24 686.883 1247.14C686.883 1244.35 686.219 1242.1 684.89 1240.39C683.578 1238.65 681.828 1237.78 679.64 1237.78C677.5 1237.78 675.773 1238.64 674.461 1240.34C673.148 1242.04 672.492 1244.48 672.492 1247.65ZM706.828 1256.98C708.375 1256.98 709.726 1256.51 710.883 1255.57C712.039 1254.64 712.68 1253.46 712.805 1252.06H716.906C716.828 1253.51 716.328 1254.89 715.406 1256.21C714.484 1257.52 713.25 1258.56 711.703 1259.35C710.172 1260.13 708.547 1260.52 706.828 1260.52C703.375 1260.52 700.625 1259.37 698.578 1257.07C696.547 1254.76 695.531 1251.6 695.531 1247.6V1246.88C695.531 1244.41 695.984 1242.21 696.89 1240.29C697.797 1238.37 699.094 1236.88 700.781 1235.81C702.484 1234.75 704.492 1234.22 706.805 1234.22C709.648 1234.22 712.008 1235.07 713.883 1236.78C715.773 1238.48 716.781 1240.69 716.906 1243.41H712.805C712.68 1241.77 712.055 1240.42 710.93 1239.38C709.82 1238.31 708.445 1237.78 706.805 1237.78C704.601 1237.78 702.89 1238.58 701.672 1240.17C700.469 1241.75 699.867 1244.04 699.867 1247.04V1247.86C699.867 1250.78 700.469 1253.03 701.672 1254.61C702.875 1256.19 704.594 1256.98 706.828 1256.98ZM732.305 1260.52C728.867 1260.52 726.07 1259.39 723.914 1257.14C721.758 1254.88 720.68 1251.85 720.68 1248.07V1247.28C720.68 1244.76 721.156 1242.52 722.109 1240.55C723.078 1238.56 724.422 1237.02 726.14 1235.91C727.875 1234.78 729.75 1234.22 731.765 1234.22C735.062 1234.22 737.625 1235.31 739.453 1237.48C741.281 1239.65 742.195 1242.76 742.195 1246.81V1248.61H725.015C725.078 1251.11 725.805 1253.14 727.195 1254.68C728.601 1256.21 730.383 1256.98 732.539 1256.98C734.07 1256.98 735.367 1256.67 736.43 1256.04C737.492 1255.42 738.422 1254.59 739.219 1253.56L741.867 1255.62C739.742 1258.89 736.555 1260.52 732.305 1260.52ZM731.765 1237.78C730.015 1237.78 728.547 1238.42 727.359 1239.71C726.172 1240.97 725.437 1242.75 725.156 1245.05H737.859V1244.72C737.734 1242.52 737.14 1240.81 736.078 1239.61C735.015 1238.39 733.578 1237.78 731.765 1237.78ZM759.492 1238.58C758.836 1238.47 758.125 1238.42 757.359 1238.42C754.515 1238.42 752.586 1239.63 751.57 1242.05V1260.05H747.234V1234.69H751.453L751.523 1237.62C752.945 1235.35 754.961 1234.22 757.57 1234.22C758.414 1234.22 759.055 1234.33 759.492 1234.55V1238.58ZM768.211 1260.05H763.875V1234.69H768.211V1260.05ZM763.523 1227.96C763.523 1227.26 763.734 1226.67 764.156 1226.18C764.594 1225.7 765.234 1225.46 766.078 1225.46C766.922 1225.46 767.562 1225.7 768 1226.18C768.437 1226.67 768.656 1227.26 768.656 1227.96C768.656 1228.67 768.437 1229.25 768 1229.72C767.562 1230.19 766.922 1230.42 766.078 1230.42C765.234 1230.42 764.594 1230.19 764.156 1229.72C763.734 1229.25 763.523 1228.67 763.523 1227.96ZM785.695 1260.52C782.258 1260.52 779.461 1259.39 777.305 1257.14C775.148 1254.88 774.07 1251.85 774.07 1248.07V1247.28C774.07 1244.76 774.547 1242.52 775.5 1240.55C776.469 1238.56 777.812 1237.02 779.531 1235.91C781.265 1234.78 783.14 1234.22 785.156 1234.22C788.453 1234.22 791.015 1235.31 792.844 1237.48C794.672 1239.65 795.586 1242.76 795.586 1246.81V1248.61H778.406C778.469 1251.11 779.195 1253.14 780.586 1254.68C781.992 1256.21 783.773 1256.98 785.93 1256.98C787.461 1256.98 788.758 1256.67 789.82 1256.04C790.883 1255.42 791.812 1254.59 792.609 1253.56L795.258 1255.62C793.133 1258.89 789.945 1260.52 785.695 1260.52ZM785.156 1237.78C783.406 1237.78 781.937 1238.42 780.75 1239.71C779.562 1240.97 778.828 1242.75 778.547 1245.05H791.25V1244.72C791.125 1242.52 790.531 1240.81 789.469 1239.61C788.406 1238.39 786.969 1237.78 785.156 1237.78ZM815.39 1253.32C815.39 1252.15 814.945 1251.24 814.055 1250.6C813.18 1249.95 811.64 1249.39 809.437 1248.92C807.25 1248.45 805.508 1247.89 804.211 1247.23C802.93 1246.57 801.976 1245.79 801.351 1244.89C800.742 1243.98 800.437 1242.9 800.437 1241.65C800.437 1239.57 801.312 1237.81 803.062 1236.38C804.828 1234.94 807.078 1234.22 809.812 1234.22C812.687 1234.22 815.015 1234.96 816.797 1236.45C818.594 1237.93 819.492 1239.83 819.492 1242.14H815.133C815.133 1240.96 814.625 1239.93 813.609 1239.07C812.609 1238.21 811.344 1237.78 809.812 1237.78C808.234 1237.78 807 1238.13 806.109 1238.81C805.219 1239.5 804.773 1240.4 804.773 1241.51C804.773 1242.56 805.187 1243.35 806.015 1243.88C806.844 1244.41 808.336 1244.92 810.492 1245.4C812.664 1245.89 814.422 1246.46 815.765 1247.14C817.109 1247.81 818.101 1248.62 818.742 1249.57C819.398 1250.51 819.726 1251.66 819.726 1253.02C819.726 1255.28 818.82 1257.1 817.008 1258.48C815.195 1259.84 812.844 1260.52 809.953 1260.52C807.922 1260.52 806.125 1260.16 804.562 1259.44C803 1258.72 801.773 1257.72 800.883 1256.44C800.008 1255.14 799.57 1253.74 799.57 1252.24H803.906C803.984 1253.7 804.562 1254.85 805.64 1255.71C806.734 1256.56 808.172 1256.98 809.953 1256.98C811.594 1256.98 812.906 1256.65 813.89 1255.99C814.89 1255.32 815.39 1254.43 815.39 1253.32Z" fill="black"/>
<path d="M192.055 1232.93H177.734V1248H173.234V1213.88H194.375V1217.58H177.734V1229.25H192.055V1232.93ZM197.422 1235.09C197.422 1232.6 197.906 1230.37 198.875 1228.38C199.859 1226.4 201.219 1224.87 202.953 1223.79C204.703 1222.71 206.695 1222.17 208.93 1222.17C212.383 1222.17 215.172 1223.37 217.297 1225.76C219.438 1228.15 220.508 1231.33 220.508 1235.3V1235.6C220.508 1238.07 220.031 1240.29 219.078 1242.26C218.141 1244.21 216.789 1245.73 215.023 1246.83C213.273 1247.92 211.258 1248.47 208.977 1248.47C205.539 1248.47 202.75 1247.27 200.609 1244.88C198.484 1242.49 197.422 1239.33 197.422 1235.39V1235.09ZM201.781 1235.6C201.781 1238.41 202.43 1240.67 203.727 1242.38C205.039 1244.08 206.789 1244.93 208.977 1244.93C211.18 1244.93 212.93 1244.07 214.227 1242.35C215.523 1240.62 216.172 1238.2 216.172 1235.09C216.172 1232.3 215.508 1230.05 214.18 1228.34C212.867 1226.6 211.117 1225.73 208.93 1225.73C206.789 1225.73 205.062 1226.59 203.75 1228.29C202.438 1229.99 201.781 1232.43 201.781 1235.6ZM224.797 1235.09C224.797 1232.6 225.281 1230.37 226.25 1228.38C227.234 1226.4 228.594 1224.87 230.328 1223.79C232.078 1222.71 234.07 1222.17 236.305 1222.17C239.758 1222.17 242.547 1223.37 244.672 1225.76C246.812 1228.15 247.883 1231.33 247.883 1235.3V1235.6C247.883 1238.07 247.406 1240.29 246.453 1242.26C245.516 1244.21 244.164 1245.73 242.398 1246.83C240.648 1247.92 238.633 1248.47 236.352 1248.47C232.914 1248.47 230.125 1247.27 227.984 1244.88C225.859 1242.49 224.797 1239.33 224.797 1235.39V1235.09ZM229.156 1235.6C229.156 1238.41 229.805 1240.67 231.102 1242.38C232.414 1244.08 234.164 1244.93 236.352 1244.93C238.555 1244.93 240.305 1244.07 241.602 1242.35C242.898 1240.62 243.547 1238.2 243.547 1235.09C243.547 1232.3 242.883 1230.05 241.555 1228.34C240.242 1226.6 238.492 1225.73 236.305 1225.73C234.164 1225.73 232.438 1226.59 231.125 1228.29C229.812 1229.99 229.156 1232.43 229.156 1235.6ZM252.266 1235.11C252.266 1231.22 253.188 1228.09 255.031 1225.73C256.875 1223.36 259.289 1222.17 262.273 1222.17C265.242 1222.17 267.594 1223.19 269.328 1225.22V1212H273.664V1248H269.68L269.469 1245.28C267.734 1247.41 265.32 1248.47 262.227 1248.47C259.289 1248.47 256.891 1247.27 255.031 1244.86C253.188 1242.45 252.266 1239.31 252.266 1235.44V1235.11ZM256.602 1235.6C256.602 1238.48 257.195 1240.73 258.383 1242.35C259.57 1243.98 261.211 1244.79 263.305 1244.79C266.055 1244.79 268.062 1243.55 269.328 1241.09V1229.44C268.031 1227.05 266.039 1225.85 263.352 1225.85C261.227 1225.85 259.57 1226.67 258.383 1228.31C257.195 1229.95 256.602 1232.38 256.602 1235.6ZM307.977 1248C307.727 1247.5 307.523 1246.61 307.367 1245.33C305.352 1247.42 302.945 1248.47 300.148 1248.47C297.648 1248.47 295.594 1247.77 293.984 1246.36C292.391 1244.94 291.594 1243.14 291.594 1240.97C291.594 1238.33 292.594 1236.28 294.594 1234.83C296.609 1233.36 299.438 1232.62 303.078 1232.62H307.297V1230.63C307.297 1229.12 306.844 1227.91 305.938 1227.02C305.031 1226.12 303.695 1225.66 301.93 1225.66C300.383 1225.66 299.086 1226.05 298.039 1226.84C296.992 1227.62 296.469 1228.56 296.469 1229.67H292.109C292.109 1228.41 292.555 1227.19 293.445 1226.02C294.352 1224.83 295.57 1223.89 297.102 1223.2C298.648 1222.52 300.344 1222.17 302.188 1222.17C305.109 1222.17 307.398 1222.91 309.055 1224.38C310.711 1225.83 311.57 1227.84 311.633 1230.4V1242.07C311.633 1244.4 311.93 1246.25 312.523 1247.62V1248H307.977ZM300.781 1244.7C302.141 1244.7 303.43 1244.34 304.648 1243.64C305.867 1242.94 306.75 1242.02 307.297 1240.9V1235.7H303.898C298.586 1235.7 295.93 1237.25 295.93 1240.36C295.93 1241.72 296.383 1242.78 297.289 1243.55C298.195 1244.31 299.359 1244.7 300.781 1244.7ZM322.531 1222.64L322.672 1225.83C324.609 1223.39 327.141 1222.17 330.266 1222.17C335.625 1222.17 338.328 1225.2 338.375 1231.24V1248H334.039V1231.22C334.023 1229.39 333.602 1228.04 332.773 1227.16C331.961 1226.29 330.688 1225.85 328.953 1225.85C327.547 1225.85 326.312 1226.23 325.25 1226.98C324.188 1227.73 323.359 1228.71 322.766 1229.93V1248H318.43V1222.64H322.531ZM343.859 1235.11C343.859 1231.22 344.781 1228.09 346.625 1225.73C348.469 1223.36 350.883 1222.17 353.867 1222.17C356.836 1222.17 359.188 1223.19 360.922 1225.22V1212H365.258V1248H361.273L361.062 1245.28C359.328 1247.41 356.914 1248.47 353.82 1248.47C350.883 1248.47 348.484 1247.27 346.625 1244.86C344.781 1242.45 343.859 1239.31 343.859 1235.44V1235.11ZM348.195 1235.6C348.195 1238.48 348.789 1240.73 349.977 1242.35C351.164 1243.98 352.805 1244.79 354.898 1244.79C357.648 1244.79 359.656 1243.55 360.922 1241.09V1229.44C359.625 1227.05 357.633 1225.85 354.945 1225.85C352.82 1225.85 351.164 1226.67 349.977 1228.31C348.789 1229.95 348.195 1232.38 348.195 1235.6ZM205.578 1304V1269.88H215.211C218.18 1269.88 220.805 1270.53 223.086 1271.84C225.367 1273.16 227.125 1275.02 228.359 1277.45C229.609 1279.87 230.242 1282.65 230.258 1285.79V1287.97C230.258 1291.19 229.633 1294.01 228.383 1296.43C227.148 1298.85 225.375 1300.71 223.062 1302.01C220.766 1303.3 218.086 1303.97 215.023 1304H205.578ZM210.078 1273.58V1300.32H214.812C218.281 1300.32 220.977 1299.24 222.898 1297.09C224.836 1294.93 225.805 1291.86 225.805 1287.88V1285.88C225.805 1282.01 224.891 1279 223.062 1276.86C221.25 1274.7 218.672 1273.61 215.328 1273.58H210.078ZM241.109 1304H236.773V1278.64H241.109V1304ZM236.422 1271.91C236.422 1271.21 236.633 1270.62 237.055 1270.13C237.492 1269.65 238.133 1269.41 238.977 1269.41C239.82 1269.41 240.461 1269.65 240.898 1270.13C241.336 1270.62 241.555 1271.21 241.555 1271.91C241.555 1272.62 241.336 1273.2 240.898 1273.67C240.461 1274.14 239.82 1274.38 238.977 1274.38C238.133 1274.38 237.492 1274.14 237.055 1273.67C236.633 1273.2 236.422 1272.62 236.422 1271.91ZM252.172 1278.64L252.312 1281.83C254.25 1279.39 256.781 1278.17 259.906 1278.17C265.266 1278.17 267.969 1281.2 268.016 1287.24V1304H263.68V1287.22C263.664 1285.39 263.242 1284.04 262.414 1283.16C261.602 1282.29 260.328 1281.85 258.594 1281.85C257.188 1281.85 255.953 1282.23 254.891 1282.98C253.828 1283.73 253 1284.71 252.406 1285.93V1304H248.07V1278.64H252.172ZM279.266 1304H274.93V1278.64H279.266V1304ZM274.578 1271.91C274.578 1271.21 274.789 1270.62 275.211 1270.13C275.648 1269.65 276.289 1269.41 277.133 1269.41C277.977 1269.41 278.617 1269.65 279.055 1270.13C279.492 1270.62 279.711 1271.21 279.711 1271.91C279.711 1272.62 279.492 1273.2 279.055 1273.67C278.617 1274.14 277.977 1274.38 277.133 1274.38C276.289 1274.38 275.648 1274.14 275.211 1273.67C274.789 1273.2 274.578 1272.62 274.578 1271.91ZM290.328 1278.64L290.469 1281.83C292.406 1279.39 294.938 1278.17 298.062 1278.17C303.422 1278.17 306.125 1281.2 306.172 1287.24V1304H301.836V1287.22C301.82 1285.39 301.398 1284.04 300.57 1283.16C299.758 1282.29 298.484 1281.85 296.75 1281.85C295.344 1281.85 294.109 1282.23 293.047 1282.98C291.984 1283.73 291.156 1284.71 290.562 1285.93V1304H286.227V1278.64H290.328ZM311.68 1291.11C311.68 1287.16 312.594 1284.02 314.422 1281.69C316.25 1279.34 318.672 1278.17 321.688 1278.17C324.781 1278.17 327.195 1279.27 328.93 1281.45L329.141 1278.64H333.102V1303.39C333.102 1306.67 332.125 1309.26 330.172 1311.15C328.234 1313.04 325.625 1313.98 322.344 1313.98C320.516 1313.98 318.727 1313.59 316.977 1312.81C315.227 1312.03 313.891 1310.96 312.969 1309.6L315.219 1307C317.078 1309.3 319.352 1310.45 322.039 1310.45C324.148 1310.45 325.789 1309.85 326.961 1308.66C328.148 1307.48 328.742 1305.8 328.742 1303.65V1301.47C327.008 1303.47 324.641 1304.47 321.641 1304.47C318.672 1304.47 316.266 1303.27 314.422 1300.88C312.594 1298.49 311.68 1295.23 311.68 1291.11ZM316.039 1291.6C316.039 1294.46 316.625 1296.71 317.797 1298.35C318.969 1299.98 320.609 1300.79 322.719 1300.79C325.453 1300.79 327.461 1299.55 328.742 1297.06V1285.48C327.414 1283.06 325.422 1281.85 322.766 1281.85C320.656 1281.85 319.008 1282.67 317.82 1284.31C316.633 1285.95 316.039 1288.38 316.039 1291.6Z" fill="black"/>
<path d="M189.779 1080.92C188.623 1082.57 187.005 1083.81 184.927 1084.64C182.865 1085.46 180.458 1085.86 177.708 1085.86C174.927 1085.86 172.458 1085.21 170.302 1083.92C168.146 1082.6 166.474 1080.74 165.287 1078.34C164.115 1075.93 163.513 1073.14 163.482 1069.97V1066.99C163.482 1061.85 164.677 1057.87 167.068 1055.04C169.474 1052.21 172.849 1050.8 177.193 1050.8C180.755 1050.8 183.623 1051.71 185.794 1053.54C187.966 1055.35 189.294 1057.93 189.779 1061.28H185.279C184.435 1056.76 181.748 1054.5 177.216 1054.5C174.201 1054.5 171.912 1055.56 170.349 1057.69C168.802 1059.8 168.021 1062.86 168.005 1066.88V1069.67C168.005 1073.49 168.88 1076.54 170.63 1078.81C172.38 1081.06 174.748 1082.18 177.732 1082.18C179.419 1082.18 180.896 1081.99 182.162 1081.62C183.427 1081.24 184.474 1080.61 185.302 1079.72V1072.06H177.404V1068.4H189.779V1080.92ZM212.279 1085.39C212.029 1084.89 211.826 1084 211.669 1082.72C209.654 1084.81 207.248 1085.86 204.451 1085.86C201.951 1085.86 199.896 1085.16 198.287 1083.75C196.693 1082.33 195.896 1080.53 195.896 1078.36C195.896 1075.72 196.896 1073.67 198.896 1072.22C200.912 1070.75 203.74 1070.02 207.38 1070.02H211.599V1068.03C211.599 1066.51 211.146 1065.31 210.24 1064.42C209.333 1063.51 207.998 1063.06 206.232 1063.06C204.685 1063.06 203.388 1063.45 202.341 1064.23C201.294 1065.01 200.771 1065.96 200.771 1067.06H196.412C196.412 1065.8 196.857 1064.58 197.748 1063.41C198.654 1062.22 199.873 1061.28 201.404 1060.6C202.951 1059.91 204.646 1059.56 206.49 1059.56C209.412 1059.56 211.701 1060.3 213.357 1061.77C215.013 1063.22 215.873 1065.23 215.935 1067.79V1079.46C215.935 1081.79 216.232 1083.64 216.826 1085.02V1085.39H212.279ZM205.083 1082.09C206.443 1082.09 207.732 1081.74 208.951 1081.03C210.169 1080.33 211.052 1079.42 211.599 1078.29V1073.09H208.201C202.888 1073.09 200.232 1074.64 200.232 1077.75C200.232 1079.11 200.685 1080.17 201.591 1080.94C202.498 1081.71 203.662 1082.09 205.083 1082.09ZM237.498 1078.67C237.498 1077.49 237.052 1076.59 236.162 1075.95C235.287 1075.29 233.748 1074.73 231.544 1074.26C229.357 1073.79 227.615 1073.23 226.318 1072.57C225.037 1071.92 224.083 1071.14 223.458 1070.23C222.849 1069.32 222.544 1068.24 222.544 1066.99C222.544 1064.92 223.419 1063.16 225.169 1061.72C226.935 1060.28 229.185 1059.56 231.919 1059.56C234.794 1059.56 237.123 1060.31 238.904 1061.79C240.701 1063.28 241.599 1065.17 241.599 1067.49H237.24C237.24 1066.3 236.732 1065.28 235.716 1064.42C234.716 1063.56 233.451 1063.13 231.919 1063.13C230.341 1063.13 229.107 1063.47 228.216 1064.16C227.326 1064.85 226.88 1065.74 226.88 1066.85C226.88 1067.9 227.294 1068.69 228.123 1069.22C228.951 1069.75 230.443 1070.26 232.599 1070.74C234.771 1071.23 236.529 1071.81 237.873 1072.48C239.216 1073.15 240.208 1073.96 240.849 1074.92C241.505 1075.85 241.833 1077 241.833 1078.36C241.833 1080.63 240.927 1082.45 239.115 1083.82C237.302 1085.18 234.951 1085.86 232.06 1085.86C230.029 1085.86 228.232 1085.5 226.669 1084.78C225.107 1084.06 223.88 1083.06 222.99 1081.78C222.115 1080.49 221.677 1079.09 221.677 1077.59H226.013C226.091 1079.04 226.669 1080.2 227.748 1081.06C228.841 1081.9 230.279 1082.32 232.06 1082.32C233.701 1082.32 235.013 1081.99 235.998 1081.34C236.998 1080.67 237.498 1079.78 237.498 1078.67ZM275.044 1085.39C274.794 1084.89 274.591 1084 274.435 1082.72C272.419 1084.81 270.013 1085.86 267.216 1085.86C264.716 1085.86 262.662 1085.16 261.052 1083.75C259.458 1082.33 258.662 1080.53 258.662 1078.36C258.662 1075.72 259.662 1073.67 261.662 1072.22C263.677 1070.75 266.505 1070.02 270.146 1070.02H274.365V1068.03C274.365 1066.51 273.912 1065.31 273.005 1064.42C272.099 1063.51 270.763 1063.06 268.998 1063.06C267.451 1063.06 266.154 1063.45 265.107 1064.23C264.06 1065.01 263.537 1065.96 263.537 1067.06H259.177C259.177 1065.8 259.623 1064.58 260.513 1063.41C261.419 1062.22 262.638 1061.28 264.169 1060.6C265.716 1059.91 267.412 1059.56 269.255 1059.56C272.177 1059.56 274.466 1060.3 276.123 1061.77C277.779 1063.22 278.638 1065.23 278.701 1067.79V1079.46C278.701 1081.79 278.998 1083.64 279.591 1085.02V1085.39H275.044ZM267.849 1082.09C269.208 1082.09 270.498 1081.74 271.716 1081.03C272.935 1080.33 273.818 1079.42 274.365 1078.29V1073.09H270.966C265.654 1073.09 262.998 1074.64 262.998 1077.75C262.998 1079.11 263.451 1080.17 264.357 1080.94C265.263 1081.71 266.427 1082.09 267.849 1082.09ZM289.599 1060.03L289.74 1063.22C291.677 1060.78 294.208 1059.56 297.333 1059.56C302.693 1059.56 305.396 1062.59 305.443 1068.64V1085.39H301.107V1068.61C301.091 1066.78 300.669 1065.43 299.841 1064.56C299.029 1063.68 297.755 1063.24 296.021 1063.24C294.615 1063.24 293.38 1063.62 292.318 1064.37C291.255 1065.12 290.427 1066.1 289.833 1067.32V1085.39H285.498V1060.03H289.599ZM310.927 1072.5C310.927 1068.61 311.849 1065.49 313.693 1063.13C315.537 1060.75 317.951 1059.56 320.935 1059.56C323.904 1059.56 326.255 1060.58 327.99 1062.61V1049.39H332.326V1085.39H328.341L328.13 1082.67C326.396 1084.8 323.982 1085.86 320.888 1085.86C317.951 1085.86 315.552 1084.66 313.693 1082.25C311.849 1079.85 310.927 1076.71 310.927 1072.83V1072.5ZM315.263 1072.99C315.263 1075.87 315.857 1078.12 317.044 1079.74C318.232 1081.37 319.873 1082.18 321.966 1082.18C324.716 1082.18 326.724 1080.95 327.99 1078.48V1066.83C326.693 1064.44 324.701 1063.24 322.013 1063.24C319.888 1063.24 318.232 1064.06 317.044 1065.71C315.857 1067.35 315.263 1069.78 315.263 1072.99ZM226.177 1126.32H211.857V1141.39H207.357V1107.27H228.498V1110.97H211.857V1122.64H226.177V1126.32ZM248.349 1138.89C246.662 1140.87 244.185 1141.86 240.919 1141.86C238.216 1141.86 236.154 1141.08 234.732 1139.52C233.326 1137.94 232.615 1135.61 232.599 1132.53V1116.03H236.935V1132.42C236.935 1136.26 238.498 1138.18 241.623 1138.18C244.935 1138.18 247.138 1136.95 248.232 1134.48V1116.03H252.568V1141.39H248.443L248.349 1138.89ZM269.701 1141.86C266.263 1141.86 263.466 1140.74 261.31 1138.49C259.154 1136.22 258.076 1133.2 258.076 1129.42V1128.62C258.076 1126.1 258.552 1123.86 259.505 1121.89C260.474 1119.91 261.818 1118.36 263.537 1117.25C265.271 1116.13 267.146 1115.56 269.162 1115.56C272.458 1115.56 275.021 1116.65 276.849 1118.82C278.677 1120.99 279.591 1124.1 279.591 1128.15V1129.96H262.412C262.474 1132.46 263.201 1134.48 264.591 1136.03C265.998 1137.56 267.779 1138.32 269.935 1138.32C271.466 1138.32 272.763 1138.01 273.826 1137.39C274.888 1136.76 275.818 1135.93 276.615 1134.9L279.263 1136.96C277.138 1140.23 273.951 1141.86 269.701 1141.86ZM269.162 1119.13C267.412 1119.13 265.943 1119.77 264.755 1121.05C263.568 1122.31 262.833 1124.1 262.552 1126.39H275.255V1126.06C275.13 1123.86 274.537 1122.16 273.474 1120.96C272.412 1119.74 270.974 1119.13 269.162 1119.13ZM289.341 1141.39H285.005V1105.39H289.341V1141.39Z" fill="black"/>
<path d="M448.382 499.092H441.597L415.827 459.647V499.092H409.042V447.905H415.827L441.667 487.526V447.905H448.382V499.092ZM499.745 475.151C499.745 480.167 498.901 484.549 497.214 488.299C495.526 492.026 493.136 494.874 490.042 496.842C486.948 498.811 483.339 499.795 479.214 499.795C475.182 499.795 471.608 498.811 468.491 496.842C465.374 494.85 462.948 492.026 461.214 488.37C459.503 484.69 458.624 480.436 458.577 475.608V471.917C458.577 466.995 459.432 462.647 461.143 458.874C462.854 455.1 465.268 452.217 468.386 450.225C471.526 448.209 475.112 447.202 479.143 447.202C483.245 447.202 486.854 448.198 489.972 450.19C493.112 452.159 495.526 455.03 497.214 458.803C498.901 462.553 499.745 466.924 499.745 471.917V475.151ZM493.03 471.846C493.03 465.776 491.811 461.124 489.374 457.889C486.936 454.631 483.526 453.002 479.143 453.002C474.878 453.002 471.514 454.631 469.054 457.889C466.616 461.124 465.362 465.624 465.292 471.389V475.151C465.292 481.034 466.522 485.663 468.983 489.038C471.468 492.389 474.878 494.065 479.214 494.065C483.573 494.065 486.948 492.483 489.339 489.319C491.729 486.131 492.96 481.573 493.03 475.643V471.846ZM526.042 490.127L540.667 447.905H548.05L529.065 499.092H523.089L504.139 447.905H511.487L526.042 490.127Z" fill="#6C6B6B"/>
<path d="M756.287 473.468C756.287 631.223 630.601 759.108 475.56 759.108C320.518 759.108 194.832 631.223 194.832 473.468C194.832 315.714 320.518 187.829 475.56 187.829C630.601 187.829 756.287 315.714 756.287 473.468ZM367.035 473.468C367.035 534.454 415.623 583.892 475.56 583.892C535.496 583.892 584.085 534.454 584.085 473.468C584.085 412.483 535.496 363.044 475.56 363.044C415.623 363.044 367.035 412.483 367.035 473.468Z" fill="#F09643"/>
<path d="M491.031 758.674C416.691 762.849 343.765 736.804 288.297 686.27C232.829 635.736 199.362 564.851 195.259 489.21L367.2 479.554C368.786 508.796 381.724 536.199 403.167 555.734C424.61 575.27 452.802 585.338 481.541 583.724L491.031 758.674Z" fill="#39B3CB"/>
<path d="M370.112 208.745C358.853 213.388 347.902 218.77 337.328 224.857L422.121 377.358C426.209 375.005 430.442 372.924 434.795 371.13L370.112 208.745Z" fill="#F596F1"/>
<path d="M475.56 187.829C438.968 187.829 402.73 195.107 368.883 209.255L434.32 371.327C447.405 365.858 461.414 363.044 475.56 363.044V187.829Z" fill="#945EF8"/>
<path d="M726.738 601.03C748.291 557.093 758.347 508.246 755.937 459.202C753.526 410.158 738.731 362.575 712.978 321.046C687.225 279.516 651.385 245.444 608.918 222.116C566.451 198.789 518.79 186.996 470.537 187.874L473.618 363.062C492.272 362.722 510.697 367.281 527.114 376.299C543.531 385.317 557.387 398.489 567.342 414.544C577.298 430.598 583.018 448.993 583.949 467.953C584.881 486.913 580.993 505.796 572.662 522.782L726.738 601.03Z" fill="#FDCC03"/>
<path d="M726.409 601.7C703.983 647.118 670.053 685.624 628.121 713.246C586.188 740.868 537.771 756.605 487.866 758.833L480.317 583.786C499.61 582.925 518.327 576.841 534.538 566.163C550.748 555.485 563.865 540.599 572.534 523.041L726.409 601.7Z" fill="#4CE5FE"/>
<defs>
<filter id="filter0_d_0_1" x="0.255371" y="0.0952148" width="995.94" height="112.415" filterUnits="userSpaceOnUse" color-interpolation-filters="sRGB">
<feFlood flood-opacity="0" result="BackgroundImageFix"/>
<feColorMatrix in="SourceAlpha" type="matrix" values="0 0 0 0 0 0 0 0 0 0 0 0 0 0 0 0 0 0 127 0" result="hardAlpha"/>
<feOffset dy="4"/>
<feGaussianBlur stdDeviation="2"/>
<feComposite in2="hardAlpha" operator="out"/>
<feColorMatrix type="matrix" values="0 0 0 0 0 0 0 0 0 0 0 0 0 0 0 0 0 0 0.25 0"/>
<feBlend mode="normal" in2="BackgroundImageFix" result="effect1_dropShadow_0_1"/>
<feBlend mode="normal" in="SourceGraphic" in2="effect1_dropShadow_0_1" result="shape"/>
</filter>
</defs>
</svg>
